G04 #@! TF.GenerationSoftware,KiCad,Pcbnew,(5.1.0-0)*
G04 #@! TF.CreationDate,2020-01-19T11:58:23-08:00*
G04 #@! TF.ProjectId,stm32_qfp64_breakout,73746d33-325f-4716-9670-36345f627265,rev?*
G04 #@! TF.SameCoordinates,Original*
G04 #@! TF.FileFunction,Copper,L1,Top*
G04 #@! TF.FilePolarity,Positive*
%FSLAX46Y46*%
G04 Gerber Fmt 4.6, Leading zero omitted, Abs format (unit mm)*
G04 Created by KiCad (PCBNEW (5.1.0-0)) date 2020-01-19 11:58:23*
%MOMM*%
%LPD*%
G04 APERTURE LIST*
%ADD10R,1.800000X1.200000*%
%ADD11C,1.650000*%
%ADD12R,1.850000X0.400000*%
%ADD13C,0.100000*%
%ADD14C,0.875000*%
%ADD15O,1.700000X1.700000*%
%ADD16R,1.700000X1.700000*%
%ADD17R,0.330000X0.500000*%
%ADD18R,1.600000X1.100000*%
%ADD19C,0.500000*%
%ADD20C,1.900000*%
%ADD21C,0.300000*%
%ADD22C,0.975000*%
%ADD23C,0.762000*%
%ADD24C,0.152400*%
%ADD25C,0.254000*%
G04 APERTURE END LIST*
D10*
X150241000Y-72252000D03*
X150241000Y-74052000D03*
D11*
X150241000Y-76452000D03*
D12*
X147241000Y-74452000D03*
X147241000Y-73802000D03*
X147241000Y-73152000D03*
X147241000Y-72502000D03*
X147241000Y-71852000D03*
D11*
X150241000Y-69852000D03*
D13*
G36*
X114343771Y-63710380D02*
G01*
X114365006Y-63713530D01*
X114385830Y-63718746D01*
X114406042Y-63725978D01*
X114425448Y-63735157D01*
X114443861Y-63746193D01*
X114461104Y-63758981D01*
X114477010Y-63773397D01*
X114839403Y-64135790D01*
X114853819Y-64151696D01*
X114866607Y-64168939D01*
X114877643Y-64187352D01*
X114886822Y-64206758D01*
X114894054Y-64226970D01*
X114899270Y-64247794D01*
X114902420Y-64269029D01*
X114903473Y-64290470D01*
X114902420Y-64311911D01*
X114899270Y-64333146D01*
X114894054Y-64353970D01*
X114886822Y-64374182D01*
X114877643Y-64393588D01*
X114866607Y-64412001D01*
X114853819Y-64429244D01*
X114839403Y-64445150D01*
X114530044Y-64754509D01*
X114514138Y-64768925D01*
X114496895Y-64781713D01*
X114478482Y-64792749D01*
X114459076Y-64801928D01*
X114438864Y-64809160D01*
X114418040Y-64814376D01*
X114396805Y-64817526D01*
X114375364Y-64818579D01*
X114353923Y-64817526D01*
X114332688Y-64814376D01*
X114311864Y-64809160D01*
X114291652Y-64801928D01*
X114272246Y-64792749D01*
X114253833Y-64781713D01*
X114236590Y-64768925D01*
X114220684Y-64754509D01*
X113858291Y-64392116D01*
X113843875Y-64376210D01*
X113831087Y-64358967D01*
X113820051Y-64340554D01*
X113810872Y-64321148D01*
X113803640Y-64300936D01*
X113798424Y-64280112D01*
X113795274Y-64258877D01*
X113794221Y-64237436D01*
X113795274Y-64215995D01*
X113798424Y-64194760D01*
X113803640Y-64173936D01*
X113810872Y-64153724D01*
X113820051Y-64134318D01*
X113831087Y-64115905D01*
X113843875Y-64098662D01*
X113858291Y-64082756D01*
X114167650Y-63773397D01*
X114183556Y-63758981D01*
X114200799Y-63746193D01*
X114219212Y-63735157D01*
X114238618Y-63725978D01*
X114258830Y-63718746D01*
X114279654Y-63713530D01*
X114300889Y-63710380D01*
X114322330Y-63709327D01*
X114343771Y-63710380D01*
X114343771Y-63710380D01*
G37*
D14*
X114348847Y-64263953D03*
D13*
G36*
X113230077Y-64824074D02*
G01*
X113251312Y-64827224D01*
X113272136Y-64832440D01*
X113292348Y-64839672D01*
X113311754Y-64848851D01*
X113330167Y-64859887D01*
X113347410Y-64872675D01*
X113363316Y-64887091D01*
X113725709Y-65249484D01*
X113740125Y-65265390D01*
X113752913Y-65282633D01*
X113763949Y-65301046D01*
X113773128Y-65320452D01*
X113780360Y-65340664D01*
X113785576Y-65361488D01*
X113788726Y-65382723D01*
X113789779Y-65404164D01*
X113788726Y-65425605D01*
X113785576Y-65446840D01*
X113780360Y-65467664D01*
X113773128Y-65487876D01*
X113763949Y-65507282D01*
X113752913Y-65525695D01*
X113740125Y-65542938D01*
X113725709Y-65558844D01*
X113416350Y-65868203D01*
X113400444Y-65882619D01*
X113383201Y-65895407D01*
X113364788Y-65906443D01*
X113345382Y-65915622D01*
X113325170Y-65922854D01*
X113304346Y-65928070D01*
X113283111Y-65931220D01*
X113261670Y-65932273D01*
X113240229Y-65931220D01*
X113218994Y-65928070D01*
X113198170Y-65922854D01*
X113177958Y-65915622D01*
X113158552Y-65906443D01*
X113140139Y-65895407D01*
X113122896Y-65882619D01*
X113106990Y-65868203D01*
X112744597Y-65505810D01*
X112730181Y-65489904D01*
X112717393Y-65472661D01*
X112706357Y-65454248D01*
X112697178Y-65434842D01*
X112689946Y-65414630D01*
X112684730Y-65393806D01*
X112681580Y-65372571D01*
X112680527Y-65351130D01*
X112681580Y-65329689D01*
X112684730Y-65308454D01*
X112689946Y-65287630D01*
X112697178Y-65267418D01*
X112706357Y-65248012D01*
X112717393Y-65229599D01*
X112730181Y-65212356D01*
X112744597Y-65196450D01*
X113053956Y-64887091D01*
X113069862Y-64872675D01*
X113087105Y-64859887D01*
X113105518Y-64848851D01*
X113124924Y-64839672D01*
X113145136Y-64832440D01*
X113165960Y-64827224D01*
X113187195Y-64824074D01*
X113208636Y-64823021D01*
X113230077Y-64824074D01*
X113230077Y-64824074D01*
G37*
D14*
X113235153Y-65377647D03*
D15*
X124460000Y-60579000D03*
X127000000Y-60579000D03*
D16*
X129540000Y-60579000D03*
D13*
G36*
X144502974Y-68002942D02*
G01*
X144524209Y-68006092D01*
X144545033Y-68011308D01*
X144565245Y-68018540D01*
X144584651Y-68027719D01*
X144603064Y-68038755D01*
X144620307Y-68051543D01*
X144636213Y-68065959D01*
X144650629Y-68081865D01*
X144663417Y-68099108D01*
X144674453Y-68117521D01*
X144683632Y-68136927D01*
X144690864Y-68157139D01*
X144696080Y-68177963D01*
X144699230Y-68199198D01*
X144700283Y-68220639D01*
X144700283Y-68733139D01*
X144699230Y-68754580D01*
X144696080Y-68775815D01*
X144690864Y-68796639D01*
X144683632Y-68816851D01*
X144674453Y-68836257D01*
X144663417Y-68854670D01*
X144650629Y-68871913D01*
X144636213Y-68887819D01*
X144620307Y-68902235D01*
X144603064Y-68915023D01*
X144584651Y-68926059D01*
X144565245Y-68935238D01*
X144545033Y-68942470D01*
X144524209Y-68947686D01*
X144502974Y-68950836D01*
X144481533Y-68951889D01*
X144044033Y-68951889D01*
X144022592Y-68950836D01*
X144001357Y-68947686D01*
X143980533Y-68942470D01*
X143960321Y-68935238D01*
X143940915Y-68926059D01*
X143922502Y-68915023D01*
X143905259Y-68902235D01*
X143889353Y-68887819D01*
X143874937Y-68871913D01*
X143862149Y-68854670D01*
X143851113Y-68836257D01*
X143841934Y-68816851D01*
X143834702Y-68796639D01*
X143829486Y-68775815D01*
X143826336Y-68754580D01*
X143825283Y-68733139D01*
X143825283Y-68220639D01*
X143826336Y-68199198D01*
X143829486Y-68177963D01*
X143834702Y-68157139D01*
X143841934Y-68136927D01*
X143851113Y-68117521D01*
X143862149Y-68099108D01*
X143874937Y-68081865D01*
X143889353Y-68065959D01*
X143905259Y-68051543D01*
X143922502Y-68038755D01*
X143940915Y-68027719D01*
X143960321Y-68018540D01*
X143980533Y-68011308D01*
X144001357Y-68006092D01*
X144022592Y-68002942D01*
X144044033Y-68001889D01*
X144481533Y-68001889D01*
X144502974Y-68002942D01*
X144502974Y-68002942D01*
G37*
D14*
X144262783Y-68476889D03*
D13*
G36*
X142927974Y-68002942D02*
G01*
X142949209Y-68006092D01*
X142970033Y-68011308D01*
X142990245Y-68018540D01*
X143009651Y-68027719D01*
X143028064Y-68038755D01*
X143045307Y-68051543D01*
X143061213Y-68065959D01*
X143075629Y-68081865D01*
X143088417Y-68099108D01*
X143099453Y-68117521D01*
X143108632Y-68136927D01*
X143115864Y-68157139D01*
X143121080Y-68177963D01*
X143124230Y-68199198D01*
X143125283Y-68220639D01*
X143125283Y-68733139D01*
X143124230Y-68754580D01*
X143121080Y-68775815D01*
X143115864Y-68796639D01*
X143108632Y-68816851D01*
X143099453Y-68836257D01*
X143088417Y-68854670D01*
X143075629Y-68871913D01*
X143061213Y-68887819D01*
X143045307Y-68902235D01*
X143028064Y-68915023D01*
X143009651Y-68926059D01*
X142990245Y-68935238D01*
X142970033Y-68942470D01*
X142949209Y-68947686D01*
X142927974Y-68950836D01*
X142906533Y-68951889D01*
X142469033Y-68951889D01*
X142447592Y-68950836D01*
X142426357Y-68947686D01*
X142405533Y-68942470D01*
X142385321Y-68935238D01*
X142365915Y-68926059D01*
X142347502Y-68915023D01*
X142330259Y-68902235D01*
X142314353Y-68887819D01*
X142299937Y-68871913D01*
X142287149Y-68854670D01*
X142276113Y-68836257D01*
X142266934Y-68816851D01*
X142259702Y-68796639D01*
X142254486Y-68775815D01*
X142251336Y-68754580D01*
X142250283Y-68733139D01*
X142250283Y-68220639D01*
X142251336Y-68199198D01*
X142254486Y-68177963D01*
X142259702Y-68157139D01*
X142266934Y-68136927D01*
X142276113Y-68117521D01*
X142287149Y-68099108D01*
X142299937Y-68081865D01*
X142314353Y-68065959D01*
X142330259Y-68051543D01*
X142347502Y-68038755D01*
X142365915Y-68027719D01*
X142385321Y-68018540D01*
X142405533Y-68011308D01*
X142426357Y-68006092D01*
X142447592Y-68002942D01*
X142469033Y-68001889D01*
X142906533Y-68001889D01*
X142927974Y-68002942D01*
X142927974Y-68002942D01*
G37*
D14*
X142687783Y-68476889D03*
D13*
G36*
X142069424Y-75187147D02*
G01*
X142090659Y-75190297D01*
X142111483Y-75195513D01*
X142131695Y-75202745D01*
X142151101Y-75211924D01*
X142169514Y-75222960D01*
X142186757Y-75235748D01*
X142202663Y-75250164D01*
X142217079Y-75266070D01*
X142229867Y-75283313D01*
X142240903Y-75301726D01*
X142250082Y-75321132D01*
X142257314Y-75341344D01*
X142262530Y-75362168D01*
X142265680Y-75383403D01*
X142266733Y-75404844D01*
X142266733Y-75917344D01*
X142265680Y-75938785D01*
X142262530Y-75960020D01*
X142257314Y-75980844D01*
X142250082Y-76001056D01*
X142240903Y-76020462D01*
X142229867Y-76038875D01*
X142217079Y-76056118D01*
X142202663Y-76072024D01*
X142186757Y-76086440D01*
X142169514Y-76099228D01*
X142151101Y-76110264D01*
X142131695Y-76119443D01*
X142111483Y-76126675D01*
X142090659Y-76131891D01*
X142069424Y-76135041D01*
X142047983Y-76136094D01*
X141610483Y-76136094D01*
X141589042Y-76135041D01*
X141567807Y-76131891D01*
X141546983Y-76126675D01*
X141526771Y-76119443D01*
X141507365Y-76110264D01*
X141488952Y-76099228D01*
X141471709Y-76086440D01*
X141455803Y-76072024D01*
X141441387Y-76056118D01*
X141428599Y-76038875D01*
X141417563Y-76020462D01*
X141408384Y-76001056D01*
X141401152Y-75980844D01*
X141395936Y-75960020D01*
X141392786Y-75938785D01*
X141391733Y-75917344D01*
X141391733Y-75404844D01*
X141392786Y-75383403D01*
X141395936Y-75362168D01*
X141401152Y-75341344D01*
X141408384Y-75321132D01*
X141417563Y-75301726D01*
X141428599Y-75283313D01*
X141441387Y-75266070D01*
X141455803Y-75250164D01*
X141471709Y-75235748D01*
X141488952Y-75222960D01*
X141507365Y-75211924D01*
X141526771Y-75202745D01*
X141546983Y-75195513D01*
X141567807Y-75190297D01*
X141589042Y-75187147D01*
X141610483Y-75186094D01*
X142047983Y-75186094D01*
X142069424Y-75187147D01*
X142069424Y-75187147D01*
G37*
D14*
X141829233Y-75661094D03*
D13*
G36*
X143644424Y-75187147D02*
G01*
X143665659Y-75190297D01*
X143686483Y-75195513D01*
X143706695Y-75202745D01*
X143726101Y-75211924D01*
X143744514Y-75222960D01*
X143761757Y-75235748D01*
X143777663Y-75250164D01*
X143792079Y-75266070D01*
X143804867Y-75283313D01*
X143815903Y-75301726D01*
X143825082Y-75321132D01*
X143832314Y-75341344D01*
X143837530Y-75362168D01*
X143840680Y-75383403D01*
X143841733Y-75404844D01*
X143841733Y-75917344D01*
X143840680Y-75938785D01*
X143837530Y-75960020D01*
X143832314Y-75980844D01*
X143825082Y-76001056D01*
X143815903Y-76020462D01*
X143804867Y-76038875D01*
X143792079Y-76056118D01*
X143777663Y-76072024D01*
X143761757Y-76086440D01*
X143744514Y-76099228D01*
X143726101Y-76110264D01*
X143706695Y-76119443D01*
X143686483Y-76126675D01*
X143665659Y-76131891D01*
X143644424Y-76135041D01*
X143622983Y-76136094D01*
X143185483Y-76136094D01*
X143164042Y-76135041D01*
X143142807Y-76131891D01*
X143121983Y-76126675D01*
X143101771Y-76119443D01*
X143082365Y-76110264D01*
X143063952Y-76099228D01*
X143046709Y-76086440D01*
X143030803Y-76072024D01*
X143016387Y-76056118D01*
X143003599Y-76038875D01*
X142992563Y-76020462D01*
X142983384Y-76001056D01*
X142976152Y-75980844D01*
X142970936Y-75960020D01*
X142967786Y-75938785D01*
X142966733Y-75917344D01*
X142966733Y-75404844D01*
X142967786Y-75383403D01*
X142970936Y-75362168D01*
X142976152Y-75341344D01*
X142983384Y-75321132D01*
X142992563Y-75301726D01*
X143003599Y-75283313D01*
X143016387Y-75266070D01*
X143030803Y-75250164D01*
X143046709Y-75235748D01*
X143063952Y-75222960D01*
X143082365Y-75211924D01*
X143101771Y-75202745D01*
X143121983Y-75195513D01*
X143142807Y-75190297D01*
X143164042Y-75187147D01*
X143185483Y-75186094D01*
X143622983Y-75186094D01*
X143644424Y-75187147D01*
X143644424Y-75187147D01*
G37*
D14*
X143404233Y-75661094D03*
D13*
G36*
X116165691Y-77885053D02*
G01*
X116186926Y-77888203D01*
X116207750Y-77893419D01*
X116227962Y-77900651D01*
X116247368Y-77909830D01*
X116265781Y-77920866D01*
X116283024Y-77933654D01*
X116298930Y-77948070D01*
X116313346Y-77963976D01*
X116326134Y-77981219D01*
X116337170Y-77999632D01*
X116346349Y-78019038D01*
X116353581Y-78039250D01*
X116358797Y-78060074D01*
X116361947Y-78081309D01*
X116363000Y-78102750D01*
X116363000Y-78615250D01*
X116361947Y-78636691D01*
X116358797Y-78657926D01*
X116353581Y-78678750D01*
X116346349Y-78698962D01*
X116337170Y-78718368D01*
X116326134Y-78736781D01*
X116313346Y-78754024D01*
X116298930Y-78769930D01*
X116283024Y-78784346D01*
X116265781Y-78797134D01*
X116247368Y-78808170D01*
X116227962Y-78817349D01*
X116207750Y-78824581D01*
X116186926Y-78829797D01*
X116165691Y-78832947D01*
X116144250Y-78834000D01*
X115706750Y-78834000D01*
X115685309Y-78832947D01*
X115664074Y-78829797D01*
X115643250Y-78824581D01*
X115623038Y-78817349D01*
X115603632Y-78808170D01*
X115585219Y-78797134D01*
X115567976Y-78784346D01*
X115552070Y-78769930D01*
X115537654Y-78754024D01*
X115524866Y-78736781D01*
X115513830Y-78718368D01*
X115504651Y-78698962D01*
X115497419Y-78678750D01*
X115492203Y-78657926D01*
X115489053Y-78636691D01*
X115488000Y-78615250D01*
X115488000Y-78102750D01*
X115489053Y-78081309D01*
X115492203Y-78060074D01*
X115497419Y-78039250D01*
X115504651Y-78019038D01*
X115513830Y-77999632D01*
X115524866Y-77981219D01*
X115537654Y-77963976D01*
X115552070Y-77948070D01*
X115567976Y-77933654D01*
X115585219Y-77920866D01*
X115603632Y-77909830D01*
X115623038Y-77900651D01*
X115643250Y-77893419D01*
X115664074Y-77888203D01*
X115685309Y-77885053D01*
X115706750Y-77884000D01*
X116144250Y-77884000D01*
X116165691Y-77885053D01*
X116165691Y-77885053D01*
G37*
D14*
X115925500Y-78359000D03*
D13*
G36*
X117740691Y-77885053D02*
G01*
X117761926Y-77888203D01*
X117782750Y-77893419D01*
X117802962Y-77900651D01*
X117822368Y-77909830D01*
X117840781Y-77920866D01*
X117858024Y-77933654D01*
X117873930Y-77948070D01*
X117888346Y-77963976D01*
X117901134Y-77981219D01*
X117912170Y-77999632D01*
X117921349Y-78019038D01*
X117928581Y-78039250D01*
X117933797Y-78060074D01*
X117936947Y-78081309D01*
X117938000Y-78102750D01*
X117938000Y-78615250D01*
X117936947Y-78636691D01*
X117933797Y-78657926D01*
X117928581Y-78678750D01*
X117921349Y-78698962D01*
X117912170Y-78718368D01*
X117901134Y-78736781D01*
X117888346Y-78754024D01*
X117873930Y-78769930D01*
X117858024Y-78784346D01*
X117840781Y-78797134D01*
X117822368Y-78808170D01*
X117802962Y-78817349D01*
X117782750Y-78824581D01*
X117761926Y-78829797D01*
X117740691Y-78832947D01*
X117719250Y-78834000D01*
X117281750Y-78834000D01*
X117260309Y-78832947D01*
X117239074Y-78829797D01*
X117218250Y-78824581D01*
X117198038Y-78817349D01*
X117178632Y-78808170D01*
X117160219Y-78797134D01*
X117142976Y-78784346D01*
X117127070Y-78769930D01*
X117112654Y-78754024D01*
X117099866Y-78736781D01*
X117088830Y-78718368D01*
X117079651Y-78698962D01*
X117072419Y-78678750D01*
X117067203Y-78657926D01*
X117064053Y-78636691D01*
X117063000Y-78615250D01*
X117063000Y-78102750D01*
X117064053Y-78081309D01*
X117067203Y-78060074D01*
X117072419Y-78039250D01*
X117079651Y-78019038D01*
X117088830Y-77999632D01*
X117099866Y-77981219D01*
X117112654Y-77963976D01*
X117127070Y-77948070D01*
X117142976Y-77933654D01*
X117160219Y-77920866D01*
X117178632Y-77909830D01*
X117198038Y-77900651D01*
X117218250Y-77893419D01*
X117239074Y-77888203D01*
X117260309Y-77885053D01*
X117281750Y-77884000D01*
X117719250Y-77884000D01*
X117740691Y-77885053D01*
X117740691Y-77885053D01*
G37*
D14*
X117500500Y-78359000D03*
D13*
G36*
X127773691Y-76361053D02*
G01*
X127794926Y-76364203D01*
X127815750Y-76369419D01*
X127835962Y-76376651D01*
X127855368Y-76385830D01*
X127873781Y-76396866D01*
X127891024Y-76409654D01*
X127906930Y-76424070D01*
X127921346Y-76439976D01*
X127934134Y-76457219D01*
X127945170Y-76475632D01*
X127954349Y-76495038D01*
X127961581Y-76515250D01*
X127966797Y-76536074D01*
X127969947Y-76557309D01*
X127971000Y-76578750D01*
X127971000Y-77091250D01*
X127969947Y-77112691D01*
X127966797Y-77133926D01*
X127961581Y-77154750D01*
X127954349Y-77174962D01*
X127945170Y-77194368D01*
X127934134Y-77212781D01*
X127921346Y-77230024D01*
X127906930Y-77245930D01*
X127891024Y-77260346D01*
X127873781Y-77273134D01*
X127855368Y-77284170D01*
X127835962Y-77293349D01*
X127815750Y-77300581D01*
X127794926Y-77305797D01*
X127773691Y-77308947D01*
X127752250Y-77310000D01*
X127314750Y-77310000D01*
X127293309Y-77308947D01*
X127272074Y-77305797D01*
X127251250Y-77300581D01*
X127231038Y-77293349D01*
X127211632Y-77284170D01*
X127193219Y-77273134D01*
X127175976Y-77260346D01*
X127160070Y-77245930D01*
X127145654Y-77230024D01*
X127132866Y-77212781D01*
X127121830Y-77194368D01*
X127112651Y-77174962D01*
X127105419Y-77154750D01*
X127100203Y-77133926D01*
X127097053Y-77112691D01*
X127096000Y-77091250D01*
X127096000Y-76578750D01*
X127097053Y-76557309D01*
X127100203Y-76536074D01*
X127105419Y-76515250D01*
X127112651Y-76495038D01*
X127121830Y-76475632D01*
X127132866Y-76457219D01*
X127145654Y-76439976D01*
X127160070Y-76424070D01*
X127175976Y-76409654D01*
X127193219Y-76396866D01*
X127211632Y-76385830D01*
X127231038Y-76376651D01*
X127251250Y-76369419D01*
X127272074Y-76364203D01*
X127293309Y-76361053D01*
X127314750Y-76360000D01*
X127752250Y-76360000D01*
X127773691Y-76361053D01*
X127773691Y-76361053D01*
G37*
D14*
X127533500Y-76835000D03*
D13*
G36*
X126198691Y-76361053D02*
G01*
X126219926Y-76364203D01*
X126240750Y-76369419D01*
X126260962Y-76376651D01*
X126280368Y-76385830D01*
X126298781Y-76396866D01*
X126316024Y-76409654D01*
X126331930Y-76424070D01*
X126346346Y-76439976D01*
X126359134Y-76457219D01*
X126370170Y-76475632D01*
X126379349Y-76495038D01*
X126386581Y-76515250D01*
X126391797Y-76536074D01*
X126394947Y-76557309D01*
X126396000Y-76578750D01*
X126396000Y-77091250D01*
X126394947Y-77112691D01*
X126391797Y-77133926D01*
X126386581Y-77154750D01*
X126379349Y-77174962D01*
X126370170Y-77194368D01*
X126359134Y-77212781D01*
X126346346Y-77230024D01*
X126331930Y-77245930D01*
X126316024Y-77260346D01*
X126298781Y-77273134D01*
X126280368Y-77284170D01*
X126260962Y-77293349D01*
X126240750Y-77300581D01*
X126219926Y-77305797D01*
X126198691Y-77308947D01*
X126177250Y-77310000D01*
X125739750Y-77310000D01*
X125718309Y-77308947D01*
X125697074Y-77305797D01*
X125676250Y-77300581D01*
X125656038Y-77293349D01*
X125636632Y-77284170D01*
X125618219Y-77273134D01*
X125600976Y-77260346D01*
X125585070Y-77245930D01*
X125570654Y-77230024D01*
X125557866Y-77212781D01*
X125546830Y-77194368D01*
X125537651Y-77174962D01*
X125530419Y-77154750D01*
X125525203Y-77133926D01*
X125522053Y-77112691D01*
X125521000Y-77091250D01*
X125521000Y-76578750D01*
X125522053Y-76557309D01*
X125525203Y-76536074D01*
X125530419Y-76515250D01*
X125537651Y-76495038D01*
X125546830Y-76475632D01*
X125557866Y-76457219D01*
X125570654Y-76439976D01*
X125585070Y-76424070D01*
X125600976Y-76409654D01*
X125618219Y-76396866D01*
X125636632Y-76385830D01*
X125656038Y-76376651D01*
X125676250Y-76369419D01*
X125697074Y-76364203D01*
X125718309Y-76361053D01*
X125739750Y-76360000D01*
X126177250Y-76360000D01*
X126198691Y-76361053D01*
X126198691Y-76361053D01*
G37*
D14*
X125958500Y-76835000D03*
D13*
G36*
X106043830Y-76836321D02*
G01*
X106065065Y-76839471D01*
X106085889Y-76844687D01*
X106106101Y-76851919D01*
X106125507Y-76861098D01*
X106143920Y-76872134D01*
X106161163Y-76884922D01*
X106177069Y-76899338D01*
X106539462Y-77261731D01*
X106553878Y-77277637D01*
X106566666Y-77294880D01*
X106577702Y-77313293D01*
X106586881Y-77332699D01*
X106594113Y-77352911D01*
X106599329Y-77373735D01*
X106602479Y-77394970D01*
X106603532Y-77416411D01*
X106602479Y-77437852D01*
X106599329Y-77459087D01*
X106594113Y-77479911D01*
X106586881Y-77500123D01*
X106577702Y-77519529D01*
X106566666Y-77537942D01*
X106553878Y-77555185D01*
X106539462Y-77571091D01*
X106230103Y-77880450D01*
X106214197Y-77894866D01*
X106196954Y-77907654D01*
X106178541Y-77918690D01*
X106159135Y-77927869D01*
X106138923Y-77935101D01*
X106118099Y-77940317D01*
X106096864Y-77943467D01*
X106075423Y-77944520D01*
X106053982Y-77943467D01*
X106032747Y-77940317D01*
X106011923Y-77935101D01*
X105991711Y-77927869D01*
X105972305Y-77918690D01*
X105953892Y-77907654D01*
X105936649Y-77894866D01*
X105920743Y-77880450D01*
X105558350Y-77518057D01*
X105543934Y-77502151D01*
X105531146Y-77484908D01*
X105520110Y-77466495D01*
X105510931Y-77447089D01*
X105503699Y-77426877D01*
X105498483Y-77406053D01*
X105495333Y-77384818D01*
X105494280Y-77363377D01*
X105495333Y-77341936D01*
X105498483Y-77320701D01*
X105503699Y-77299877D01*
X105510931Y-77279665D01*
X105520110Y-77260259D01*
X105531146Y-77241846D01*
X105543934Y-77224603D01*
X105558350Y-77208697D01*
X105867709Y-76899338D01*
X105883615Y-76884922D01*
X105900858Y-76872134D01*
X105919271Y-76861098D01*
X105938677Y-76851919D01*
X105958889Y-76844687D01*
X105979713Y-76839471D01*
X106000948Y-76836321D01*
X106022389Y-76835268D01*
X106043830Y-76836321D01*
X106043830Y-76836321D01*
G37*
D14*
X106048906Y-77389894D03*
D13*
G36*
X107157524Y-75722627D02*
G01*
X107178759Y-75725777D01*
X107199583Y-75730993D01*
X107219795Y-75738225D01*
X107239201Y-75747404D01*
X107257614Y-75758440D01*
X107274857Y-75771228D01*
X107290763Y-75785644D01*
X107653156Y-76148037D01*
X107667572Y-76163943D01*
X107680360Y-76181186D01*
X107691396Y-76199599D01*
X107700575Y-76219005D01*
X107707807Y-76239217D01*
X107713023Y-76260041D01*
X107716173Y-76281276D01*
X107717226Y-76302717D01*
X107716173Y-76324158D01*
X107713023Y-76345393D01*
X107707807Y-76366217D01*
X107700575Y-76386429D01*
X107691396Y-76405835D01*
X107680360Y-76424248D01*
X107667572Y-76441491D01*
X107653156Y-76457397D01*
X107343797Y-76766756D01*
X107327891Y-76781172D01*
X107310648Y-76793960D01*
X107292235Y-76804996D01*
X107272829Y-76814175D01*
X107252617Y-76821407D01*
X107231793Y-76826623D01*
X107210558Y-76829773D01*
X107189117Y-76830826D01*
X107167676Y-76829773D01*
X107146441Y-76826623D01*
X107125617Y-76821407D01*
X107105405Y-76814175D01*
X107085999Y-76804996D01*
X107067586Y-76793960D01*
X107050343Y-76781172D01*
X107034437Y-76766756D01*
X106672044Y-76404363D01*
X106657628Y-76388457D01*
X106644840Y-76371214D01*
X106633804Y-76352801D01*
X106624625Y-76333395D01*
X106617393Y-76313183D01*
X106612177Y-76292359D01*
X106609027Y-76271124D01*
X106607974Y-76249683D01*
X106609027Y-76228242D01*
X106612177Y-76207007D01*
X106617393Y-76186183D01*
X106624625Y-76165971D01*
X106633804Y-76146565D01*
X106644840Y-76128152D01*
X106657628Y-76110909D01*
X106672044Y-76095003D01*
X106981403Y-75785644D01*
X106997309Y-75771228D01*
X107014552Y-75758440D01*
X107032965Y-75747404D01*
X107052371Y-75738225D01*
X107072583Y-75730993D01*
X107093407Y-75725777D01*
X107114642Y-75722627D01*
X107136083Y-75721574D01*
X107157524Y-75722627D01*
X107157524Y-75722627D01*
G37*
D14*
X107162600Y-76276200D03*
D13*
G36*
X99719230Y-70791121D02*
G01*
X99740465Y-70794271D01*
X99761289Y-70799487D01*
X99781501Y-70806719D01*
X99800907Y-70815898D01*
X99819320Y-70826934D01*
X99836563Y-70839722D01*
X99852469Y-70854138D01*
X100214862Y-71216531D01*
X100229278Y-71232437D01*
X100242066Y-71249680D01*
X100253102Y-71268093D01*
X100262281Y-71287499D01*
X100269513Y-71307711D01*
X100274729Y-71328535D01*
X100277879Y-71349770D01*
X100278932Y-71371211D01*
X100277879Y-71392652D01*
X100274729Y-71413887D01*
X100269513Y-71434711D01*
X100262281Y-71454923D01*
X100253102Y-71474329D01*
X100242066Y-71492742D01*
X100229278Y-71509985D01*
X100214862Y-71525891D01*
X99905503Y-71835250D01*
X99889597Y-71849666D01*
X99872354Y-71862454D01*
X99853941Y-71873490D01*
X99834535Y-71882669D01*
X99814323Y-71889901D01*
X99793499Y-71895117D01*
X99772264Y-71898267D01*
X99750823Y-71899320D01*
X99729382Y-71898267D01*
X99708147Y-71895117D01*
X99687323Y-71889901D01*
X99667111Y-71882669D01*
X99647705Y-71873490D01*
X99629292Y-71862454D01*
X99612049Y-71849666D01*
X99596143Y-71835250D01*
X99233750Y-71472857D01*
X99219334Y-71456951D01*
X99206546Y-71439708D01*
X99195510Y-71421295D01*
X99186331Y-71401889D01*
X99179099Y-71381677D01*
X99173883Y-71360853D01*
X99170733Y-71339618D01*
X99169680Y-71318177D01*
X99170733Y-71296736D01*
X99173883Y-71275501D01*
X99179099Y-71254677D01*
X99186331Y-71234465D01*
X99195510Y-71215059D01*
X99206546Y-71196646D01*
X99219334Y-71179403D01*
X99233750Y-71163497D01*
X99543109Y-70854138D01*
X99559015Y-70839722D01*
X99576258Y-70826934D01*
X99594671Y-70815898D01*
X99614077Y-70806719D01*
X99634289Y-70799487D01*
X99655113Y-70794271D01*
X99676348Y-70791121D01*
X99697789Y-70790068D01*
X99719230Y-70791121D01*
X99719230Y-70791121D01*
G37*
D14*
X99724306Y-71344694D03*
D13*
G36*
X100832924Y-69677427D02*
G01*
X100854159Y-69680577D01*
X100874983Y-69685793D01*
X100895195Y-69693025D01*
X100914601Y-69702204D01*
X100933014Y-69713240D01*
X100950257Y-69726028D01*
X100966163Y-69740444D01*
X101328556Y-70102837D01*
X101342972Y-70118743D01*
X101355760Y-70135986D01*
X101366796Y-70154399D01*
X101375975Y-70173805D01*
X101383207Y-70194017D01*
X101388423Y-70214841D01*
X101391573Y-70236076D01*
X101392626Y-70257517D01*
X101391573Y-70278958D01*
X101388423Y-70300193D01*
X101383207Y-70321017D01*
X101375975Y-70341229D01*
X101366796Y-70360635D01*
X101355760Y-70379048D01*
X101342972Y-70396291D01*
X101328556Y-70412197D01*
X101019197Y-70721556D01*
X101003291Y-70735972D01*
X100986048Y-70748760D01*
X100967635Y-70759796D01*
X100948229Y-70768975D01*
X100928017Y-70776207D01*
X100907193Y-70781423D01*
X100885958Y-70784573D01*
X100864517Y-70785626D01*
X100843076Y-70784573D01*
X100821841Y-70781423D01*
X100801017Y-70776207D01*
X100780805Y-70768975D01*
X100761399Y-70759796D01*
X100742986Y-70748760D01*
X100725743Y-70735972D01*
X100709837Y-70721556D01*
X100347444Y-70359163D01*
X100333028Y-70343257D01*
X100320240Y-70326014D01*
X100309204Y-70307601D01*
X100300025Y-70288195D01*
X100292793Y-70267983D01*
X100287577Y-70247159D01*
X100284427Y-70225924D01*
X100283374Y-70204483D01*
X100284427Y-70183042D01*
X100287577Y-70161807D01*
X100292793Y-70140983D01*
X100300025Y-70120771D01*
X100309204Y-70101365D01*
X100320240Y-70082952D01*
X100333028Y-70065709D01*
X100347444Y-70049803D01*
X100656803Y-69740444D01*
X100672709Y-69726028D01*
X100689952Y-69713240D01*
X100708365Y-69702204D01*
X100727771Y-69693025D01*
X100747983Y-69685793D01*
X100768807Y-69680577D01*
X100790042Y-69677427D01*
X100811483Y-69676374D01*
X100832924Y-69677427D01*
X100832924Y-69677427D01*
G37*
D14*
X100838000Y-70231000D03*
D13*
G36*
X126845891Y-62682453D02*
G01*
X126867126Y-62685603D01*
X126887950Y-62690819D01*
X126908162Y-62698051D01*
X126927568Y-62707230D01*
X126945981Y-62718266D01*
X126963224Y-62731054D01*
X126979130Y-62745470D01*
X126993546Y-62761376D01*
X127006334Y-62778619D01*
X127017370Y-62797032D01*
X127026549Y-62816438D01*
X127033781Y-62836650D01*
X127038997Y-62857474D01*
X127042147Y-62878709D01*
X127043200Y-62900150D01*
X127043200Y-63337650D01*
X127042147Y-63359091D01*
X127038997Y-63380326D01*
X127033781Y-63401150D01*
X127026549Y-63421362D01*
X127017370Y-63440768D01*
X127006334Y-63459181D01*
X126993546Y-63476424D01*
X126979130Y-63492330D01*
X126963224Y-63506746D01*
X126945981Y-63519534D01*
X126927568Y-63530570D01*
X126908162Y-63539749D01*
X126887950Y-63546981D01*
X126867126Y-63552197D01*
X126845891Y-63555347D01*
X126824450Y-63556400D01*
X126311950Y-63556400D01*
X126290509Y-63555347D01*
X126269274Y-63552197D01*
X126248450Y-63546981D01*
X126228238Y-63539749D01*
X126208832Y-63530570D01*
X126190419Y-63519534D01*
X126173176Y-63506746D01*
X126157270Y-63492330D01*
X126142854Y-63476424D01*
X126130066Y-63459181D01*
X126119030Y-63440768D01*
X126109851Y-63421362D01*
X126102619Y-63401150D01*
X126097403Y-63380326D01*
X126094253Y-63359091D01*
X126093200Y-63337650D01*
X126093200Y-62900150D01*
X126094253Y-62878709D01*
X126097403Y-62857474D01*
X126102619Y-62836650D01*
X126109851Y-62816438D01*
X126119030Y-62797032D01*
X126130066Y-62778619D01*
X126142854Y-62761376D01*
X126157270Y-62745470D01*
X126173176Y-62731054D01*
X126190419Y-62718266D01*
X126208832Y-62707230D01*
X126228238Y-62698051D01*
X126248450Y-62690819D01*
X126269274Y-62685603D01*
X126290509Y-62682453D01*
X126311950Y-62681400D01*
X126824450Y-62681400D01*
X126845891Y-62682453D01*
X126845891Y-62682453D01*
G37*
D14*
X126568200Y-63118900D03*
D13*
G36*
X126845891Y-64257453D02*
G01*
X126867126Y-64260603D01*
X126887950Y-64265819D01*
X126908162Y-64273051D01*
X126927568Y-64282230D01*
X126945981Y-64293266D01*
X126963224Y-64306054D01*
X126979130Y-64320470D01*
X126993546Y-64336376D01*
X127006334Y-64353619D01*
X127017370Y-64372032D01*
X127026549Y-64391438D01*
X127033781Y-64411650D01*
X127038997Y-64432474D01*
X127042147Y-64453709D01*
X127043200Y-64475150D01*
X127043200Y-64912650D01*
X127042147Y-64934091D01*
X127038997Y-64955326D01*
X127033781Y-64976150D01*
X127026549Y-64996362D01*
X127017370Y-65015768D01*
X127006334Y-65034181D01*
X126993546Y-65051424D01*
X126979130Y-65067330D01*
X126963224Y-65081746D01*
X126945981Y-65094534D01*
X126927568Y-65105570D01*
X126908162Y-65114749D01*
X126887950Y-65121981D01*
X126867126Y-65127197D01*
X126845891Y-65130347D01*
X126824450Y-65131400D01*
X126311950Y-65131400D01*
X126290509Y-65130347D01*
X126269274Y-65127197D01*
X126248450Y-65121981D01*
X126228238Y-65114749D01*
X126208832Y-65105570D01*
X126190419Y-65094534D01*
X126173176Y-65081746D01*
X126157270Y-65067330D01*
X126142854Y-65051424D01*
X126130066Y-65034181D01*
X126119030Y-65015768D01*
X126109851Y-64996362D01*
X126102619Y-64976150D01*
X126097403Y-64955326D01*
X126094253Y-64934091D01*
X126093200Y-64912650D01*
X126093200Y-64475150D01*
X126094253Y-64453709D01*
X126097403Y-64432474D01*
X126102619Y-64411650D01*
X126109851Y-64391438D01*
X126119030Y-64372032D01*
X126130066Y-64353619D01*
X126142854Y-64336376D01*
X126157270Y-64320470D01*
X126173176Y-64306054D01*
X126190419Y-64293266D01*
X126208832Y-64282230D01*
X126228238Y-64273051D01*
X126248450Y-64265819D01*
X126269274Y-64260603D01*
X126290509Y-64257453D01*
X126311950Y-64256400D01*
X126824450Y-64256400D01*
X126845891Y-64257453D01*
X126845891Y-64257453D01*
G37*
D14*
X126568200Y-64693900D03*
D13*
G36*
X111108691Y-76361053D02*
G01*
X111129926Y-76364203D01*
X111150750Y-76369419D01*
X111170962Y-76376651D01*
X111190368Y-76385830D01*
X111208781Y-76396866D01*
X111226024Y-76409654D01*
X111241930Y-76424070D01*
X111256346Y-76439976D01*
X111269134Y-76457219D01*
X111280170Y-76475632D01*
X111289349Y-76495038D01*
X111296581Y-76515250D01*
X111301797Y-76536074D01*
X111304947Y-76557309D01*
X111306000Y-76578750D01*
X111306000Y-77091250D01*
X111304947Y-77112691D01*
X111301797Y-77133926D01*
X111296581Y-77154750D01*
X111289349Y-77174962D01*
X111280170Y-77194368D01*
X111269134Y-77212781D01*
X111256346Y-77230024D01*
X111241930Y-77245930D01*
X111226024Y-77260346D01*
X111208781Y-77273134D01*
X111190368Y-77284170D01*
X111170962Y-77293349D01*
X111150750Y-77300581D01*
X111129926Y-77305797D01*
X111108691Y-77308947D01*
X111087250Y-77310000D01*
X110649750Y-77310000D01*
X110628309Y-77308947D01*
X110607074Y-77305797D01*
X110586250Y-77300581D01*
X110566038Y-77293349D01*
X110546632Y-77284170D01*
X110528219Y-77273134D01*
X110510976Y-77260346D01*
X110495070Y-77245930D01*
X110480654Y-77230024D01*
X110467866Y-77212781D01*
X110456830Y-77194368D01*
X110447651Y-77174962D01*
X110440419Y-77154750D01*
X110435203Y-77133926D01*
X110432053Y-77112691D01*
X110431000Y-77091250D01*
X110431000Y-76578750D01*
X110432053Y-76557309D01*
X110435203Y-76536074D01*
X110440419Y-76515250D01*
X110447651Y-76495038D01*
X110456830Y-76475632D01*
X110467866Y-76457219D01*
X110480654Y-76439976D01*
X110495070Y-76424070D01*
X110510976Y-76409654D01*
X110528219Y-76396866D01*
X110546632Y-76385830D01*
X110566038Y-76376651D01*
X110586250Y-76369419D01*
X110607074Y-76364203D01*
X110628309Y-76361053D01*
X110649750Y-76360000D01*
X111087250Y-76360000D01*
X111108691Y-76361053D01*
X111108691Y-76361053D01*
G37*
D14*
X110868500Y-76835000D03*
D13*
G36*
X112683691Y-76361053D02*
G01*
X112704926Y-76364203D01*
X112725750Y-76369419D01*
X112745962Y-76376651D01*
X112765368Y-76385830D01*
X112783781Y-76396866D01*
X112801024Y-76409654D01*
X112816930Y-76424070D01*
X112831346Y-76439976D01*
X112844134Y-76457219D01*
X112855170Y-76475632D01*
X112864349Y-76495038D01*
X112871581Y-76515250D01*
X112876797Y-76536074D01*
X112879947Y-76557309D01*
X112881000Y-76578750D01*
X112881000Y-77091250D01*
X112879947Y-77112691D01*
X112876797Y-77133926D01*
X112871581Y-77154750D01*
X112864349Y-77174962D01*
X112855170Y-77194368D01*
X112844134Y-77212781D01*
X112831346Y-77230024D01*
X112816930Y-77245930D01*
X112801024Y-77260346D01*
X112783781Y-77273134D01*
X112765368Y-77284170D01*
X112745962Y-77293349D01*
X112725750Y-77300581D01*
X112704926Y-77305797D01*
X112683691Y-77308947D01*
X112662250Y-77310000D01*
X112224750Y-77310000D01*
X112203309Y-77308947D01*
X112182074Y-77305797D01*
X112161250Y-77300581D01*
X112141038Y-77293349D01*
X112121632Y-77284170D01*
X112103219Y-77273134D01*
X112085976Y-77260346D01*
X112070070Y-77245930D01*
X112055654Y-77230024D01*
X112042866Y-77212781D01*
X112031830Y-77194368D01*
X112022651Y-77174962D01*
X112015419Y-77154750D01*
X112010203Y-77133926D01*
X112007053Y-77112691D01*
X112006000Y-77091250D01*
X112006000Y-76578750D01*
X112007053Y-76557309D01*
X112010203Y-76536074D01*
X112015419Y-76515250D01*
X112022651Y-76495038D01*
X112031830Y-76475632D01*
X112042866Y-76457219D01*
X112055654Y-76439976D01*
X112070070Y-76424070D01*
X112085976Y-76409654D01*
X112103219Y-76396866D01*
X112121632Y-76385830D01*
X112141038Y-76376651D01*
X112161250Y-76369419D01*
X112182074Y-76364203D01*
X112203309Y-76361053D01*
X112224750Y-76360000D01*
X112662250Y-76360000D01*
X112683691Y-76361053D01*
X112683691Y-76361053D01*
G37*
D14*
X112443500Y-76835000D03*
D13*
G36*
X111108691Y-74710053D02*
G01*
X111129926Y-74713203D01*
X111150750Y-74718419D01*
X111170962Y-74725651D01*
X111190368Y-74734830D01*
X111208781Y-74745866D01*
X111226024Y-74758654D01*
X111241930Y-74773070D01*
X111256346Y-74788976D01*
X111269134Y-74806219D01*
X111280170Y-74824632D01*
X111289349Y-74844038D01*
X111296581Y-74864250D01*
X111301797Y-74885074D01*
X111304947Y-74906309D01*
X111306000Y-74927750D01*
X111306000Y-75440250D01*
X111304947Y-75461691D01*
X111301797Y-75482926D01*
X111296581Y-75503750D01*
X111289349Y-75523962D01*
X111280170Y-75543368D01*
X111269134Y-75561781D01*
X111256346Y-75579024D01*
X111241930Y-75594930D01*
X111226024Y-75609346D01*
X111208781Y-75622134D01*
X111190368Y-75633170D01*
X111170962Y-75642349D01*
X111150750Y-75649581D01*
X111129926Y-75654797D01*
X111108691Y-75657947D01*
X111087250Y-75659000D01*
X110649750Y-75659000D01*
X110628309Y-75657947D01*
X110607074Y-75654797D01*
X110586250Y-75649581D01*
X110566038Y-75642349D01*
X110546632Y-75633170D01*
X110528219Y-75622134D01*
X110510976Y-75609346D01*
X110495070Y-75594930D01*
X110480654Y-75579024D01*
X110467866Y-75561781D01*
X110456830Y-75543368D01*
X110447651Y-75523962D01*
X110440419Y-75503750D01*
X110435203Y-75482926D01*
X110432053Y-75461691D01*
X110431000Y-75440250D01*
X110431000Y-74927750D01*
X110432053Y-74906309D01*
X110435203Y-74885074D01*
X110440419Y-74864250D01*
X110447651Y-74844038D01*
X110456830Y-74824632D01*
X110467866Y-74806219D01*
X110480654Y-74788976D01*
X110495070Y-74773070D01*
X110510976Y-74758654D01*
X110528219Y-74745866D01*
X110546632Y-74734830D01*
X110566038Y-74725651D01*
X110586250Y-74718419D01*
X110607074Y-74713203D01*
X110628309Y-74710053D01*
X110649750Y-74709000D01*
X111087250Y-74709000D01*
X111108691Y-74710053D01*
X111108691Y-74710053D01*
G37*
D14*
X110868500Y-75184000D03*
D13*
G36*
X112683691Y-74710053D02*
G01*
X112704926Y-74713203D01*
X112725750Y-74718419D01*
X112745962Y-74725651D01*
X112765368Y-74734830D01*
X112783781Y-74745866D01*
X112801024Y-74758654D01*
X112816930Y-74773070D01*
X112831346Y-74788976D01*
X112844134Y-74806219D01*
X112855170Y-74824632D01*
X112864349Y-74844038D01*
X112871581Y-74864250D01*
X112876797Y-74885074D01*
X112879947Y-74906309D01*
X112881000Y-74927750D01*
X112881000Y-75440250D01*
X112879947Y-75461691D01*
X112876797Y-75482926D01*
X112871581Y-75503750D01*
X112864349Y-75523962D01*
X112855170Y-75543368D01*
X112844134Y-75561781D01*
X112831346Y-75579024D01*
X112816930Y-75594930D01*
X112801024Y-75609346D01*
X112783781Y-75622134D01*
X112765368Y-75633170D01*
X112745962Y-75642349D01*
X112725750Y-75649581D01*
X112704926Y-75654797D01*
X112683691Y-75657947D01*
X112662250Y-75659000D01*
X112224750Y-75659000D01*
X112203309Y-75657947D01*
X112182074Y-75654797D01*
X112161250Y-75649581D01*
X112141038Y-75642349D01*
X112121632Y-75633170D01*
X112103219Y-75622134D01*
X112085976Y-75609346D01*
X112070070Y-75594930D01*
X112055654Y-75579024D01*
X112042866Y-75561781D01*
X112031830Y-75543368D01*
X112022651Y-75523962D01*
X112015419Y-75503750D01*
X112010203Y-75482926D01*
X112007053Y-75461691D01*
X112006000Y-75440250D01*
X112006000Y-74927750D01*
X112007053Y-74906309D01*
X112010203Y-74885074D01*
X112015419Y-74864250D01*
X112022651Y-74844038D01*
X112031830Y-74824632D01*
X112042866Y-74806219D01*
X112055654Y-74788976D01*
X112070070Y-74773070D01*
X112085976Y-74758654D01*
X112103219Y-74745866D01*
X112121632Y-74734830D01*
X112141038Y-74725651D01*
X112161250Y-74718419D01*
X112182074Y-74713203D01*
X112203309Y-74710053D01*
X112224750Y-74709000D01*
X112662250Y-74709000D01*
X112683691Y-74710053D01*
X112683691Y-74710053D01*
G37*
D14*
X112443500Y-75184000D03*
D17*
X143424956Y-72910768D03*
X142424956Y-72910768D03*
X142924956Y-71110768D03*
X142424956Y-71110768D03*
X143424956Y-71110768D03*
X142924956Y-72910768D03*
D18*
X100093089Y-78855979D03*
X100093089Y-80557779D03*
X103893089Y-78856879D03*
X103893089Y-80557779D03*
D15*
X149860000Y-84201000D03*
X147320000Y-84201000D03*
X144780000Y-84201000D03*
X142240000Y-84201000D03*
X139700000Y-84201000D03*
X137160000Y-84201000D03*
X134620000Y-84201000D03*
X132080000Y-84201000D03*
X129540000Y-84201000D03*
X127000000Y-84201000D03*
X124460000Y-84201000D03*
X121920000Y-84201000D03*
X119380000Y-84201000D03*
X116840000Y-84201000D03*
X114300000Y-84201000D03*
X111760000Y-84201000D03*
X109220000Y-84201000D03*
X106680000Y-84201000D03*
X104140000Y-84201000D03*
X101600000Y-84201000D03*
X99060000Y-84201000D03*
X96520000Y-84201000D03*
X93980000Y-84201000D03*
D16*
X91440000Y-84201000D03*
D18*
X105999200Y-60134500D03*
X105999200Y-61836300D03*
X109799200Y-60135400D03*
X109799200Y-61836300D03*
D19*
X113426000Y-60858400D03*
D13*
G36*
X113426000Y-60109002D02*
G01*
X113450534Y-60109002D01*
X113499365Y-60113812D01*
X113547490Y-60123384D01*
X113594445Y-60137628D01*
X113639778Y-60156405D01*
X113683051Y-60179536D01*
X113723850Y-60206796D01*
X113761779Y-60237924D01*
X113796476Y-60272621D01*
X113827604Y-60310550D01*
X113854864Y-60351349D01*
X113877995Y-60394622D01*
X113896772Y-60439955D01*
X113911016Y-60486910D01*
X113920588Y-60535035D01*
X113925398Y-60583866D01*
X113925398Y-60608400D01*
X113926000Y-60608400D01*
X113926000Y-61108400D01*
X113925398Y-61108400D01*
X113925398Y-61132934D01*
X113920588Y-61181765D01*
X113911016Y-61229890D01*
X113896772Y-61276845D01*
X113877995Y-61322178D01*
X113854864Y-61365451D01*
X113827604Y-61406250D01*
X113796476Y-61444179D01*
X113761779Y-61478876D01*
X113723850Y-61510004D01*
X113683051Y-61537264D01*
X113639778Y-61560395D01*
X113594445Y-61579172D01*
X113547490Y-61593416D01*
X113499365Y-61602988D01*
X113450534Y-61607798D01*
X113426000Y-61607798D01*
X113426000Y-61608400D01*
X112926000Y-61608400D01*
X112926000Y-60108400D01*
X113426000Y-60108400D01*
X113426000Y-60109002D01*
X113426000Y-60109002D01*
G37*
D19*
X112126000Y-60858400D03*
D13*
G36*
X112626000Y-61608400D02*
G01*
X112126000Y-61608400D01*
X112126000Y-61607798D01*
X112101466Y-61607798D01*
X112052635Y-61602988D01*
X112004510Y-61593416D01*
X111957555Y-61579172D01*
X111912222Y-61560395D01*
X111868949Y-61537264D01*
X111828150Y-61510004D01*
X111790221Y-61478876D01*
X111755524Y-61444179D01*
X111724396Y-61406250D01*
X111697136Y-61365451D01*
X111674005Y-61322178D01*
X111655228Y-61276845D01*
X111640984Y-61229890D01*
X111631412Y-61181765D01*
X111626602Y-61132934D01*
X111626602Y-61108400D01*
X111626000Y-61108400D01*
X111626000Y-60608400D01*
X111626602Y-60608400D01*
X111626602Y-60583866D01*
X111631412Y-60535035D01*
X111640984Y-60486910D01*
X111655228Y-60439955D01*
X111674005Y-60394622D01*
X111697136Y-60351349D01*
X111724396Y-60310550D01*
X111755524Y-60272621D01*
X111790221Y-60237924D01*
X111828150Y-60206796D01*
X111868949Y-60179536D01*
X111912222Y-60156405D01*
X111957555Y-60137628D01*
X112004510Y-60123384D01*
X112052635Y-60113812D01*
X112101466Y-60109002D01*
X112126000Y-60109002D01*
X112126000Y-60108400D01*
X112626000Y-60108400D01*
X112626000Y-61608400D01*
X112626000Y-61608400D01*
G37*
G36*
X104239891Y-60142453D02*
G01*
X104261126Y-60145603D01*
X104281950Y-60150819D01*
X104302162Y-60158051D01*
X104321568Y-60167230D01*
X104339981Y-60178266D01*
X104357224Y-60191054D01*
X104373130Y-60205470D01*
X104387546Y-60221376D01*
X104400334Y-60238619D01*
X104411370Y-60257032D01*
X104420549Y-60276438D01*
X104427781Y-60296650D01*
X104432997Y-60317474D01*
X104436147Y-60338709D01*
X104437200Y-60360150D01*
X104437200Y-60797650D01*
X104436147Y-60819091D01*
X104432997Y-60840326D01*
X104427781Y-60861150D01*
X104420549Y-60881362D01*
X104411370Y-60900768D01*
X104400334Y-60919181D01*
X104387546Y-60936424D01*
X104373130Y-60952330D01*
X104357224Y-60966746D01*
X104339981Y-60979534D01*
X104321568Y-60990570D01*
X104302162Y-60999749D01*
X104281950Y-61006981D01*
X104261126Y-61012197D01*
X104239891Y-61015347D01*
X104218450Y-61016400D01*
X103705950Y-61016400D01*
X103684509Y-61015347D01*
X103663274Y-61012197D01*
X103642450Y-61006981D01*
X103622238Y-60999749D01*
X103602832Y-60990570D01*
X103584419Y-60979534D01*
X103567176Y-60966746D01*
X103551270Y-60952330D01*
X103536854Y-60936424D01*
X103524066Y-60919181D01*
X103513030Y-60900768D01*
X103503851Y-60881362D01*
X103496619Y-60861150D01*
X103491403Y-60840326D01*
X103488253Y-60819091D01*
X103487200Y-60797650D01*
X103487200Y-60360150D01*
X103488253Y-60338709D01*
X103491403Y-60317474D01*
X103496619Y-60296650D01*
X103503851Y-60276438D01*
X103513030Y-60257032D01*
X103524066Y-60238619D01*
X103536854Y-60221376D01*
X103551270Y-60205470D01*
X103567176Y-60191054D01*
X103584419Y-60178266D01*
X103602832Y-60167230D01*
X103622238Y-60158051D01*
X103642450Y-60150819D01*
X103663274Y-60145603D01*
X103684509Y-60142453D01*
X103705950Y-60141400D01*
X104218450Y-60141400D01*
X104239891Y-60142453D01*
X104239891Y-60142453D01*
G37*
D14*
X103962200Y-60578900D03*
D13*
G36*
X104239891Y-61717453D02*
G01*
X104261126Y-61720603D01*
X104281950Y-61725819D01*
X104302162Y-61733051D01*
X104321568Y-61742230D01*
X104339981Y-61753266D01*
X104357224Y-61766054D01*
X104373130Y-61780470D01*
X104387546Y-61796376D01*
X104400334Y-61813619D01*
X104411370Y-61832032D01*
X104420549Y-61851438D01*
X104427781Y-61871650D01*
X104432997Y-61892474D01*
X104436147Y-61913709D01*
X104437200Y-61935150D01*
X104437200Y-62372650D01*
X104436147Y-62394091D01*
X104432997Y-62415326D01*
X104427781Y-62436150D01*
X104420549Y-62456362D01*
X104411370Y-62475768D01*
X104400334Y-62494181D01*
X104387546Y-62511424D01*
X104373130Y-62527330D01*
X104357224Y-62541746D01*
X104339981Y-62554534D01*
X104321568Y-62565570D01*
X104302162Y-62574749D01*
X104281950Y-62581981D01*
X104261126Y-62587197D01*
X104239891Y-62590347D01*
X104218450Y-62591400D01*
X103705950Y-62591400D01*
X103684509Y-62590347D01*
X103663274Y-62587197D01*
X103642450Y-62581981D01*
X103622238Y-62574749D01*
X103602832Y-62565570D01*
X103584419Y-62554534D01*
X103567176Y-62541746D01*
X103551270Y-62527330D01*
X103536854Y-62511424D01*
X103524066Y-62494181D01*
X103513030Y-62475768D01*
X103503851Y-62456362D01*
X103496619Y-62436150D01*
X103491403Y-62415326D01*
X103488253Y-62394091D01*
X103487200Y-62372650D01*
X103487200Y-61935150D01*
X103488253Y-61913709D01*
X103491403Y-61892474D01*
X103496619Y-61871650D01*
X103503851Y-61851438D01*
X103513030Y-61832032D01*
X103524066Y-61813619D01*
X103536854Y-61796376D01*
X103551270Y-61780470D01*
X103567176Y-61766054D01*
X103584419Y-61753266D01*
X103602832Y-61742230D01*
X103622238Y-61733051D01*
X103642450Y-61725819D01*
X103663274Y-61720603D01*
X103684509Y-61717453D01*
X103705950Y-61716400D01*
X104218450Y-61716400D01*
X104239891Y-61717453D01*
X104239891Y-61717453D01*
G37*
D14*
X103962200Y-62153900D03*
D20*
X101977462Y-72361062D03*
D13*
G36*
X100457182Y-72537839D02*
G01*
X102154239Y-70840782D01*
X103497742Y-72184285D01*
X101800685Y-73881342D01*
X100457182Y-72537839D01*
X100457182Y-72537839D01*
G37*
D20*
X104876600Y-75260200D03*
D13*
G36*
X103356320Y-75436977D02*
G01*
X105053377Y-73739920D01*
X106396880Y-75083423D01*
X104699823Y-76780480D01*
X103356320Y-75436977D01*
X103356320Y-75436977D01*
G37*
G36*
X116855351Y-64035361D02*
G01*
X116862632Y-64036441D01*
X116869771Y-64038229D01*
X116876701Y-64040709D01*
X116883355Y-64043856D01*
X116889668Y-64047640D01*
X116895579Y-64052024D01*
X116901033Y-64056967D01*
X116905976Y-64062421D01*
X116910360Y-64068332D01*
X116914144Y-64074645D01*
X116917291Y-64081299D01*
X116919771Y-64088229D01*
X116921559Y-64095368D01*
X116922639Y-64102649D01*
X116923000Y-64110000D01*
X116923000Y-65510000D01*
X116922639Y-65517351D01*
X116921559Y-65524632D01*
X116919771Y-65531771D01*
X116917291Y-65538701D01*
X116914144Y-65545355D01*
X116910360Y-65551668D01*
X116905976Y-65557579D01*
X116901033Y-65563033D01*
X116895579Y-65567976D01*
X116889668Y-65572360D01*
X116883355Y-65576144D01*
X116876701Y-65579291D01*
X116869771Y-65581771D01*
X116862632Y-65583559D01*
X116855351Y-65584639D01*
X116848000Y-65585000D01*
X116698000Y-65585000D01*
X116690649Y-65584639D01*
X116683368Y-65583559D01*
X116676229Y-65581771D01*
X116669299Y-65579291D01*
X116662645Y-65576144D01*
X116656332Y-65572360D01*
X116650421Y-65567976D01*
X116644967Y-65563033D01*
X116640024Y-65557579D01*
X116635640Y-65551668D01*
X116631856Y-65545355D01*
X116628709Y-65538701D01*
X116626229Y-65531771D01*
X116624441Y-65524632D01*
X116623361Y-65517351D01*
X116623000Y-65510000D01*
X116623000Y-64110000D01*
X116623361Y-64102649D01*
X116624441Y-64095368D01*
X116626229Y-64088229D01*
X116628709Y-64081299D01*
X116631856Y-64074645D01*
X116635640Y-64068332D01*
X116640024Y-64062421D01*
X116644967Y-64056967D01*
X116650421Y-64052024D01*
X116656332Y-64047640D01*
X116662645Y-64043856D01*
X116669299Y-64040709D01*
X116676229Y-64038229D01*
X116683368Y-64036441D01*
X116690649Y-64035361D01*
X116698000Y-64035000D01*
X116848000Y-64035000D01*
X116855351Y-64035361D01*
X116855351Y-64035361D01*
G37*
D21*
X116773000Y-64810000D03*
D13*
G36*
X117355351Y-64035361D02*
G01*
X117362632Y-64036441D01*
X117369771Y-64038229D01*
X117376701Y-64040709D01*
X117383355Y-64043856D01*
X117389668Y-64047640D01*
X117395579Y-64052024D01*
X117401033Y-64056967D01*
X117405976Y-64062421D01*
X117410360Y-64068332D01*
X117414144Y-64074645D01*
X117417291Y-64081299D01*
X117419771Y-64088229D01*
X117421559Y-64095368D01*
X117422639Y-64102649D01*
X117423000Y-64110000D01*
X117423000Y-65510000D01*
X117422639Y-65517351D01*
X117421559Y-65524632D01*
X117419771Y-65531771D01*
X117417291Y-65538701D01*
X117414144Y-65545355D01*
X117410360Y-65551668D01*
X117405976Y-65557579D01*
X117401033Y-65563033D01*
X117395579Y-65567976D01*
X117389668Y-65572360D01*
X117383355Y-65576144D01*
X117376701Y-65579291D01*
X117369771Y-65581771D01*
X117362632Y-65583559D01*
X117355351Y-65584639D01*
X117348000Y-65585000D01*
X117198000Y-65585000D01*
X117190649Y-65584639D01*
X117183368Y-65583559D01*
X117176229Y-65581771D01*
X117169299Y-65579291D01*
X117162645Y-65576144D01*
X117156332Y-65572360D01*
X117150421Y-65567976D01*
X117144967Y-65563033D01*
X117140024Y-65557579D01*
X117135640Y-65551668D01*
X117131856Y-65545355D01*
X117128709Y-65538701D01*
X117126229Y-65531771D01*
X117124441Y-65524632D01*
X117123361Y-65517351D01*
X117123000Y-65510000D01*
X117123000Y-64110000D01*
X117123361Y-64102649D01*
X117124441Y-64095368D01*
X117126229Y-64088229D01*
X117128709Y-64081299D01*
X117131856Y-64074645D01*
X117135640Y-64068332D01*
X117140024Y-64062421D01*
X117144967Y-64056967D01*
X117150421Y-64052024D01*
X117156332Y-64047640D01*
X117162645Y-64043856D01*
X117169299Y-64040709D01*
X117176229Y-64038229D01*
X117183368Y-64036441D01*
X117190649Y-64035361D01*
X117198000Y-64035000D01*
X117348000Y-64035000D01*
X117355351Y-64035361D01*
X117355351Y-64035361D01*
G37*
D21*
X117273000Y-64810000D03*
D13*
G36*
X117855351Y-64035361D02*
G01*
X117862632Y-64036441D01*
X117869771Y-64038229D01*
X117876701Y-64040709D01*
X117883355Y-64043856D01*
X117889668Y-64047640D01*
X117895579Y-64052024D01*
X117901033Y-64056967D01*
X117905976Y-64062421D01*
X117910360Y-64068332D01*
X117914144Y-64074645D01*
X117917291Y-64081299D01*
X117919771Y-64088229D01*
X117921559Y-64095368D01*
X117922639Y-64102649D01*
X117923000Y-64110000D01*
X117923000Y-65510000D01*
X117922639Y-65517351D01*
X117921559Y-65524632D01*
X117919771Y-65531771D01*
X117917291Y-65538701D01*
X117914144Y-65545355D01*
X117910360Y-65551668D01*
X117905976Y-65557579D01*
X117901033Y-65563033D01*
X117895579Y-65567976D01*
X117889668Y-65572360D01*
X117883355Y-65576144D01*
X117876701Y-65579291D01*
X117869771Y-65581771D01*
X117862632Y-65583559D01*
X117855351Y-65584639D01*
X117848000Y-65585000D01*
X117698000Y-65585000D01*
X117690649Y-65584639D01*
X117683368Y-65583559D01*
X117676229Y-65581771D01*
X117669299Y-65579291D01*
X117662645Y-65576144D01*
X117656332Y-65572360D01*
X117650421Y-65567976D01*
X117644967Y-65563033D01*
X117640024Y-65557579D01*
X117635640Y-65551668D01*
X117631856Y-65545355D01*
X117628709Y-65538701D01*
X117626229Y-65531771D01*
X117624441Y-65524632D01*
X117623361Y-65517351D01*
X117623000Y-65510000D01*
X117623000Y-64110000D01*
X117623361Y-64102649D01*
X117624441Y-64095368D01*
X117626229Y-64088229D01*
X117628709Y-64081299D01*
X117631856Y-64074645D01*
X117635640Y-64068332D01*
X117640024Y-64062421D01*
X117644967Y-64056967D01*
X117650421Y-64052024D01*
X117656332Y-64047640D01*
X117662645Y-64043856D01*
X117669299Y-64040709D01*
X117676229Y-64038229D01*
X117683368Y-64036441D01*
X117690649Y-64035361D01*
X117698000Y-64035000D01*
X117848000Y-64035000D01*
X117855351Y-64035361D01*
X117855351Y-64035361D01*
G37*
D21*
X117773000Y-64810000D03*
D13*
G36*
X118355351Y-64035361D02*
G01*
X118362632Y-64036441D01*
X118369771Y-64038229D01*
X118376701Y-64040709D01*
X118383355Y-64043856D01*
X118389668Y-64047640D01*
X118395579Y-64052024D01*
X118401033Y-64056967D01*
X118405976Y-64062421D01*
X118410360Y-64068332D01*
X118414144Y-64074645D01*
X118417291Y-64081299D01*
X118419771Y-64088229D01*
X118421559Y-64095368D01*
X118422639Y-64102649D01*
X118423000Y-64110000D01*
X118423000Y-65510000D01*
X118422639Y-65517351D01*
X118421559Y-65524632D01*
X118419771Y-65531771D01*
X118417291Y-65538701D01*
X118414144Y-65545355D01*
X118410360Y-65551668D01*
X118405976Y-65557579D01*
X118401033Y-65563033D01*
X118395579Y-65567976D01*
X118389668Y-65572360D01*
X118383355Y-65576144D01*
X118376701Y-65579291D01*
X118369771Y-65581771D01*
X118362632Y-65583559D01*
X118355351Y-65584639D01*
X118348000Y-65585000D01*
X118198000Y-65585000D01*
X118190649Y-65584639D01*
X118183368Y-65583559D01*
X118176229Y-65581771D01*
X118169299Y-65579291D01*
X118162645Y-65576144D01*
X118156332Y-65572360D01*
X118150421Y-65567976D01*
X118144967Y-65563033D01*
X118140024Y-65557579D01*
X118135640Y-65551668D01*
X118131856Y-65545355D01*
X118128709Y-65538701D01*
X118126229Y-65531771D01*
X118124441Y-65524632D01*
X118123361Y-65517351D01*
X118123000Y-65510000D01*
X118123000Y-64110000D01*
X118123361Y-64102649D01*
X118124441Y-64095368D01*
X118126229Y-64088229D01*
X118128709Y-64081299D01*
X118131856Y-64074645D01*
X118135640Y-64068332D01*
X118140024Y-64062421D01*
X118144967Y-64056967D01*
X118150421Y-64052024D01*
X118156332Y-64047640D01*
X118162645Y-64043856D01*
X118169299Y-64040709D01*
X118176229Y-64038229D01*
X118183368Y-64036441D01*
X118190649Y-64035361D01*
X118198000Y-64035000D01*
X118348000Y-64035000D01*
X118355351Y-64035361D01*
X118355351Y-64035361D01*
G37*
D21*
X118273000Y-64810000D03*
D13*
G36*
X118855351Y-64035361D02*
G01*
X118862632Y-64036441D01*
X118869771Y-64038229D01*
X118876701Y-64040709D01*
X118883355Y-64043856D01*
X118889668Y-64047640D01*
X118895579Y-64052024D01*
X118901033Y-64056967D01*
X118905976Y-64062421D01*
X118910360Y-64068332D01*
X118914144Y-64074645D01*
X118917291Y-64081299D01*
X118919771Y-64088229D01*
X118921559Y-64095368D01*
X118922639Y-64102649D01*
X118923000Y-64110000D01*
X118923000Y-65510000D01*
X118922639Y-65517351D01*
X118921559Y-65524632D01*
X118919771Y-65531771D01*
X118917291Y-65538701D01*
X118914144Y-65545355D01*
X118910360Y-65551668D01*
X118905976Y-65557579D01*
X118901033Y-65563033D01*
X118895579Y-65567976D01*
X118889668Y-65572360D01*
X118883355Y-65576144D01*
X118876701Y-65579291D01*
X118869771Y-65581771D01*
X118862632Y-65583559D01*
X118855351Y-65584639D01*
X118848000Y-65585000D01*
X118698000Y-65585000D01*
X118690649Y-65584639D01*
X118683368Y-65583559D01*
X118676229Y-65581771D01*
X118669299Y-65579291D01*
X118662645Y-65576144D01*
X118656332Y-65572360D01*
X118650421Y-65567976D01*
X118644967Y-65563033D01*
X118640024Y-65557579D01*
X118635640Y-65551668D01*
X118631856Y-65545355D01*
X118628709Y-65538701D01*
X118626229Y-65531771D01*
X118624441Y-65524632D01*
X118623361Y-65517351D01*
X118623000Y-65510000D01*
X118623000Y-64110000D01*
X118623361Y-64102649D01*
X118624441Y-64095368D01*
X118626229Y-64088229D01*
X118628709Y-64081299D01*
X118631856Y-64074645D01*
X118635640Y-64068332D01*
X118640024Y-64062421D01*
X118644967Y-64056967D01*
X118650421Y-64052024D01*
X118656332Y-64047640D01*
X118662645Y-64043856D01*
X118669299Y-64040709D01*
X118676229Y-64038229D01*
X118683368Y-64036441D01*
X118690649Y-64035361D01*
X118698000Y-64035000D01*
X118848000Y-64035000D01*
X118855351Y-64035361D01*
X118855351Y-64035361D01*
G37*
D21*
X118773000Y-64810000D03*
D13*
G36*
X119355351Y-64035361D02*
G01*
X119362632Y-64036441D01*
X119369771Y-64038229D01*
X119376701Y-64040709D01*
X119383355Y-64043856D01*
X119389668Y-64047640D01*
X119395579Y-64052024D01*
X119401033Y-64056967D01*
X119405976Y-64062421D01*
X119410360Y-64068332D01*
X119414144Y-64074645D01*
X119417291Y-64081299D01*
X119419771Y-64088229D01*
X119421559Y-64095368D01*
X119422639Y-64102649D01*
X119423000Y-64110000D01*
X119423000Y-65510000D01*
X119422639Y-65517351D01*
X119421559Y-65524632D01*
X119419771Y-65531771D01*
X119417291Y-65538701D01*
X119414144Y-65545355D01*
X119410360Y-65551668D01*
X119405976Y-65557579D01*
X119401033Y-65563033D01*
X119395579Y-65567976D01*
X119389668Y-65572360D01*
X119383355Y-65576144D01*
X119376701Y-65579291D01*
X119369771Y-65581771D01*
X119362632Y-65583559D01*
X119355351Y-65584639D01*
X119348000Y-65585000D01*
X119198000Y-65585000D01*
X119190649Y-65584639D01*
X119183368Y-65583559D01*
X119176229Y-65581771D01*
X119169299Y-65579291D01*
X119162645Y-65576144D01*
X119156332Y-65572360D01*
X119150421Y-65567976D01*
X119144967Y-65563033D01*
X119140024Y-65557579D01*
X119135640Y-65551668D01*
X119131856Y-65545355D01*
X119128709Y-65538701D01*
X119126229Y-65531771D01*
X119124441Y-65524632D01*
X119123361Y-65517351D01*
X119123000Y-65510000D01*
X119123000Y-64110000D01*
X119123361Y-64102649D01*
X119124441Y-64095368D01*
X119126229Y-64088229D01*
X119128709Y-64081299D01*
X119131856Y-64074645D01*
X119135640Y-64068332D01*
X119140024Y-64062421D01*
X119144967Y-64056967D01*
X119150421Y-64052024D01*
X119156332Y-64047640D01*
X119162645Y-64043856D01*
X119169299Y-64040709D01*
X119176229Y-64038229D01*
X119183368Y-64036441D01*
X119190649Y-64035361D01*
X119198000Y-64035000D01*
X119348000Y-64035000D01*
X119355351Y-64035361D01*
X119355351Y-64035361D01*
G37*
D21*
X119273000Y-64810000D03*
D13*
G36*
X119855351Y-64035361D02*
G01*
X119862632Y-64036441D01*
X119869771Y-64038229D01*
X119876701Y-64040709D01*
X119883355Y-64043856D01*
X119889668Y-64047640D01*
X119895579Y-64052024D01*
X119901033Y-64056967D01*
X119905976Y-64062421D01*
X119910360Y-64068332D01*
X119914144Y-64074645D01*
X119917291Y-64081299D01*
X119919771Y-64088229D01*
X119921559Y-64095368D01*
X119922639Y-64102649D01*
X119923000Y-64110000D01*
X119923000Y-65510000D01*
X119922639Y-65517351D01*
X119921559Y-65524632D01*
X119919771Y-65531771D01*
X119917291Y-65538701D01*
X119914144Y-65545355D01*
X119910360Y-65551668D01*
X119905976Y-65557579D01*
X119901033Y-65563033D01*
X119895579Y-65567976D01*
X119889668Y-65572360D01*
X119883355Y-65576144D01*
X119876701Y-65579291D01*
X119869771Y-65581771D01*
X119862632Y-65583559D01*
X119855351Y-65584639D01*
X119848000Y-65585000D01*
X119698000Y-65585000D01*
X119690649Y-65584639D01*
X119683368Y-65583559D01*
X119676229Y-65581771D01*
X119669299Y-65579291D01*
X119662645Y-65576144D01*
X119656332Y-65572360D01*
X119650421Y-65567976D01*
X119644967Y-65563033D01*
X119640024Y-65557579D01*
X119635640Y-65551668D01*
X119631856Y-65545355D01*
X119628709Y-65538701D01*
X119626229Y-65531771D01*
X119624441Y-65524632D01*
X119623361Y-65517351D01*
X119623000Y-65510000D01*
X119623000Y-64110000D01*
X119623361Y-64102649D01*
X119624441Y-64095368D01*
X119626229Y-64088229D01*
X119628709Y-64081299D01*
X119631856Y-64074645D01*
X119635640Y-64068332D01*
X119640024Y-64062421D01*
X119644967Y-64056967D01*
X119650421Y-64052024D01*
X119656332Y-64047640D01*
X119662645Y-64043856D01*
X119669299Y-64040709D01*
X119676229Y-64038229D01*
X119683368Y-64036441D01*
X119690649Y-64035361D01*
X119698000Y-64035000D01*
X119848000Y-64035000D01*
X119855351Y-64035361D01*
X119855351Y-64035361D01*
G37*
D21*
X119773000Y-64810000D03*
D13*
G36*
X120355351Y-64035361D02*
G01*
X120362632Y-64036441D01*
X120369771Y-64038229D01*
X120376701Y-64040709D01*
X120383355Y-64043856D01*
X120389668Y-64047640D01*
X120395579Y-64052024D01*
X120401033Y-64056967D01*
X120405976Y-64062421D01*
X120410360Y-64068332D01*
X120414144Y-64074645D01*
X120417291Y-64081299D01*
X120419771Y-64088229D01*
X120421559Y-64095368D01*
X120422639Y-64102649D01*
X120423000Y-64110000D01*
X120423000Y-65510000D01*
X120422639Y-65517351D01*
X120421559Y-65524632D01*
X120419771Y-65531771D01*
X120417291Y-65538701D01*
X120414144Y-65545355D01*
X120410360Y-65551668D01*
X120405976Y-65557579D01*
X120401033Y-65563033D01*
X120395579Y-65567976D01*
X120389668Y-65572360D01*
X120383355Y-65576144D01*
X120376701Y-65579291D01*
X120369771Y-65581771D01*
X120362632Y-65583559D01*
X120355351Y-65584639D01*
X120348000Y-65585000D01*
X120198000Y-65585000D01*
X120190649Y-65584639D01*
X120183368Y-65583559D01*
X120176229Y-65581771D01*
X120169299Y-65579291D01*
X120162645Y-65576144D01*
X120156332Y-65572360D01*
X120150421Y-65567976D01*
X120144967Y-65563033D01*
X120140024Y-65557579D01*
X120135640Y-65551668D01*
X120131856Y-65545355D01*
X120128709Y-65538701D01*
X120126229Y-65531771D01*
X120124441Y-65524632D01*
X120123361Y-65517351D01*
X120123000Y-65510000D01*
X120123000Y-64110000D01*
X120123361Y-64102649D01*
X120124441Y-64095368D01*
X120126229Y-64088229D01*
X120128709Y-64081299D01*
X120131856Y-64074645D01*
X120135640Y-64068332D01*
X120140024Y-64062421D01*
X120144967Y-64056967D01*
X120150421Y-64052024D01*
X120156332Y-64047640D01*
X120162645Y-64043856D01*
X120169299Y-64040709D01*
X120176229Y-64038229D01*
X120183368Y-64036441D01*
X120190649Y-64035361D01*
X120198000Y-64035000D01*
X120348000Y-64035000D01*
X120355351Y-64035361D01*
X120355351Y-64035361D01*
G37*
D21*
X120273000Y-64810000D03*
D13*
G36*
X120855351Y-64035361D02*
G01*
X120862632Y-64036441D01*
X120869771Y-64038229D01*
X120876701Y-64040709D01*
X120883355Y-64043856D01*
X120889668Y-64047640D01*
X120895579Y-64052024D01*
X120901033Y-64056967D01*
X120905976Y-64062421D01*
X120910360Y-64068332D01*
X120914144Y-64074645D01*
X120917291Y-64081299D01*
X120919771Y-64088229D01*
X120921559Y-64095368D01*
X120922639Y-64102649D01*
X120923000Y-64110000D01*
X120923000Y-65510000D01*
X120922639Y-65517351D01*
X120921559Y-65524632D01*
X120919771Y-65531771D01*
X120917291Y-65538701D01*
X120914144Y-65545355D01*
X120910360Y-65551668D01*
X120905976Y-65557579D01*
X120901033Y-65563033D01*
X120895579Y-65567976D01*
X120889668Y-65572360D01*
X120883355Y-65576144D01*
X120876701Y-65579291D01*
X120869771Y-65581771D01*
X120862632Y-65583559D01*
X120855351Y-65584639D01*
X120848000Y-65585000D01*
X120698000Y-65585000D01*
X120690649Y-65584639D01*
X120683368Y-65583559D01*
X120676229Y-65581771D01*
X120669299Y-65579291D01*
X120662645Y-65576144D01*
X120656332Y-65572360D01*
X120650421Y-65567976D01*
X120644967Y-65563033D01*
X120640024Y-65557579D01*
X120635640Y-65551668D01*
X120631856Y-65545355D01*
X120628709Y-65538701D01*
X120626229Y-65531771D01*
X120624441Y-65524632D01*
X120623361Y-65517351D01*
X120623000Y-65510000D01*
X120623000Y-64110000D01*
X120623361Y-64102649D01*
X120624441Y-64095368D01*
X120626229Y-64088229D01*
X120628709Y-64081299D01*
X120631856Y-64074645D01*
X120635640Y-64068332D01*
X120640024Y-64062421D01*
X120644967Y-64056967D01*
X120650421Y-64052024D01*
X120656332Y-64047640D01*
X120662645Y-64043856D01*
X120669299Y-64040709D01*
X120676229Y-64038229D01*
X120683368Y-64036441D01*
X120690649Y-64035361D01*
X120698000Y-64035000D01*
X120848000Y-64035000D01*
X120855351Y-64035361D01*
X120855351Y-64035361D01*
G37*
D21*
X120773000Y-64810000D03*
D13*
G36*
X121355351Y-64035361D02*
G01*
X121362632Y-64036441D01*
X121369771Y-64038229D01*
X121376701Y-64040709D01*
X121383355Y-64043856D01*
X121389668Y-64047640D01*
X121395579Y-64052024D01*
X121401033Y-64056967D01*
X121405976Y-64062421D01*
X121410360Y-64068332D01*
X121414144Y-64074645D01*
X121417291Y-64081299D01*
X121419771Y-64088229D01*
X121421559Y-64095368D01*
X121422639Y-64102649D01*
X121423000Y-64110000D01*
X121423000Y-65510000D01*
X121422639Y-65517351D01*
X121421559Y-65524632D01*
X121419771Y-65531771D01*
X121417291Y-65538701D01*
X121414144Y-65545355D01*
X121410360Y-65551668D01*
X121405976Y-65557579D01*
X121401033Y-65563033D01*
X121395579Y-65567976D01*
X121389668Y-65572360D01*
X121383355Y-65576144D01*
X121376701Y-65579291D01*
X121369771Y-65581771D01*
X121362632Y-65583559D01*
X121355351Y-65584639D01*
X121348000Y-65585000D01*
X121198000Y-65585000D01*
X121190649Y-65584639D01*
X121183368Y-65583559D01*
X121176229Y-65581771D01*
X121169299Y-65579291D01*
X121162645Y-65576144D01*
X121156332Y-65572360D01*
X121150421Y-65567976D01*
X121144967Y-65563033D01*
X121140024Y-65557579D01*
X121135640Y-65551668D01*
X121131856Y-65545355D01*
X121128709Y-65538701D01*
X121126229Y-65531771D01*
X121124441Y-65524632D01*
X121123361Y-65517351D01*
X121123000Y-65510000D01*
X121123000Y-64110000D01*
X121123361Y-64102649D01*
X121124441Y-64095368D01*
X121126229Y-64088229D01*
X121128709Y-64081299D01*
X121131856Y-64074645D01*
X121135640Y-64068332D01*
X121140024Y-64062421D01*
X121144967Y-64056967D01*
X121150421Y-64052024D01*
X121156332Y-64047640D01*
X121162645Y-64043856D01*
X121169299Y-64040709D01*
X121176229Y-64038229D01*
X121183368Y-64036441D01*
X121190649Y-64035361D01*
X121198000Y-64035000D01*
X121348000Y-64035000D01*
X121355351Y-64035361D01*
X121355351Y-64035361D01*
G37*
D21*
X121273000Y-64810000D03*
D13*
G36*
X121855351Y-64035361D02*
G01*
X121862632Y-64036441D01*
X121869771Y-64038229D01*
X121876701Y-64040709D01*
X121883355Y-64043856D01*
X121889668Y-64047640D01*
X121895579Y-64052024D01*
X121901033Y-64056967D01*
X121905976Y-64062421D01*
X121910360Y-64068332D01*
X121914144Y-64074645D01*
X121917291Y-64081299D01*
X121919771Y-64088229D01*
X121921559Y-64095368D01*
X121922639Y-64102649D01*
X121923000Y-64110000D01*
X121923000Y-65510000D01*
X121922639Y-65517351D01*
X121921559Y-65524632D01*
X121919771Y-65531771D01*
X121917291Y-65538701D01*
X121914144Y-65545355D01*
X121910360Y-65551668D01*
X121905976Y-65557579D01*
X121901033Y-65563033D01*
X121895579Y-65567976D01*
X121889668Y-65572360D01*
X121883355Y-65576144D01*
X121876701Y-65579291D01*
X121869771Y-65581771D01*
X121862632Y-65583559D01*
X121855351Y-65584639D01*
X121848000Y-65585000D01*
X121698000Y-65585000D01*
X121690649Y-65584639D01*
X121683368Y-65583559D01*
X121676229Y-65581771D01*
X121669299Y-65579291D01*
X121662645Y-65576144D01*
X121656332Y-65572360D01*
X121650421Y-65567976D01*
X121644967Y-65563033D01*
X121640024Y-65557579D01*
X121635640Y-65551668D01*
X121631856Y-65545355D01*
X121628709Y-65538701D01*
X121626229Y-65531771D01*
X121624441Y-65524632D01*
X121623361Y-65517351D01*
X121623000Y-65510000D01*
X121623000Y-64110000D01*
X121623361Y-64102649D01*
X121624441Y-64095368D01*
X121626229Y-64088229D01*
X121628709Y-64081299D01*
X121631856Y-64074645D01*
X121635640Y-64068332D01*
X121640024Y-64062421D01*
X121644967Y-64056967D01*
X121650421Y-64052024D01*
X121656332Y-64047640D01*
X121662645Y-64043856D01*
X121669299Y-64040709D01*
X121676229Y-64038229D01*
X121683368Y-64036441D01*
X121690649Y-64035361D01*
X121698000Y-64035000D01*
X121848000Y-64035000D01*
X121855351Y-64035361D01*
X121855351Y-64035361D01*
G37*
D21*
X121773000Y-64810000D03*
D13*
G36*
X122355351Y-64035361D02*
G01*
X122362632Y-64036441D01*
X122369771Y-64038229D01*
X122376701Y-64040709D01*
X122383355Y-64043856D01*
X122389668Y-64047640D01*
X122395579Y-64052024D01*
X122401033Y-64056967D01*
X122405976Y-64062421D01*
X122410360Y-64068332D01*
X122414144Y-64074645D01*
X122417291Y-64081299D01*
X122419771Y-64088229D01*
X122421559Y-64095368D01*
X122422639Y-64102649D01*
X122423000Y-64110000D01*
X122423000Y-65510000D01*
X122422639Y-65517351D01*
X122421559Y-65524632D01*
X122419771Y-65531771D01*
X122417291Y-65538701D01*
X122414144Y-65545355D01*
X122410360Y-65551668D01*
X122405976Y-65557579D01*
X122401033Y-65563033D01*
X122395579Y-65567976D01*
X122389668Y-65572360D01*
X122383355Y-65576144D01*
X122376701Y-65579291D01*
X122369771Y-65581771D01*
X122362632Y-65583559D01*
X122355351Y-65584639D01*
X122348000Y-65585000D01*
X122198000Y-65585000D01*
X122190649Y-65584639D01*
X122183368Y-65583559D01*
X122176229Y-65581771D01*
X122169299Y-65579291D01*
X122162645Y-65576144D01*
X122156332Y-65572360D01*
X122150421Y-65567976D01*
X122144967Y-65563033D01*
X122140024Y-65557579D01*
X122135640Y-65551668D01*
X122131856Y-65545355D01*
X122128709Y-65538701D01*
X122126229Y-65531771D01*
X122124441Y-65524632D01*
X122123361Y-65517351D01*
X122123000Y-65510000D01*
X122123000Y-64110000D01*
X122123361Y-64102649D01*
X122124441Y-64095368D01*
X122126229Y-64088229D01*
X122128709Y-64081299D01*
X122131856Y-64074645D01*
X122135640Y-64068332D01*
X122140024Y-64062421D01*
X122144967Y-64056967D01*
X122150421Y-64052024D01*
X122156332Y-64047640D01*
X122162645Y-64043856D01*
X122169299Y-64040709D01*
X122176229Y-64038229D01*
X122183368Y-64036441D01*
X122190649Y-64035361D01*
X122198000Y-64035000D01*
X122348000Y-64035000D01*
X122355351Y-64035361D01*
X122355351Y-64035361D01*
G37*
D21*
X122273000Y-64810000D03*
D13*
G36*
X122855351Y-64035361D02*
G01*
X122862632Y-64036441D01*
X122869771Y-64038229D01*
X122876701Y-64040709D01*
X122883355Y-64043856D01*
X122889668Y-64047640D01*
X122895579Y-64052024D01*
X122901033Y-64056967D01*
X122905976Y-64062421D01*
X122910360Y-64068332D01*
X122914144Y-64074645D01*
X122917291Y-64081299D01*
X122919771Y-64088229D01*
X122921559Y-64095368D01*
X122922639Y-64102649D01*
X122923000Y-64110000D01*
X122923000Y-65510000D01*
X122922639Y-65517351D01*
X122921559Y-65524632D01*
X122919771Y-65531771D01*
X122917291Y-65538701D01*
X122914144Y-65545355D01*
X122910360Y-65551668D01*
X122905976Y-65557579D01*
X122901033Y-65563033D01*
X122895579Y-65567976D01*
X122889668Y-65572360D01*
X122883355Y-65576144D01*
X122876701Y-65579291D01*
X122869771Y-65581771D01*
X122862632Y-65583559D01*
X122855351Y-65584639D01*
X122848000Y-65585000D01*
X122698000Y-65585000D01*
X122690649Y-65584639D01*
X122683368Y-65583559D01*
X122676229Y-65581771D01*
X122669299Y-65579291D01*
X122662645Y-65576144D01*
X122656332Y-65572360D01*
X122650421Y-65567976D01*
X122644967Y-65563033D01*
X122640024Y-65557579D01*
X122635640Y-65551668D01*
X122631856Y-65545355D01*
X122628709Y-65538701D01*
X122626229Y-65531771D01*
X122624441Y-65524632D01*
X122623361Y-65517351D01*
X122623000Y-65510000D01*
X122623000Y-64110000D01*
X122623361Y-64102649D01*
X122624441Y-64095368D01*
X122626229Y-64088229D01*
X122628709Y-64081299D01*
X122631856Y-64074645D01*
X122635640Y-64068332D01*
X122640024Y-64062421D01*
X122644967Y-64056967D01*
X122650421Y-64052024D01*
X122656332Y-64047640D01*
X122662645Y-64043856D01*
X122669299Y-64040709D01*
X122676229Y-64038229D01*
X122683368Y-64036441D01*
X122690649Y-64035361D01*
X122698000Y-64035000D01*
X122848000Y-64035000D01*
X122855351Y-64035361D01*
X122855351Y-64035361D01*
G37*
D21*
X122773000Y-64810000D03*
D13*
G36*
X123355351Y-64035361D02*
G01*
X123362632Y-64036441D01*
X123369771Y-64038229D01*
X123376701Y-64040709D01*
X123383355Y-64043856D01*
X123389668Y-64047640D01*
X123395579Y-64052024D01*
X123401033Y-64056967D01*
X123405976Y-64062421D01*
X123410360Y-64068332D01*
X123414144Y-64074645D01*
X123417291Y-64081299D01*
X123419771Y-64088229D01*
X123421559Y-64095368D01*
X123422639Y-64102649D01*
X123423000Y-64110000D01*
X123423000Y-65510000D01*
X123422639Y-65517351D01*
X123421559Y-65524632D01*
X123419771Y-65531771D01*
X123417291Y-65538701D01*
X123414144Y-65545355D01*
X123410360Y-65551668D01*
X123405976Y-65557579D01*
X123401033Y-65563033D01*
X123395579Y-65567976D01*
X123389668Y-65572360D01*
X123383355Y-65576144D01*
X123376701Y-65579291D01*
X123369771Y-65581771D01*
X123362632Y-65583559D01*
X123355351Y-65584639D01*
X123348000Y-65585000D01*
X123198000Y-65585000D01*
X123190649Y-65584639D01*
X123183368Y-65583559D01*
X123176229Y-65581771D01*
X123169299Y-65579291D01*
X123162645Y-65576144D01*
X123156332Y-65572360D01*
X123150421Y-65567976D01*
X123144967Y-65563033D01*
X123140024Y-65557579D01*
X123135640Y-65551668D01*
X123131856Y-65545355D01*
X123128709Y-65538701D01*
X123126229Y-65531771D01*
X123124441Y-65524632D01*
X123123361Y-65517351D01*
X123123000Y-65510000D01*
X123123000Y-64110000D01*
X123123361Y-64102649D01*
X123124441Y-64095368D01*
X123126229Y-64088229D01*
X123128709Y-64081299D01*
X123131856Y-64074645D01*
X123135640Y-64068332D01*
X123140024Y-64062421D01*
X123144967Y-64056967D01*
X123150421Y-64052024D01*
X123156332Y-64047640D01*
X123162645Y-64043856D01*
X123169299Y-64040709D01*
X123176229Y-64038229D01*
X123183368Y-64036441D01*
X123190649Y-64035361D01*
X123198000Y-64035000D01*
X123348000Y-64035000D01*
X123355351Y-64035361D01*
X123355351Y-64035361D01*
G37*
D21*
X123273000Y-64810000D03*
D13*
G36*
X123855351Y-64035361D02*
G01*
X123862632Y-64036441D01*
X123869771Y-64038229D01*
X123876701Y-64040709D01*
X123883355Y-64043856D01*
X123889668Y-64047640D01*
X123895579Y-64052024D01*
X123901033Y-64056967D01*
X123905976Y-64062421D01*
X123910360Y-64068332D01*
X123914144Y-64074645D01*
X123917291Y-64081299D01*
X123919771Y-64088229D01*
X123921559Y-64095368D01*
X123922639Y-64102649D01*
X123923000Y-64110000D01*
X123923000Y-65510000D01*
X123922639Y-65517351D01*
X123921559Y-65524632D01*
X123919771Y-65531771D01*
X123917291Y-65538701D01*
X123914144Y-65545355D01*
X123910360Y-65551668D01*
X123905976Y-65557579D01*
X123901033Y-65563033D01*
X123895579Y-65567976D01*
X123889668Y-65572360D01*
X123883355Y-65576144D01*
X123876701Y-65579291D01*
X123869771Y-65581771D01*
X123862632Y-65583559D01*
X123855351Y-65584639D01*
X123848000Y-65585000D01*
X123698000Y-65585000D01*
X123690649Y-65584639D01*
X123683368Y-65583559D01*
X123676229Y-65581771D01*
X123669299Y-65579291D01*
X123662645Y-65576144D01*
X123656332Y-65572360D01*
X123650421Y-65567976D01*
X123644967Y-65563033D01*
X123640024Y-65557579D01*
X123635640Y-65551668D01*
X123631856Y-65545355D01*
X123628709Y-65538701D01*
X123626229Y-65531771D01*
X123624441Y-65524632D01*
X123623361Y-65517351D01*
X123623000Y-65510000D01*
X123623000Y-64110000D01*
X123623361Y-64102649D01*
X123624441Y-64095368D01*
X123626229Y-64088229D01*
X123628709Y-64081299D01*
X123631856Y-64074645D01*
X123635640Y-64068332D01*
X123640024Y-64062421D01*
X123644967Y-64056967D01*
X123650421Y-64052024D01*
X123656332Y-64047640D01*
X123662645Y-64043856D01*
X123669299Y-64040709D01*
X123676229Y-64038229D01*
X123683368Y-64036441D01*
X123690649Y-64035361D01*
X123698000Y-64035000D01*
X123848000Y-64035000D01*
X123855351Y-64035361D01*
X123855351Y-64035361D01*
G37*
D21*
X123773000Y-64810000D03*
D13*
G36*
X124355351Y-64035361D02*
G01*
X124362632Y-64036441D01*
X124369771Y-64038229D01*
X124376701Y-64040709D01*
X124383355Y-64043856D01*
X124389668Y-64047640D01*
X124395579Y-64052024D01*
X124401033Y-64056967D01*
X124405976Y-64062421D01*
X124410360Y-64068332D01*
X124414144Y-64074645D01*
X124417291Y-64081299D01*
X124419771Y-64088229D01*
X124421559Y-64095368D01*
X124422639Y-64102649D01*
X124423000Y-64110000D01*
X124423000Y-65510000D01*
X124422639Y-65517351D01*
X124421559Y-65524632D01*
X124419771Y-65531771D01*
X124417291Y-65538701D01*
X124414144Y-65545355D01*
X124410360Y-65551668D01*
X124405976Y-65557579D01*
X124401033Y-65563033D01*
X124395579Y-65567976D01*
X124389668Y-65572360D01*
X124383355Y-65576144D01*
X124376701Y-65579291D01*
X124369771Y-65581771D01*
X124362632Y-65583559D01*
X124355351Y-65584639D01*
X124348000Y-65585000D01*
X124198000Y-65585000D01*
X124190649Y-65584639D01*
X124183368Y-65583559D01*
X124176229Y-65581771D01*
X124169299Y-65579291D01*
X124162645Y-65576144D01*
X124156332Y-65572360D01*
X124150421Y-65567976D01*
X124144967Y-65563033D01*
X124140024Y-65557579D01*
X124135640Y-65551668D01*
X124131856Y-65545355D01*
X124128709Y-65538701D01*
X124126229Y-65531771D01*
X124124441Y-65524632D01*
X124123361Y-65517351D01*
X124123000Y-65510000D01*
X124123000Y-64110000D01*
X124123361Y-64102649D01*
X124124441Y-64095368D01*
X124126229Y-64088229D01*
X124128709Y-64081299D01*
X124131856Y-64074645D01*
X124135640Y-64068332D01*
X124140024Y-64062421D01*
X124144967Y-64056967D01*
X124150421Y-64052024D01*
X124156332Y-64047640D01*
X124162645Y-64043856D01*
X124169299Y-64040709D01*
X124176229Y-64038229D01*
X124183368Y-64036441D01*
X124190649Y-64035361D01*
X124198000Y-64035000D01*
X124348000Y-64035000D01*
X124355351Y-64035361D01*
X124355351Y-64035361D01*
G37*
D21*
X124273000Y-64810000D03*
D13*
G36*
X126905351Y-66585361D02*
G01*
X126912632Y-66586441D01*
X126919771Y-66588229D01*
X126926701Y-66590709D01*
X126933355Y-66593856D01*
X126939668Y-66597640D01*
X126945579Y-66602024D01*
X126951033Y-66606967D01*
X126955976Y-66612421D01*
X126960360Y-66618332D01*
X126964144Y-66624645D01*
X126967291Y-66631299D01*
X126969771Y-66638229D01*
X126971559Y-66645368D01*
X126972639Y-66652649D01*
X126973000Y-66660000D01*
X126973000Y-66810000D01*
X126972639Y-66817351D01*
X126971559Y-66824632D01*
X126969771Y-66831771D01*
X126967291Y-66838701D01*
X126964144Y-66845355D01*
X126960360Y-66851668D01*
X126955976Y-66857579D01*
X126951033Y-66863033D01*
X126945579Y-66867976D01*
X126939668Y-66872360D01*
X126933355Y-66876144D01*
X126926701Y-66879291D01*
X126919771Y-66881771D01*
X126912632Y-66883559D01*
X126905351Y-66884639D01*
X126898000Y-66885000D01*
X125498000Y-66885000D01*
X125490649Y-66884639D01*
X125483368Y-66883559D01*
X125476229Y-66881771D01*
X125469299Y-66879291D01*
X125462645Y-66876144D01*
X125456332Y-66872360D01*
X125450421Y-66867976D01*
X125444967Y-66863033D01*
X125440024Y-66857579D01*
X125435640Y-66851668D01*
X125431856Y-66845355D01*
X125428709Y-66838701D01*
X125426229Y-66831771D01*
X125424441Y-66824632D01*
X125423361Y-66817351D01*
X125423000Y-66810000D01*
X125423000Y-66660000D01*
X125423361Y-66652649D01*
X125424441Y-66645368D01*
X125426229Y-66638229D01*
X125428709Y-66631299D01*
X125431856Y-66624645D01*
X125435640Y-66618332D01*
X125440024Y-66612421D01*
X125444967Y-66606967D01*
X125450421Y-66602024D01*
X125456332Y-66597640D01*
X125462645Y-66593856D01*
X125469299Y-66590709D01*
X125476229Y-66588229D01*
X125483368Y-66586441D01*
X125490649Y-66585361D01*
X125498000Y-66585000D01*
X126898000Y-66585000D01*
X126905351Y-66585361D01*
X126905351Y-66585361D01*
G37*
D21*
X126198000Y-66735000D03*
D13*
G36*
X126905351Y-67085361D02*
G01*
X126912632Y-67086441D01*
X126919771Y-67088229D01*
X126926701Y-67090709D01*
X126933355Y-67093856D01*
X126939668Y-67097640D01*
X126945579Y-67102024D01*
X126951033Y-67106967D01*
X126955976Y-67112421D01*
X126960360Y-67118332D01*
X126964144Y-67124645D01*
X126967291Y-67131299D01*
X126969771Y-67138229D01*
X126971559Y-67145368D01*
X126972639Y-67152649D01*
X126973000Y-67160000D01*
X126973000Y-67310000D01*
X126972639Y-67317351D01*
X126971559Y-67324632D01*
X126969771Y-67331771D01*
X126967291Y-67338701D01*
X126964144Y-67345355D01*
X126960360Y-67351668D01*
X126955976Y-67357579D01*
X126951033Y-67363033D01*
X126945579Y-67367976D01*
X126939668Y-67372360D01*
X126933355Y-67376144D01*
X126926701Y-67379291D01*
X126919771Y-67381771D01*
X126912632Y-67383559D01*
X126905351Y-67384639D01*
X126898000Y-67385000D01*
X125498000Y-67385000D01*
X125490649Y-67384639D01*
X125483368Y-67383559D01*
X125476229Y-67381771D01*
X125469299Y-67379291D01*
X125462645Y-67376144D01*
X125456332Y-67372360D01*
X125450421Y-67367976D01*
X125444967Y-67363033D01*
X125440024Y-67357579D01*
X125435640Y-67351668D01*
X125431856Y-67345355D01*
X125428709Y-67338701D01*
X125426229Y-67331771D01*
X125424441Y-67324632D01*
X125423361Y-67317351D01*
X125423000Y-67310000D01*
X125423000Y-67160000D01*
X125423361Y-67152649D01*
X125424441Y-67145368D01*
X125426229Y-67138229D01*
X125428709Y-67131299D01*
X125431856Y-67124645D01*
X125435640Y-67118332D01*
X125440024Y-67112421D01*
X125444967Y-67106967D01*
X125450421Y-67102024D01*
X125456332Y-67097640D01*
X125462645Y-67093856D01*
X125469299Y-67090709D01*
X125476229Y-67088229D01*
X125483368Y-67086441D01*
X125490649Y-67085361D01*
X125498000Y-67085000D01*
X126898000Y-67085000D01*
X126905351Y-67085361D01*
X126905351Y-67085361D01*
G37*
D21*
X126198000Y-67235000D03*
D13*
G36*
X126905351Y-67585361D02*
G01*
X126912632Y-67586441D01*
X126919771Y-67588229D01*
X126926701Y-67590709D01*
X126933355Y-67593856D01*
X126939668Y-67597640D01*
X126945579Y-67602024D01*
X126951033Y-67606967D01*
X126955976Y-67612421D01*
X126960360Y-67618332D01*
X126964144Y-67624645D01*
X126967291Y-67631299D01*
X126969771Y-67638229D01*
X126971559Y-67645368D01*
X126972639Y-67652649D01*
X126973000Y-67660000D01*
X126973000Y-67810000D01*
X126972639Y-67817351D01*
X126971559Y-67824632D01*
X126969771Y-67831771D01*
X126967291Y-67838701D01*
X126964144Y-67845355D01*
X126960360Y-67851668D01*
X126955976Y-67857579D01*
X126951033Y-67863033D01*
X126945579Y-67867976D01*
X126939668Y-67872360D01*
X126933355Y-67876144D01*
X126926701Y-67879291D01*
X126919771Y-67881771D01*
X126912632Y-67883559D01*
X126905351Y-67884639D01*
X126898000Y-67885000D01*
X125498000Y-67885000D01*
X125490649Y-67884639D01*
X125483368Y-67883559D01*
X125476229Y-67881771D01*
X125469299Y-67879291D01*
X125462645Y-67876144D01*
X125456332Y-67872360D01*
X125450421Y-67867976D01*
X125444967Y-67863033D01*
X125440024Y-67857579D01*
X125435640Y-67851668D01*
X125431856Y-67845355D01*
X125428709Y-67838701D01*
X125426229Y-67831771D01*
X125424441Y-67824632D01*
X125423361Y-67817351D01*
X125423000Y-67810000D01*
X125423000Y-67660000D01*
X125423361Y-67652649D01*
X125424441Y-67645368D01*
X125426229Y-67638229D01*
X125428709Y-67631299D01*
X125431856Y-67624645D01*
X125435640Y-67618332D01*
X125440024Y-67612421D01*
X125444967Y-67606967D01*
X125450421Y-67602024D01*
X125456332Y-67597640D01*
X125462645Y-67593856D01*
X125469299Y-67590709D01*
X125476229Y-67588229D01*
X125483368Y-67586441D01*
X125490649Y-67585361D01*
X125498000Y-67585000D01*
X126898000Y-67585000D01*
X126905351Y-67585361D01*
X126905351Y-67585361D01*
G37*
D21*
X126198000Y-67735000D03*
D13*
G36*
X126905351Y-68085361D02*
G01*
X126912632Y-68086441D01*
X126919771Y-68088229D01*
X126926701Y-68090709D01*
X126933355Y-68093856D01*
X126939668Y-68097640D01*
X126945579Y-68102024D01*
X126951033Y-68106967D01*
X126955976Y-68112421D01*
X126960360Y-68118332D01*
X126964144Y-68124645D01*
X126967291Y-68131299D01*
X126969771Y-68138229D01*
X126971559Y-68145368D01*
X126972639Y-68152649D01*
X126973000Y-68160000D01*
X126973000Y-68310000D01*
X126972639Y-68317351D01*
X126971559Y-68324632D01*
X126969771Y-68331771D01*
X126967291Y-68338701D01*
X126964144Y-68345355D01*
X126960360Y-68351668D01*
X126955976Y-68357579D01*
X126951033Y-68363033D01*
X126945579Y-68367976D01*
X126939668Y-68372360D01*
X126933355Y-68376144D01*
X126926701Y-68379291D01*
X126919771Y-68381771D01*
X126912632Y-68383559D01*
X126905351Y-68384639D01*
X126898000Y-68385000D01*
X125498000Y-68385000D01*
X125490649Y-68384639D01*
X125483368Y-68383559D01*
X125476229Y-68381771D01*
X125469299Y-68379291D01*
X125462645Y-68376144D01*
X125456332Y-68372360D01*
X125450421Y-68367976D01*
X125444967Y-68363033D01*
X125440024Y-68357579D01*
X125435640Y-68351668D01*
X125431856Y-68345355D01*
X125428709Y-68338701D01*
X125426229Y-68331771D01*
X125424441Y-68324632D01*
X125423361Y-68317351D01*
X125423000Y-68310000D01*
X125423000Y-68160000D01*
X125423361Y-68152649D01*
X125424441Y-68145368D01*
X125426229Y-68138229D01*
X125428709Y-68131299D01*
X125431856Y-68124645D01*
X125435640Y-68118332D01*
X125440024Y-68112421D01*
X125444967Y-68106967D01*
X125450421Y-68102024D01*
X125456332Y-68097640D01*
X125462645Y-68093856D01*
X125469299Y-68090709D01*
X125476229Y-68088229D01*
X125483368Y-68086441D01*
X125490649Y-68085361D01*
X125498000Y-68085000D01*
X126898000Y-68085000D01*
X126905351Y-68085361D01*
X126905351Y-68085361D01*
G37*
D21*
X126198000Y-68235000D03*
D13*
G36*
X126905351Y-68585361D02*
G01*
X126912632Y-68586441D01*
X126919771Y-68588229D01*
X126926701Y-68590709D01*
X126933355Y-68593856D01*
X126939668Y-68597640D01*
X126945579Y-68602024D01*
X126951033Y-68606967D01*
X126955976Y-68612421D01*
X126960360Y-68618332D01*
X126964144Y-68624645D01*
X126967291Y-68631299D01*
X126969771Y-68638229D01*
X126971559Y-68645368D01*
X126972639Y-68652649D01*
X126973000Y-68660000D01*
X126973000Y-68810000D01*
X126972639Y-68817351D01*
X126971559Y-68824632D01*
X126969771Y-68831771D01*
X126967291Y-68838701D01*
X126964144Y-68845355D01*
X126960360Y-68851668D01*
X126955976Y-68857579D01*
X126951033Y-68863033D01*
X126945579Y-68867976D01*
X126939668Y-68872360D01*
X126933355Y-68876144D01*
X126926701Y-68879291D01*
X126919771Y-68881771D01*
X126912632Y-68883559D01*
X126905351Y-68884639D01*
X126898000Y-68885000D01*
X125498000Y-68885000D01*
X125490649Y-68884639D01*
X125483368Y-68883559D01*
X125476229Y-68881771D01*
X125469299Y-68879291D01*
X125462645Y-68876144D01*
X125456332Y-68872360D01*
X125450421Y-68867976D01*
X125444967Y-68863033D01*
X125440024Y-68857579D01*
X125435640Y-68851668D01*
X125431856Y-68845355D01*
X125428709Y-68838701D01*
X125426229Y-68831771D01*
X125424441Y-68824632D01*
X125423361Y-68817351D01*
X125423000Y-68810000D01*
X125423000Y-68660000D01*
X125423361Y-68652649D01*
X125424441Y-68645368D01*
X125426229Y-68638229D01*
X125428709Y-68631299D01*
X125431856Y-68624645D01*
X125435640Y-68618332D01*
X125440024Y-68612421D01*
X125444967Y-68606967D01*
X125450421Y-68602024D01*
X125456332Y-68597640D01*
X125462645Y-68593856D01*
X125469299Y-68590709D01*
X125476229Y-68588229D01*
X125483368Y-68586441D01*
X125490649Y-68585361D01*
X125498000Y-68585000D01*
X126898000Y-68585000D01*
X126905351Y-68585361D01*
X126905351Y-68585361D01*
G37*
D21*
X126198000Y-68735000D03*
D13*
G36*
X126905351Y-69085361D02*
G01*
X126912632Y-69086441D01*
X126919771Y-69088229D01*
X126926701Y-69090709D01*
X126933355Y-69093856D01*
X126939668Y-69097640D01*
X126945579Y-69102024D01*
X126951033Y-69106967D01*
X126955976Y-69112421D01*
X126960360Y-69118332D01*
X126964144Y-69124645D01*
X126967291Y-69131299D01*
X126969771Y-69138229D01*
X126971559Y-69145368D01*
X126972639Y-69152649D01*
X126973000Y-69160000D01*
X126973000Y-69310000D01*
X126972639Y-69317351D01*
X126971559Y-69324632D01*
X126969771Y-69331771D01*
X126967291Y-69338701D01*
X126964144Y-69345355D01*
X126960360Y-69351668D01*
X126955976Y-69357579D01*
X126951033Y-69363033D01*
X126945579Y-69367976D01*
X126939668Y-69372360D01*
X126933355Y-69376144D01*
X126926701Y-69379291D01*
X126919771Y-69381771D01*
X126912632Y-69383559D01*
X126905351Y-69384639D01*
X126898000Y-69385000D01*
X125498000Y-69385000D01*
X125490649Y-69384639D01*
X125483368Y-69383559D01*
X125476229Y-69381771D01*
X125469299Y-69379291D01*
X125462645Y-69376144D01*
X125456332Y-69372360D01*
X125450421Y-69367976D01*
X125444967Y-69363033D01*
X125440024Y-69357579D01*
X125435640Y-69351668D01*
X125431856Y-69345355D01*
X125428709Y-69338701D01*
X125426229Y-69331771D01*
X125424441Y-69324632D01*
X125423361Y-69317351D01*
X125423000Y-69310000D01*
X125423000Y-69160000D01*
X125423361Y-69152649D01*
X125424441Y-69145368D01*
X125426229Y-69138229D01*
X125428709Y-69131299D01*
X125431856Y-69124645D01*
X125435640Y-69118332D01*
X125440024Y-69112421D01*
X125444967Y-69106967D01*
X125450421Y-69102024D01*
X125456332Y-69097640D01*
X125462645Y-69093856D01*
X125469299Y-69090709D01*
X125476229Y-69088229D01*
X125483368Y-69086441D01*
X125490649Y-69085361D01*
X125498000Y-69085000D01*
X126898000Y-69085000D01*
X126905351Y-69085361D01*
X126905351Y-69085361D01*
G37*
D21*
X126198000Y-69235000D03*
D13*
G36*
X126905351Y-69585361D02*
G01*
X126912632Y-69586441D01*
X126919771Y-69588229D01*
X126926701Y-69590709D01*
X126933355Y-69593856D01*
X126939668Y-69597640D01*
X126945579Y-69602024D01*
X126951033Y-69606967D01*
X126955976Y-69612421D01*
X126960360Y-69618332D01*
X126964144Y-69624645D01*
X126967291Y-69631299D01*
X126969771Y-69638229D01*
X126971559Y-69645368D01*
X126972639Y-69652649D01*
X126973000Y-69660000D01*
X126973000Y-69810000D01*
X126972639Y-69817351D01*
X126971559Y-69824632D01*
X126969771Y-69831771D01*
X126967291Y-69838701D01*
X126964144Y-69845355D01*
X126960360Y-69851668D01*
X126955976Y-69857579D01*
X126951033Y-69863033D01*
X126945579Y-69867976D01*
X126939668Y-69872360D01*
X126933355Y-69876144D01*
X126926701Y-69879291D01*
X126919771Y-69881771D01*
X126912632Y-69883559D01*
X126905351Y-69884639D01*
X126898000Y-69885000D01*
X125498000Y-69885000D01*
X125490649Y-69884639D01*
X125483368Y-69883559D01*
X125476229Y-69881771D01*
X125469299Y-69879291D01*
X125462645Y-69876144D01*
X125456332Y-69872360D01*
X125450421Y-69867976D01*
X125444967Y-69863033D01*
X125440024Y-69857579D01*
X125435640Y-69851668D01*
X125431856Y-69845355D01*
X125428709Y-69838701D01*
X125426229Y-69831771D01*
X125424441Y-69824632D01*
X125423361Y-69817351D01*
X125423000Y-69810000D01*
X125423000Y-69660000D01*
X125423361Y-69652649D01*
X125424441Y-69645368D01*
X125426229Y-69638229D01*
X125428709Y-69631299D01*
X125431856Y-69624645D01*
X125435640Y-69618332D01*
X125440024Y-69612421D01*
X125444967Y-69606967D01*
X125450421Y-69602024D01*
X125456332Y-69597640D01*
X125462645Y-69593856D01*
X125469299Y-69590709D01*
X125476229Y-69588229D01*
X125483368Y-69586441D01*
X125490649Y-69585361D01*
X125498000Y-69585000D01*
X126898000Y-69585000D01*
X126905351Y-69585361D01*
X126905351Y-69585361D01*
G37*
D21*
X126198000Y-69735000D03*
D13*
G36*
X126905351Y-70085361D02*
G01*
X126912632Y-70086441D01*
X126919771Y-70088229D01*
X126926701Y-70090709D01*
X126933355Y-70093856D01*
X126939668Y-70097640D01*
X126945579Y-70102024D01*
X126951033Y-70106967D01*
X126955976Y-70112421D01*
X126960360Y-70118332D01*
X126964144Y-70124645D01*
X126967291Y-70131299D01*
X126969771Y-70138229D01*
X126971559Y-70145368D01*
X126972639Y-70152649D01*
X126973000Y-70160000D01*
X126973000Y-70310000D01*
X126972639Y-70317351D01*
X126971559Y-70324632D01*
X126969771Y-70331771D01*
X126967291Y-70338701D01*
X126964144Y-70345355D01*
X126960360Y-70351668D01*
X126955976Y-70357579D01*
X126951033Y-70363033D01*
X126945579Y-70367976D01*
X126939668Y-70372360D01*
X126933355Y-70376144D01*
X126926701Y-70379291D01*
X126919771Y-70381771D01*
X126912632Y-70383559D01*
X126905351Y-70384639D01*
X126898000Y-70385000D01*
X125498000Y-70385000D01*
X125490649Y-70384639D01*
X125483368Y-70383559D01*
X125476229Y-70381771D01*
X125469299Y-70379291D01*
X125462645Y-70376144D01*
X125456332Y-70372360D01*
X125450421Y-70367976D01*
X125444967Y-70363033D01*
X125440024Y-70357579D01*
X125435640Y-70351668D01*
X125431856Y-70345355D01*
X125428709Y-70338701D01*
X125426229Y-70331771D01*
X125424441Y-70324632D01*
X125423361Y-70317351D01*
X125423000Y-70310000D01*
X125423000Y-70160000D01*
X125423361Y-70152649D01*
X125424441Y-70145368D01*
X125426229Y-70138229D01*
X125428709Y-70131299D01*
X125431856Y-70124645D01*
X125435640Y-70118332D01*
X125440024Y-70112421D01*
X125444967Y-70106967D01*
X125450421Y-70102024D01*
X125456332Y-70097640D01*
X125462645Y-70093856D01*
X125469299Y-70090709D01*
X125476229Y-70088229D01*
X125483368Y-70086441D01*
X125490649Y-70085361D01*
X125498000Y-70085000D01*
X126898000Y-70085000D01*
X126905351Y-70085361D01*
X126905351Y-70085361D01*
G37*
D21*
X126198000Y-70235000D03*
D13*
G36*
X126905351Y-70585361D02*
G01*
X126912632Y-70586441D01*
X126919771Y-70588229D01*
X126926701Y-70590709D01*
X126933355Y-70593856D01*
X126939668Y-70597640D01*
X126945579Y-70602024D01*
X126951033Y-70606967D01*
X126955976Y-70612421D01*
X126960360Y-70618332D01*
X126964144Y-70624645D01*
X126967291Y-70631299D01*
X126969771Y-70638229D01*
X126971559Y-70645368D01*
X126972639Y-70652649D01*
X126973000Y-70660000D01*
X126973000Y-70810000D01*
X126972639Y-70817351D01*
X126971559Y-70824632D01*
X126969771Y-70831771D01*
X126967291Y-70838701D01*
X126964144Y-70845355D01*
X126960360Y-70851668D01*
X126955976Y-70857579D01*
X126951033Y-70863033D01*
X126945579Y-70867976D01*
X126939668Y-70872360D01*
X126933355Y-70876144D01*
X126926701Y-70879291D01*
X126919771Y-70881771D01*
X126912632Y-70883559D01*
X126905351Y-70884639D01*
X126898000Y-70885000D01*
X125498000Y-70885000D01*
X125490649Y-70884639D01*
X125483368Y-70883559D01*
X125476229Y-70881771D01*
X125469299Y-70879291D01*
X125462645Y-70876144D01*
X125456332Y-70872360D01*
X125450421Y-70867976D01*
X125444967Y-70863033D01*
X125440024Y-70857579D01*
X125435640Y-70851668D01*
X125431856Y-70845355D01*
X125428709Y-70838701D01*
X125426229Y-70831771D01*
X125424441Y-70824632D01*
X125423361Y-70817351D01*
X125423000Y-70810000D01*
X125423000Y-70660000D01*
X125423361Y-70652649D01*
X125424441Y-70645368D01*
X125426229Y-70638229D01*
X125428709Y-70631299D01*
X125431856Y-70624645D01*
X125435640Y-70618332D01*
X125440024Y-70612421D01*
X125444967Y-70606967D01*
X125450421Y-70602024D01*
X125456332Y-70597640D01*
X125462645Y-70593856D01*
X125469299Y-70590709D01*
X125476229Y-70588229D01*
X125483368Y-70586441D01*
X125490649Y-70585361D01*
X125498000Y-70585000D01*
X126898000Y-70585000D01*
X126905351Y-70585361D01*
X126905351Y-70585361D01*
G37*
D21*
X126198000Y-70735000D03*
D13*
G36*
X126905351Y-71085361D02*
G01*
X126912632Y-71086441D01*
X126919771Y-71088229D01*
X126926701Y-71090709D01*
X126933355Y-71093856D01*
X126939668Y-71097640D01*
X126945579Y-71102024D01*
X126951033Y-71106967D01*
X126955976Y-71112421D01*
X126960360Y-71118332D01*
X126964144Y-71124645D01*
X126967291Y-71131299D01*
X126969771Y-71138229D01*
X126971559Y-71145368D01*
X126972639Y-71152649D01*
X126973000Y-71160000D01*
X126973000Y-71310000D01*
X126972639Y-71317351D01*
X126971559Y-71324632D01*
X126969771Y-71331771D01*
X126967291Y-71338701D01*
X126964144Y-71345355D01*
X126960360Y-71351668D01*
X126955976Y-71357579D01*
X126951033Y-71363033D01*
X126945579Y-71367976D01*
X126939668Y-71372360D01*
X126933355Y-71376144D01*
X126926701Y-71379291D01*
X126919771Y-71381771D01*
X126912632Y-71383559D01*
X126905351Y-71384639D01*
X126898000Y-71385000D01*
X125498000Y-71385000D01*
X125490649Y-71384639D01*
X125483368Y-71383559D01*
X125476229Y-71381771D01*
X125469299Y-71379291D01*
X125462645Y-71376144D01*
X125456332Y-71372360D01*
X125450421Y-71367976D01*
X125444967Y-71363033D01*
X125440024Y-71357579D01*
X125435640Y-71351668D01*
X125431856Y-71345355D01*
X125428709Y-71338701D01*
X125426229Y-71331771D01*
X125424441Y-71324632D01*
X125423361Y-71317351D01*
X125423000Y-71310000D01*
X125423000Y-71160000D01*
X125423361Y-71152649D01*
X125424441Y-71145368D01*
X125426229Y-71138229D01*
X125428709Y-71131299D01*
X125431856Y-71124645D01*
X125435640Y-71118332D01*
X125440024Y-71112421D01*
X125444967Y-71106967D01*
X125450421Y-71102024D01*
X125456332Y-71097640D01*
X125462645Y-71093856D01*
X125469299Y-71090709D01*
X125476229Y-71088229D01*
X125483368Y-71086441D01*
X125490649Y-71085361D01*
X125498000Y-71085000D01*
X126898000Y-71085000D01*
X126905351Y-71085361D01*
X126905351Y-71085361D01*
G37*
D21*
X126198000Y-71235000D03*
D13*
G36*
X126905351Y-71585361D02*
G01*
X126912632Y-71586441D01*
X126919771Y-71588229D01*
X126926701Y-71590709D01*
X126933355Y-71593856D01*
X126939668Y-71597640D01*
X126945579Y-71602024D01*
X126951033Y-71606967D01*
X126955976Y-71612421D01*
X126960360Y-71618332D01*
X126964144Y-71624645D01*
X126967291Y-71631299D01*
X126969771Y-71638229D01*
X126971559Y-71645368D01*
X126972639Y-71652649D01*
X126973000Y-71660000D01*
X126973000Y-71810000D01*
X126972639Y-71817351D01*
X126971559Y-71824632D01*
X126969771Y-71831771D01*
X126967291Y-71838701D01*
X126964144Y-71845355D01*
X126960360Y-71851668D01*
X126955976Y-71857579D01*
X126951033Y-71863033D01*
X126945579Y-71867976D01*
X126939668Y-71872360D01*
X126933355Y-71876144D01*
X126926701Y-71879291D01*
X126919771Y-71881771D01*
X126912632Y-71883559D01*
X126905351Y-71884639D01*
X126898000Y-71885000D01*
X125498000Y-71885000D01*
X125490649Y-71884639D01*
X125483368Y-71883559D01*
X125476229Y-71881771D01*
X125469299Y-71879291D01*
X125462645Y-71876144D01*
X125456332Y-71872360D01*
X125450421Y-71867976D01*
X125444967Y-71863033D01*
X125440024Y-71857579D01*
X125435640Y-71851668D01*
X125431856Y-71845355D01*
X125428709Y-71838701D01*
X125426229Y-71831771D01*
X125424441Y-71824632D01*
X125423361Y-71817351D01*
X125423000Y-71810000D01*
X125423000Y-71660000D01*
X125423361Y-71652649D01*
X125424441Y-71645368D01*
X125426229Y-71638229D01*
X125428709Y-71631299D01*
X125431856Y-71624645D01*
X125435640Y-71618332D01*
X125440024Y-71612421D01*
X125444967Y-71606967D01*
X125450421Y-71602024D01*
X125456332Y-71597640D01*
X125462645Y-71593856D01*
X125469299Y-71590709D01*
X125476229Y-71588229D01*
X125483368Y-71586441D01*
X125490649Y-71585361D01*
X125498000Y-71585000D01*
X126898000Y-71585000D01*
X126905351Y-71585361D01*
X126905351Y-71585361D01*
G37*
D21*
X126198000Y-71735000D03*
D13*
G36*
X126905351Y-72085361D02*
G01*
X126912632Y-72086441D01*
X126919771Y-72088229D01*
X126926701Y-72090709D01*
X126933355Y-72093856D01*
X126939668Y-72097640D01*
X126945579Y-72102024D01*
X126951033Y-72106967D01*
X126955976Y-72112421D01*
X126960360Y-72118332D01*
X126964144Y-72124645D01*
X126967291Y-72131299D01*
X126969771Y-72138229D01*
X126971559Y-72145368D01*
X126972639Y-72152649D01*
X126973000Y-72160000D01*
X126973000Y-72310000D01*
X126972639Y-72317351D01*
X126971559Y-72324632D01*
X126969771Y-72331771D01*
X126967291Y-72338701D01*
X126964144Y-72345355D01*
X126960360Y-72351668D01*
X126955976Y-72357579D01*
X126951033Y-72363033D01*
X126945579Y-72367976D01*
X126939668Y-72372360D01*
X126933355Y-72376144D01*
X126926701Y-72379291D01*
X126919771Y-72381771D01*
X126912632Y-72383559D01*
X126905351Y-72384639D01*
X126898000Y-72385000D01*
X125498000Y-72385000D01*
X125490649Y-72384639D01*
X125483368Y-72383559D01*
X125476229Y-72381771D01*
X125469299Y-72379291D01*
X125462645Y-72376144D01*
X125456332Y-72372360D01*
X125450421Y-72367976D01*
X125444967Y-72363033D01*
X125440024Y-72357579D01*
X125435640Y-72351668D01*
X125431856Y-72345355D01*
X125428709Y-72338701D01*
X125426229Y-72331771D01*
X125424441Y-72324632D01*
X125423361Y-72317351D01*
X125423000Y-72310000D01*
X125423000Y-72160000D01*
X125423361Y-72152649D01*
X125424441Y-72145368D01*
X125426229Y-72138229D01*
X125428709Y-72131299D01*
X125431856Y-72124645D01*
X125435640Y-72118332D01*
X125440024Y-72112421D01*
X125444967Y-72106967D01*
X125450421Y-72102024D01*
X125456332Y-72097640D01*
X125462645Y-72093856D01*
X125469299Y-72090709D01*
X125476229Y-72088229D01*
X125483368Y-72086441D01*
X125490649Y-72085361D01*
X125498000Y-72085000D01*
X126898000Y-72085000D01*
X126905351Y-72085361D01*
X126905351Y-72085361D01*
G37*
D21*
X126198000Y-72235000D03*
D13*
G36*
X126905351Y-72585361D02*
G01*
X126912632Y-72586441D01*
X126919771Y-72588229D01*
X126926701Y-72590709D01*
X126933355Y-72593856D01*
X126939668Y-72597640D01*
X126945579Y-72602024D01*
X126951033Y-72606967D01*
X126955976Y-72612421D01*
X126960360Y-72618332D01*
X126964144Y-72624645D01*
X126967291Y-72631299D01*
X126969771Y-72638229D01*
X126971559Y-72645368D01*
X126972639Y-72652649D01*
X126973000Y-72660000D01*
X126973000Y-72810000D01*
X126972639Y-72817351D01*
X126971559Y-72824632D01*
X126969771Y-72831771D01*
X126967291Y-72838701D01*
X126964144Y-72845355D01*
X126960360Y-72851668D01*
X126955976Y-72857579D01*
X126951033Y-72863033D01*
X126945579Y-72867976D01*
X126939668Y-72872360D01*
X126933355Y-72876144D01*
X126926701Y-72879291D01*
X126919771Y-72881771D01*
X126912632Y-72883559D01*
X126905351Y-72884639D01*
X126898000Y-72885000D01*
X125498000Y-72885000D01*
X125490649Y-72884639D01*
X125483368Y-72883559D01*
X125476229Y-72881771D01*
X125469299Y-72879291D01*
X125462645Y-72876144D01*
X125456332Y-72872360D01*
X125450421Y-72867976D01*
X125444967Y-72863033D01*
X125440024Y-72857579D01*
X125435640Y-72851668D01*
X125431856Y-72845355D01*
X125428709Y-72838701D01*
X125426229Y-72831771D01*
X125424441Y-72824632D01*
X125423361Y-72817351D01*
X125423000Y-72810000D01*
X125423000Y-72660000D01*
X125423361Y-72652649D01*
X125424441Y-72645368D01*
X125426229Y-72638229D01*
X125428709Y-72631299D01*
X125431856Y-72624645D01*
X125435640Y-72618332D01*
X125440024Y-72612421D01*
X125444967Y-72606967D01*
X125450421Y-72602024D01*
X125456332Y-72597640D01*
X125462645Y-72593856D01*
X125469299Y-72590709D01*
X125476229Y-72588229D01*
X125483368Y-72586441D01*
X125490649Y-72585361D01*
X125498000Y-72585000D01*
X126898000Y-72585000D01*
X126905351Y-72585361D01*
X126905351Y-72585361D01*
G37*
D21*
X126198000Y-72735000D03*
D13*
G36*
X126905351Y-73085361D02*
G01*
X126912632Y-73086441D01*
X126919771Y-73088229D01*
X126926701Y-73090709D01*
X126933355Y-73093856D01*
X126939668Y-73097640D01*
X126945579Y-73102024D01*
X126951033Y-73106967D01*
X126955976Y-73112421D01*
X126960360Y-73118332D01*
X126964144Y-73124645D01*
X126967291Y-73131299D01*
X126969771Y-73138229D01*
X126971559Y-73145368D01*
X126972639Y-73152649D01*
X126973000Y-73160000D01*
X126973000Y-73310000D01*
X126972639Y-73317351D01*
X126971559Y-73324632D01*
X126969771Y-73331771D01*
X126967291Y-73338701D01*
X126964144Y-73345355D01*
X126960360Y-73351668D01*
X126955976Y-73357579D01*
X126951033Y-73363033D01*
X126945579Y-73367976D01*
X126939668Y-73372360D01*
X126933355Y-73376144D01*
X126926701Y-73379291D01*
X126919771Y-73381771D01*
X126912632Y-73383559D01*
X126905351Y-73384639D01*
X126898000Y-73385000D01*
X125498000Y-73385000D01*
X125490649Y-73384639D01*
X125483368Y-73383559D01*
X125476229Y-73381771D01*
X125469299Y-73379291D01*
X125462645Y-73376144D01*
X125456332Y-73372360D01*
X125450421Y-73367976D01*
X125444967Y-73363033D01*
X125440024Y-73357579D01*
X125435640Y-73351668D01*
X125431856Y-73345355D01*
X125428709Y-73338701D01*
X125426229Y-73331771D01*
X125424441Y-73324632D01*
X125423361Y-73317351D01*
X125423000Y-73310000D01*
X125423000Y-73160000D01*
X125423361Y-73152649D01*
X125424441Y-73145368D01*
X125426229Y-73138229D01*
X125428709Y-73131299D01*
X125431856Y-73124645D01*
X125435640Y-73118332D01*
X125440024Y-73112421D01*
X125444967Y-73106967D01*
X125450421Y-73102024D01*
X125456332Y-73097640D01*
X125462645Y-73093856D01*
X125469299Y-73090709D01*
X125476229Y-73088229D01*
X125483368Y-73086441D01*
X125490649Y-73085361D01*
X125498000Y-73085000D01*
X126898000Y-73085000D01*
X126905351Y-73085361D01*
X126905351Y-73085361D01*
G37*
D21*
X126198000Y-73235000D03*
D13*
G36*
X126905351Y-73585361D02*
G01*
X126912632Y-73586441D01*
X126919771Y-73588229D01*
X126926701Y-73590709D01*
X126933355Y-73593856D01*
X126939668Y-73597640D01*
X126945579Y-73602024D01*
X126951033Y-73606967D01*
X126955976Y-73612421D01*
X126960360Y-73618332D01*
X126964144Y-73624645D01*
X126967291Y-73631299D01*
X126969771Y-73638229D01*
X126971559Y-73645368D01*
X126972639Y-73652649D01*
X126973000Y-73660000D01*
X126973000Y-73810000D01*
X126972639Y-73817351D01*
X126971559Y-73824632D01*
X126969771Y-73831771D01*
X126967291Y-73838701D01*
X126964144Y-73845355D01*
X126960360Y-73851668D01*
X126955976Y-73857579D01*
X126951033Y-73863033D01*
X126945579Y-73867976D01*
X126939668Y-73872360D01*
X126933355Y-73876144D01*
X126926701Y-73879291D01*
X126919771Y-73881771D01*
X126912632Y-73883559D01*
X126905351Y-73884639D01*
X126898000Y-73885000D01*
X125498000Y-73885000D01*
X125490649Y-73884639D01*
X125483368Y-73883559D01*
X125476229Y-73881771D01*
X125469299Y-73879291D01*
X125462645Y-73876144D01*
X125456332Y-73872360D01*
X125450421Y-73867976D01*
X125444967Y-73863033D01*
X125440024Y-73857579D01*
X125435640Y-73851668D01*
X125431856Y-73845355D01*
X125428709Y-73838701D01*
X125426229Y-73831771D01*
X125424441Y-73824632D01*
X125423361Y-73817351D01*
X125423000Y-73810000D01*
X125423000Y-73660000D01*
X125423361Y-73652649D01*
X125424441Y-73645368D01*
X125426229Y-73638229D01*
X125428709Y-73631299D01*
X125431856Y-73624645D01*
X125435640Y-73618332D01*
X125440024Y-73612421D01*
X125444967Y-73606967D01*
X125450421Y-73602024D01*
X125456332Y-73597640D01*
X125462645Y-73593856D01*
X125469299Y-73590709D01*
X125476229Y-73588229D01*
X125483368Y-73586441D01*
X125490649Y-73585361D01*
X125498000Y-73585000D01*
X126898000Y-73585000D01*
X126905351Y-73585361D01*
X126905351Y-73585361D01*
G37*
D21*
X126198000Y-73735000D03*
D13*
G36*
X126905351Y-74085361D02*
G01*
X126912632Y-74086441D01*
X126919771Y-74088229D01*
X126926701Y-74090709D01*
X126933355Y-74093856D01*
X126939668Y-74097640D01*
X126945579Y-74102024D01*
X126951033Y-74106967D01*
X126955976Y-74112421D01*
X126960360Y-74118332D01*
X126964144Y-74124645D01*
X126967291Y-74131299D01*
X126969771Y-74138229D01*
X126971559Y-74145368D01*
X126972639Y-74152649D01*
X126973000Y-74160000D01*
X126973000Y-74310000D01*
X126972639Y-74317351D01*
X126971559Y-74324632D01*
X126969771Y-74331771D01*
X126967291Y-74338701D01*
X126964144Y-74345355D01*
X126960360Y-74351668D01*
X126955976Y-74357579D01*
X126951033Y-74363033D01*
X126945579Y-74367976D01*
X126939668Y-74372360D01*
X126933355Y-74376144D01*
X126926701Y-74379291D01*
X126919771Y-74381771D01*
X126912632Y-74383559D01*
X126905351Y-74384639D01*
X126898000Y-74385000D01*
X125498000Y-74385000D01*
X125490649Y-74384639D01*
X125483368Y-74383559D01*
X125476229Y-74381771D01*
X125469299Y-74379291D01*
X125462645Y-74376144D01*
X125456332Y-74372360D01*
X125450421Y-74367976D01*
X125444967Y-74363033D01*
X125440024Y-74357579D01*
X125435640Y-74351668D01*
X125431856Y-74345355D01*
X125428709Y-74338701D01*
X125426229Y-74331771D01*
X125424441Y-74324632D01*
X125423361Y-74317351D01*
X125423000Y-74310000D01*
X125423000Y-74160000D01*
X125423361Y-74152649D01*
X125424441Y-74145368D01*
X125426229Y-74138229D01*
X125428709Y-74131299D01*
X125431856Y-74124645D01*
X125435640Y-74118332D01*
X125440024Y-74112421D01*
X125444967Y-74106967D01*
X125450421Y-74102024D01*
X125456332Y-74097640D01*
X125462645Y-74093856D01*
X125469299Y-74090709D01*
X125476229Y-74088229D01*
X125483368Y-74086441D01*
X125490649Y-74085361D01*
X125498000Y-74085000D01*
X126898000Y-74085000D01*
X126905351Y-74085361D01*
X126905351Y-74085361D01*
G37*
D21*
X126198000Y-74235000D03*
D13*
G36*
X124355351Y-75385361D02*
G01*
X124362632Y-75386441D01*
X124369771Y-75388229D01*
X124376701Y-75390709D01*
X124383355Y-75393856D01*
X124389668Y-75397640D01*
X124395579Y-75402024D01*
X124401033Y-75406967D01*
X124405976Y-75412421D01*
X124410360Y-75418332D01*
X124414144Y-75424645D01*
X124417291Y-75431299D01*
X124419771Y-75438229D01*
X124421559Y-75445368D01*
X124422639Y-75452649D01*
X124423000Y-75460000D01*
X124423000Y-76860000D01*
X124422639Y-76867351D01*
X124421559Y-76874632D01*
X124419771Y-76881771D01*
X124417291Y-76888701D01*
X124414144Y-76895355D01*
X124410360Y-76901668D01*
X124405976Y-76907579D01*
X124401033Y-76913033D01*
X124395579Y-76917976D01*
X124389668Y-76922360D01*
X124383355Y-76926144D01*
X124376701Y-76929291D01*
X124369771Y-76931771D01*
X124362632Y-76933559D01*
X124355351Y-76934639D01*
X124348000Y-76935000D01*
X124198000Y-76935000D01*
X124190649Y-76934639D01*
X124183368Y-76933559D01*
X124176229Y-76931771D01*
X124169299Y-76929291D01*
X124162645Y-76926144D01*
X124156332Y-76922360D01*
X124150421Y-76917976D01*
X124144967Y-76913033D01*
X124140024Y-76907579D01*
X124135640Y-76901668D01*
X124131856Y-76895355D01*
X124128709Y-76888701D01*
X124126229Y-76881771D01*
X124124441Y-76874632D01*
X124123361Y-76867351D01*
X124123000Y-76860000D01*
X124123000Y-75460000D01*
X124123361Y-75452649D01*
X124124441Y-75445368D01*
X124126229Y-75438229D01*
X124128709Y-75431299D01*
X124131856Y-75424645D01*
X124135640Y-75418332D01*
X124140024Y-75412421D01*
X124144967Y-75406967D01*
X124150421Y-75402024D01*
X124156332Y-75397640D01*
X124162645Y-75393856D01*
X124169299Y-75390709D01*
X124176229Y-75388229D01*
X124183368Y-75386441D01*
X124190649Y-75385361D01*
X124198000Y-75385000D01*
X124348000Y-75385000D01*
X124355351Y-75385361D01*
X124355351Y-75385361D01*
G37*
D21*
X124273000Y-76160000D03*
D13*
G36*
X123855351Y-75385361D02*
G01*
X123862632Y-75386441D01*
X123869771Y-75388229D01*
X123876701Y-75390709D01*
X123883355Y-75393856D01*
X123889668Y-75397640D01*
X123895579Y-75402024D01*
X123901033Y-75406967D01*
X123905976Y-75412421D01*
X123910360Y-75418332D01*
X123914144Y-75424645D01*
X123917291Y-75431299D01*
X123919771Y-75438229D01*
X123921559Y-75445368D01*
X123922639Y-75452649D01*
X123923000Y-75460000D01*
X123923000Y-76860000D01*
X123922639Y-76867351D01*
X123921559Y-76874632D01*
X123919771Y-76881771D01*
X123917291Y-76888701D01*
X123914144Y-76895355D01*
X123910360Y-76901668D01*
X123905976Y-76907579D01*
X123901033Y-76913033D01*
X123895579Y-76917976D01*
X123889668Y-76922360D01*
X123883355Y-76926144D01*
X123876701Y-76929291D01*
X123869771Y-76931771D01*
X123862632Y-76933559D01*
X123855351Y-76934639D01*
X123848000Y-76935000D01*
X123698000Y-76935000D01*
X123690649Y-76934639D01*
X123683368Y-76933559D01*
X123676229Y-76931771D01*
X123669299Y-76929291D01*
X123662645Y-76926144D01*
X123656332Y-76922360D01*
X123650421Y-76917976D01*
X123644967Y-76913033D01*
X123640024Y-76907579D01*
X123635640Y-76901668D01*
X123631856Y-76895355D01*
X123628709Y-76888701D01*
X123626229Y-76881771D01*
X123624441Y-76874632D01*
X123623361Y-76867351D01*
X123623000Y-76860000D01*
X123623000Y-75460000D01*
X123623361Y-75452649D01*
X123624441Y-75445368D01*
X123626229Y-75438229D01*
X123628709Y-75431299D01*
X123631856Y-75424645D01*
X123635640Y-75418332D01*
X123640024Y-75412421D01*
X123644967Y-75406967D01*
X123650421Y-75402024D01*
X123656332Y-75397640D01*
X123662645Y-75393856D01*
X123669299Y-75390709D01*
X123676229Y-75388229D01*
X123683368Y-75386441D01*
X123690649Y-75385361D01*
X123698000Y-75385000D01*
X123848000Y-75385000D01*
X123855351Y-75385361D01*
X123855351Y-75385361D01*
G37*
D21*
X123773000Y-76160000D03*
D13*
G36*
X123355351Y-75385361D02*
G01*
X123362632Y-75386441D01*
X123369771Y-75388229D01*
X123376701Y-75390709D01*
X123383355Y-75393856D01*
X123389668Y-75397640D01*
X123395579Y-75402024D01*
X123401033Y-75406967D01*
X123405976Y-75412421D01*
X123410360Y-75418332D01*
X123414144Y-75424645D01*
X123417291Y-75431299D01*
X123419771Y-75438229D01*
X123421559Y-75445368D01*
X123422639Y-75452649D01*
X123423000Y-75460000D01*
X123423000Y-76860000D01*
X123422639Y-76867351D01*
X123421559Y-76874632D01*
X123419771Y-76881771D01*
X123417291Y-76888701D01*
X123414144Y-76895355D01*
X123410360Y-76901668D01*
X123405976Y-76907579D01*
X123401033Y-76913033D01*
X123395579Y-76917976D01*
X123389668Y-76922360D01*
X123383355Y-76926144D01*
X123376701Y-76929291D01*
X123369771Y-76931771D01*
X123362632Y-76933559D01*
X123355351Y-76934639D01*
X123348000Y-76935000D01*
X123198000Y-76935000D01*
X123190649Y-76934639D01*
X123183368Y-76933559D01*
X123176229Y-76931771D01*
X123169299Y-76929291D01*
X123162645Y-76926144D01*
X123156332Y-76922360D01*
X123150421Y-76917976D01*
X123144967Y-76913033D01*
X123140024Y-76907579D01*
X123135640Y-76901668D01*
X123131856Y-76895355D01*
X123128709Y-76888701D01*
X123126229Y-76881771D01*
X123124441Y-76874632D01*
X123123361Y-76867351D01*
X123123000Y-76860000D01*
X123123000Y-75460000D01*
X123123361Y-75452649D01*
X123124441Y-75445368D01*
X123126229Y-75438229D01*
X123128709Y-75431299D01*
X123131856Y-75424645D01*
X123135640Y-75418332D01*
X123140024Y-75412421D01*
X123144967Y-75406967D01*
X123150421Y-75402024D01*
X123156332Y-75397640D01*
X123162645Y-75393856D01*
X123169299Y-75390709D01*
X123176229Y-75388229D01*
X123183368Y-75386441D01*
X123190649Y-75385361D01*
X123198000Y-75385000D01*
X123348000Y-75385000D01*
X123355351Y-75385361D01*
X123355351Y-75385361D01*
G37*
D21*
X123273000Y-76160000D03*
D13*
G36*
X122855351Y-75385361D02*
G01*
X122862632Y-75386441D01*
X122869771Y-75388229D01*
X122876701Y-75390709D01*
X122883355Y-75393856D01*
X122889668Y-75397640D01*
X122895579Y-75402024D01*
X122901033Y-75406967D01*
X122905976Y-75412421D01*
X122910360Y-75418332D01*
X122914144Y-75424645D01*
X122917291Y-75431299D01*
X122919771Y-75438229D01*
X122921559Y-75445368D01*
X122922639Y-75452649D01*
X122923000Y-75460000D01*
X122923000Y-76860000D01*
X122922639Y-76867351D01*
X122921559Y-76874632D01*
X122919771Y-76881771D01*
X122917291Y-76888701D01*
X122914144Y-76895355D01*
X122910360Y-76901668D01*
X122905976Y-76907579D01*
X122901033Y-76913033D01*
X122895579Y-76917976D01*
X122889668Y-76922360D01*
X122883355Y-76926144D01*
X122876701Y-76929291D01*
X122869771Y-76931771D01*
X122862632Y-76933559D01*
X122855351Y-76934639D01*
X122848000Y-76935000D01*
X122698000Y-76935000D01*
X122690649Y-76934639D01*
X122683368Y-76933559D01*
X122676229Y-76931771D01*
X122669299Y-76929291D01*
X122662645Y-76926144D01*
X122656332Y-76922360D01*
X122650421Y-76917976D01*
X122644967Y-76913033D01*
X122640024Y-76907579D01*
X122635640Y-76901668D01*
X122631856Y-76895355D01*
X122628709Y-76888701D01*
X122626229Y-76881771D01*
X122624441Y-76874632D01*
X122623361Y-76867351D01*
X122623000Y-76860000D01*
X122623000Y-75460000D01*
X122623361Y-75452649D01*
X122624441Y-75445368D01*
X122626229Y-75438229D01*
X122628709Y-75431299D01*
X122631856Y-75424645D01*
X122635640Y-75418332D01*
X122640024Y-75412421D01*
X122644967Y-75406967D01*
X122650421Y-75402024D01*
X122656332Y-75397640D01*
X122662645Y-75393856D01*
X122669299Y-75390709D01*
X122676229Y-75388229D01*
X122683368Y-75386441D01*
X122690649Y-75385361D01*
X122698000Y-75385000D01*
X122848000Y-75385000D01*
X122855351Y-75385361D01*
X122855351Y-75385361D01*
G37*
D21*
X122773000Y-76160000D03*
D13*
G36*
X122355351Y-75385361D02*
G01*
X122362632Y-75386441D01*
X122369771Y-75388229D01*
X122376701Y-75390709D01*
X122383355Y-75393856D01*
X122389668Y-75397640D01*
X122395579Y-75402024D01*
X122401033Y-75406967D01*
X122405976Y-75412421D01*
X122410360Y-75418332D01*
X122414144Y-75424645D01*
X122417291Y-75431299D01*
X122419771Y-75438229D01*
X122421559Y-75445368D01*
X122422639Y-75452649D01*
X122423000Y-75460000D01*
X122423000Y-76860000D01*
X122422639Y-76867351D01*
X122421559Y-76874632D01*
X122419771Y-76881771D01*
X122417291Y-76888701D01*
X122414144Y-76895355D01*
X122410360Y-76901668D01*
X122405976Y-76907579D01*
X122401033Y-76913033D01*
X122395579Y-76917976D01*
X122389668Y-76922360D01*
X122383355Y-76926144D01*
X122376701Y-76929291D01*
X122369771Y-76931771D01*
X122362632Y-76933559D01*
X122355351Y-76934639D01*
X122348000Y-76935000D01*
X122198000Y-76935000D01*
X122190649Y-76934639D01*
X122183368Y-76933559D01*
X122176229Y-76931771D01*
X122169299Y-76929291D01*
X122162645Y-76926144D01*
X122156332Y-76922360D01*
X122150421Y-76917976D01*
X122144967Y-76913033D01*
X122140024Y-76907579D01*
X122135640Y-76901668D01*
X122131856Y-76895355D01*
X122128709Y-76888701D01*
X122126229Y-76881771D01*
X122124441Y-76874632D01*
X122123361Y-76867351D01*
X122123000Y-76860000D01*
X122123000Y-75460000D01*
X122123361Y-75452649D01*
X122124441Y-75445368D01*
X122126229Y-75438229D01*
X122128709Y-75431299D01*
X122131856Y-75424645D01*
X122135640Y-75418332D01*
X122140024Y-75412421D01*
X122144967Y-75406967D01*
X122150421Y-75402024D01*
X122156332Y-75397640D01*
X122162645Y-75393856D01*
X122169299Y-75390709D01*
X122176229Y-75388229D01*
X122183368Y-75386441D01*
X122190649Y-75385361D01*
X122198000Y-75385000D01*
X122348000Y-75385000D01*
X122355351Y-75385361D01*
X122355351Y-75385361D01*
G37*
D21*
X122273000Y-76160000D03*
D13*
G36*
X121855351Y-75385361D02*
G01*
X121862632Y-75386441D01*
X121869771Y-75388229D01*
X121876701Y-75390709D01*
X121883355Y-75393856D01*
X121889668Y-75397640D01*
X121895579Y-75402024D01*
X121901033Y-75406967D01*
X121905976Y-75412421D01*
X121910360Y-75418332D01*
X121914144Y-75424645D01*
X121917291Y-75431299D01*
X121919771Y-75438229D01*
X121921559Y-75445368D01*
X121922639Y-75452649D01*
X121923000Y-75460000D01*
X121923000Y-76860000D01*
X121922639Y-76867351D01*
X121921559Y-76874632D01*
X121919771Y-76881771D01*
X121917291Y-76888701D01*
X121914144Y-76895355D01*
X121910360Y-76901668D01*
X121905976Y-76907579D01*
X121901033Y-76913033D01*
X121895579Y-76917976D01*
X121889668Y-76922360D01*
X121883355Y-76926144D01*
X121876701Y-76929291D01*
X121869771Y-76931771D01*
X121862632Y-76933559D01*
X121855351Y-76934639D01*
X121848000Y-76935000D01*
X121698000Y-76935000D01*
X121690649Y-76934639D01*
X121683368Y-76933559D01*
X121676229Y-76931771D01*
X121669299Y-76929291D01*
X121662645Y-76926144D01*
X121656332Y-76922360D01*
X121650421Y-76917976D01*
X121644967Y-76913033D01*
X121640024Y-76907579D01*
X121635640Y-76901668D01*
X121631856Y-76895355D01*
X121628709Y-76888701D01*
X121626229Y-76881771D01*
X121624441Y-76874632D01*
X121623361Y-76867351D01*
X121623000Y-76860000D01*
X121623000Y-75460000D01*
X121623361Y-75452649D01*
X121624441Y-75445368D01*
X121626229Y-75438229D01*
X121628709Y-75431299D01*
X121631856Y-75424645D01*
X121635640Y-75418332D01*
X121640024Y-75412421D01*
X121644967Y-75406967D01*
X121650421Y-75402024D01*
X121656332Y-75397640D01*
X121662645Y-75393856D01*
X121669299Y-75390709D01*
X121676229Y-75388229D01*
X121683368Y-75386441D01*
X121690649Y-75385361D01*
X121698000Y-75385000D01*
X121848000Y-75385000D01*
X121855351Y-75385361D01*
X121855351Y-75385361D01*
G37*
D21*
X121773000Y-76160000D03*
D13*
G36*
X121355351Y-75385361D02*
G01*
X121362632Y-75386441D01*
X121369771Y-75388229D01*
X121376701Y-75390709D01*
X121383355Y-75393856D01*
X121389668Y-75397640D01*
X121395579Y-75402024D01*
X121401033Y-75406967D01*
X121405976Y-75412421D01*
X121410360Y-75418332D01*
X121414144Y-75424645D01*
X121417291Y-75431299D01*
X121419771Y-75438229D01*
X121421559Y-75445368D01*
X121422639Y-75452649D01*
X121423000Y-75460000D01*
X121423000Y-76860000D01*
X121422639Y-76867351D01*
X121421559Y-76874632D01*
X121419771Y-76881771D01*
X121417291Y-76888701D01*
X121414144Y-76895355D01*
X121410360Y-76901668D01*
X121405976Y-76907579D01*
X121401033Y-76913033D01*
X121395579Y-76917976D01*
X121389668Y-76922360D01*
X121383355Y-76926144D01*
X121376701Y-76929291D01*
X121369771Y-76931771D01*
X121362632Y-76933559D01*
X121355351Y-76934639D01*
X121348000Y-76935000D01*
X121198000Y-76935000D01*
X121190649Y-76934639D01*
X121183368Y-76933559D01*
X121176229Y-76931771D01*
X121169299Y-76929291D01*
X121162645Y-76926144D01*
X121156332Y-76922360D01*
X121150421Y-76917976D01*
X121144967Y-76913033D01*
X121140024Y-76907579D01*
X121135640Y-76901668D01*
X121131856Y-76895355D01*
X121128709Y-76888701D01*
X121126229Y-76881771D01*
X121124441Y-76874632D01*
X121123361Y-76867351D01*
X121123000Y-76860000D01*
X121123000Y-75460000D01*
X121123361Y-75452649D01*
X121124441Y-75445368D01*
X121126229Y-75438229D01*
X121128709Y-75431299D01*
X121131856Y-75424645D01*
X121135640Y-75418332D01*
X121140024Y-75412421D01*
X121144967Y-75406967D01*
X121150421Y-75402024D01*
X121156332Y-75397640D01*
X121162645Y-75393856D01*
X121169299Y-75390709D01*
X121176229Y-75388229D01*
X121183368Y-75386441D01*
X121190649Y-75385361D01*
X121198000Y-75385000D01*
X121348000Y-75385000D01*
X121355351Y-75385361D01*
X121355351Y-75385361D01*
G37*
D21*
X121273000Y-76160000D03*
D13*
G36*
X120855351Y-75385361D02*
G01*
X120862632Y-75386441D01*
X120869771Y-75388229D01*
X120876701Y-75390709D01*
X120883355Y-75393856D01*
X120889668Y-75397640D01*
X120895579Y-75402024D01*
X120901033Y-75406967D01*
X120905976Y-75412421D01*
X120910360Y-75418332D01*
X120914144Y-75424645D01*
X120917291Y-75431299D01*
X120919771Y-75438229D01*
X120921559Y-75445368D01*
X120922639Y-75452649D01*
X120923000Y-75460000D01*
X120923000Y-76860000D01*
X120922639Y-76867351D01*
X120921559Y-76874632D01*
X120919771Y-76881771D01*
X120917291Y-76888701D01*
X120914144Y-76895355D01*
X120910360Y-76901668D01*
X120905976Y-76907579D01*
X120901033Y-76913033D01*
X120895579Y-76917976D01*
X120889668Y-76922360D01*
X120883355Y-76926144D01*
X120876701Y-76929291D01*
X120869771Y-76931771D01*
X120862632Y-76933559D01*
X120855351Y-76934639D01*
X120848000Y-76935000D01*
X120698000Y-76935000D01*
X120690649Y-76934639D01*
X120683368Y-76933559D01*
X120676229Y-76931771D01*
X120669299Y-76929291D01*
X120662645Y-76926144D01*
X120656332Y-76922360D01*
X120650421Y-76917976D01*
X120644967Y-76913033D01*
X120640024Y-76907579D01*
X120635640Y-76901668D01*
X120631856Y-76895355D01*
X120628709Y-76888701D01*
X120626229Y-76881771D01*
X120624441Y-76874632D01*
X120623361Y-76867351D01*
X120623000Y-76860000D01*
X120623000Y-75460000D01*
X120623361Y-75452649D01*
X120624441Y-75445368D01*
X120626229Y-75438229D01*
X120628709Y-75431299D01*
X120631856Y-75424645D01*
X120635640Y-75418332D01*
X120640024Y-75412421D01*
X120644967Y-75406967D01*
X120650421Y-75402024D01*
X120656332Y-75397640D01*
X120662645Y-75393856D01*
X120669299Y-75390709D01*
X120676229Y-75388229D01*
X120683368Y-75386441D01*
X120690649Y-75385361D01*
X120698000Y-75385000D01*
X120848000Y-75385000D01*
X120855351Y-75385361D01*
X120855351Y-75385361D01*
G37*
D21*
X120773000Y-76160000D03*
D13*
G36*
X120355351Y-75385361D02*
G01*
X120362632Y-75386441D01*
X120369771Y-75388229D01*
X120376701Y-75390709D01*
X120383355Y-75393856D01*
X120389668Y-75397640D01*
X120395579Y-75402024D01*
X120401033Y-75406967D01*
X120405976Y-75412421D01*
X120410360Y-75418332D01*
X120414144Y-75424645D01*
X120417291Y-75431299D01*
X120419771Y-75438229D01*
X120421559Y-75445368D01*
X120422639Y-75452649D01*
X120423000Y-75460000D01*
X120423000Y-76860000D01*
X120422639Y-76867351D01*
X120421559Y-76874632D01*
X120419771Y-76881771D01*
X120417291Y-76888701D01*
X120414144Y-76895355D01*
X120410360Y-76901668D01*
X120405976Y-76907579D01*
X120401033Y-76913033D01*
X120395579Y-76917976D01*
X120389668Y-76922360D01*
X120383355Y-76926144D01*
X120376701Y-76929291D01*
X120369771Y-76931771D01*
X120362632Y-76933559D01*
X120355351Y-76934639D01*
X120348000Y-76935000D01*
X120198000Y-76935000D01*
X120190649Y-76934639D01*
X120183368Y-76933559D01*
X120176229Y-76931771D01*
X120169299Y-76929291D01*
X120162645Y-76926144D01*
X120156332Y-76922360D01*
X120150421Y-76917976D01*
X120144967Y-76913033D01*
X120140024Y-76907579D01*
X120135640Y-76901668D01*
X120131856Y-76895355D01*
X120128709Y-76888701D01*
X120126229Y-76881771D01*
X120124441Y-76874632D01*
X120123361Y-76867351D01*
X120123000Y-76860000D01*
X120123000Y-75460000D01*
X120123361Y-75452649D01*
X120124441Y-75445368D01*
X120126229Y-75438229D01*
X120128709Y-75431299D01*
X120131856Y-75424645D01*
X120135640Y-75418332D01*
X120140024Y-75412421D01*
X120144967Y-75406967D01*
X120150421Y-75402024D01*
X120156332Y-75397640D01*
X120162645Y-75393856D01*
X120169299Y-75390709D01*
X120176229Y-75388229D01*
X120183368Y-75386441D01*
X120190649Y-75385361D01*
X120198000Y-75385000D01*
X120348000Y-75385000D01*
X120355351Y-75385361D01*
X120355351Y-75385361D01*
G37*
D21*
X120273000Y-76160000D03*
D13*
G36*
X119855351Y-75385361D02*
G01*
X119862632Y-75386441D01*
X119869771Y-75388229D01*
X119876701Y-75390709D01*
X119883355Y-75393856D01*
X119889668Y-75397640D01*
X119895579Y-75402024D01*
X119901033Y-75406967D01*
X119905976Y-75412421D01*
X119910360Y-75418332D01*
X119914144Y-75424645D01*
X119917291Y-75431299D01*
X119919771Y-75438229D01*
X119921559Y-75445368D01*
X119922639Y-75452649D01*
X119923000Y-75460000D01*
X119923000Y-76860000D01*
X119922639Y-76867351D01*
X119921559Y-76874632D01*
X119919771Y-76881771D01*
X119917291Y-76888701D01*
X119914144Y-76895355D01*
X119910360Y-76901668D01*
X119905976Y-76907579D01*
X119901033Y-76913033D01*
X119895579Y-76917976D01*
X119889668Y-76922360D01*
X119883355Y-76926144D01*
X119876701Y-76929291D01*
X119869771Y-76931771D01*
X119862632Y-76933559D01*
X119855351Y-76934639D01*
X119848000Y-76935000D01*
X119698000Y-76935000D01*
X119690649Y-76934639D01*
X119683368Y-76933559D01*
X119676229Y-76931771D01*
X119669299Y-76929291D01*
X119662645Y-76926144D01*
X119656332Y-76922360D01*
X119650421Y-76917976D01*
X119644967Y-76913033D01*
X119640024Y-76907579D01*
X119635640Y-76901668D01*
X119631856Y-76895355D01*
X119628709Y-76888701D01*
X119626229Y-76881771D01*
X119624441Y-76874632D01*
X119623361Y-76867351D01*
X119623000Y-76860000D01*
X119623000Y-75460000D01*
X119623361Y-75452649D01*
X119624441Y-75445368D01*
X119626229Y-75438229D01*
X119628709Y-75431299D01*
X119631856Y-75424645D01*
X119635640Y-75418332D01*
X119640024Y-75412421D01*
X119644967Y-75406967D01*
X119650421Y-75402024D01*
X119656332Y-75397640D01*
X119662645Y-75393856D01*
X119669299Y-75390709D01*
X119676229Y-75388229D01*
X119683368Y-75386441D01*
X119690649Y-75385361D01*
X119698000Y-75385000D01*
X119848000Y-75385000D01*
X119855351Y-75385361D01*
X119855351Y-75385361D01*
G37*
D21*
X119773000Y-76160000D03*
D13*
G36*
X119355351Y-75385361D02*
G01*
X119362632Y-75386441D01*
X119369771Y-75388229D01*
X119376701Y-75390709D01*
X119383355Y-75393856D01*
X119389668Y-75397640D01*
X119395579Y-75402024D01*
X119401033Y-75406967D01*
X119405976Y-75412421D01*
X119410360Y-75418332D01*
X119414144Y-75424645D01*
X119417291Y-75431299D01*
X119419771Y-75438229D01*
X119421559Y-75445368D01*
X119422639Y-75452649D01*
X119423000Y-75460000D01*
X119423000Y-76860000D01*
X119422639Y-76867351D01*
X119421559Y-76874632D01*
X119419771Y-76881771D01*
X119417291Y-76888701D01*
X119414144Y-76895355D01*
X119410360Y-76901668D01*
X119405976Y-76907579D01*
X119401033Y-76913033D01*
X119395579Y-76917976D01*
X119389668Y-76922360D01*
X119383355Y-76926144D01*
X119376701Y-76929291D01*
X119369771Y-76931771D01*
X119362632Y-76933559D01*
X119355351Y-76934639D01*
X119348000Y-76935000D01*
X119198000Y-76935000D01*
X119190649Y-76934639D01*
X119183368Y-76933559D01*
X119176229Y-76931771D01*
X119169299Y-76929291D01*
X119162645Y-76926144D01*
X119156332Y-76922360D01*
X119150421Y-76917976D01*
X119144967Y-76913033D01*
X119140024Y-76907579D01*
X119135640Y-76901668D01*
X119131856Y-76895355D01*
X119128709Y-76888701D01*
X119126229Y-76881771D01*
X119124441Y-76874632D01*
X119123361Y-76867351D01*
X119123000Y-76860000D01*
X119123000Y-75460000D01*
X119123361Y-75452649D01*
X119124441Y-75445368D01*
X119126229Y-75438229D01*
X119128709Y-75431299D01*
X119131856Y-75424645D01*
X119135640Y-75418332D01*
X119140024Y-75412421D01*
X119144967Y-75406967D01*
X119150421Y-75402024D01*
X119156332Y-75397640D01*
X119162645Y-75393856D01*
X119169299Y-75390709D01*
X119176229Y-75388229D01*
X119183368Y-75386441D01*
X119190649Y-75385361D01*
X119198000Y-75385000D01*
X119348000Y-75385000D01*
X119355351Y-75385361D01*
X119355351Y-75385361D01*
G37*
D21*
X119273000Y-76160000D03*
D13*
G36*
X118855351Y-75385361D02*
G01*
X118862632Y-75386441D01*
X118869771Y-75388229D01*
X118876701Y-75390709D01*
X118883355Y-75393856D01*
X118889668Y-75397640D01*
X118895579Y-75402024D01*
X118901033Y-75406967D01*
X118905976Y-75412421D01*
X118910360Y-75418332D01*
X118914144Y-75424645D01*
X118917291Y-75431299D01*
X118919771Y-75438229D01*
X118921559Y-75445368D01*
X118922639Y-75452649D01*
X118923000Y-75460000D01*
X118923000Y-76860000D01*
X118922639Y-76867351D01*
X118921559Y-76874632D01*
X118919771Y-76881771D01*
X118917291Y-76888701D01*
X118914144Y-76895355D01*
X118910360Y-76901668D01*
X118905976Y-76907579D01*
X118901033Y-76913033D01*
X118895579Y-76917976D01*
X118889668Y-76922360D01*
X118883355Y-76926144D01*
X118876701Y-76929291D01*
X118869771Y-76931771D01*
X118862632Y-76933559D01*
X118855351Y-76934639D01*
X118848000Y-76935000D01*
X118698000Y-76935000D01*
X118690649Y-76934639D01*
X118683368Y-76933559D01*
X118676229Y-76931771D01*
X118669299Y-76929291D01*
X118662645Y-76926144D01*
X118656332Y-76922360D01*
X118650421Y-76917976D01*
X118644967Y-76913033D01*
X118640024Y-76907579D01*
X118635640Y-76901668D01*
X118631856Y-76895355D01*
X118628709Y-76888701D01*
X118626229Y-76881771D01*
X118624441Y-76874632D01*
X118623361Y-76867351D01*
X118623000Y-76860000D01*
X118623000Y-75460000D01*
X118623361Y-75452649D01*
X118624441Y-75445368D01*
X118626229Y-75438229D01*
X118628709Y-75431299D01*
X118631856Y-75424645D01*
X118635640Y-75418332D01*
X118640024Y-75412421D01*
X118644967Y-75406967D01*
X118650421Y-75402024D01*
X118656332Y-75397640D01*
X118662645Y-75393856D01*
X118669299Y-75390709D01*
X118676229Y-75388229D01*
X118683368Y-75386441D01*
X118690649Y-75385361D01*
X118698000Y-75385000D01*
X118848000Y-75385000D01*
X118855351Y-75385361D01*
X118855351Y-75385361D01*
G37*
D21*
X118773000Y-76160000D03*
D13*
G36*
X118355351Y-75385361D02*
G01*
X118362632Y-75386441D01*
X118369771Y-75388229D01*
X118376701Y-75390709D01*
X118383355Y-75393856D01*
X118389668Y-75397640D01*
X118395579Y-75402024D01*
X118401033Y-75406967D01*
X118405976Y-75412421D01*
X118410360Y-75418332D01*
X118414144Y-75424645D01*
X118417291Y-75431299D01*
X118419771Y-75438229D01*
X118421559Y-75445368D01*
X118422639Y-75452649D01*
X118423000Y-75460000D01*
X118423000Y-76860000D01*
X118422639Y-76867351D01*
X118421559Y-76874632D01*
X118419771Y-76881771D01*
X118417291Y-76888701D01*
X118414144Y-76895355D01*
X118410360Y-76901668D01*
X118405976Y-76907579D01*
X118401033Y-76913033D01*
X118395579Y-76917976D01*
X118389668Y-76922360D01*
X118383355Y-76926144D01*
X118376701Y-76929291D01*
X118369771Y-76931771D01*
X118362632Y-76933559D01*
X118355351Y-76934639D01*
X118348000Y-76935000D01*
X118198000Y-76935000D01*
X118190649Y-76934639D01*
X118183368Y-76933559D01*
X118176229Y-76931771D01*
X118169299Y-76929291D01*
X118162645Y-76926144D01*
X118156332Y-76922360D01*
X118150421Y-76917976D01*
X118144967Y-76913033D01*
X118140024Y-76907579D01*
X118135640Y-76901668D01*
X118131856Y-76895355D01*
X118128709Y-76888701D01*
X118126229Y-76881771D01*
X118124441Y-76874632D01*
X118123361Y-76867351D01*
X118123000Y-76860000D01*
X118123000Y-75460000D01*
X118123361Y-75452649D01*
X118124441Y-75445368D01*
X118126229Y-75438229D01*
X118128709Y-75431299D01*
X118131856Y-75424645D01*
X118135640Y-75418332D01*
X118140024Y-75412421D01*
X118144967Y-75406967D01*
X118150421Y-75402024D01*
X118156332Y-75397640D01*
X118162645Y-75393856D01*
X118169299Y-75390709D01*
X118176229Y-75388229D01*
X118183368Y-75386441D01*
X118190649Y-75385361D01*
X118198000Y-75385000D01*
X118348000Y-75385000D01*
X118355351Y-75385361D01*
X118355351Y-75385361D01*
G37*
D21*
X118273000Y-76160000D03*
D13*
G36*
X117855351Y-75385361D02*
G01*
X117862632Y-75386441D01*
X117869771Y-75388229D01*
X117876701Y-75390709D01*
X117883355Y-75393856D01*
X117889668Y-75397640D01*
X117895579Y-75402024D01*
X117901033Y-75406967D01*
X117905976Y-75412421D01*
X117910360Y-75418332D01*
X117914144Y-75424645D01*
X117917291Y-75431299D01*
X117919771Y-75438229D01*
X117921559Y-75445368D01*
X117922639Y-75452649D01*
X117923000Y-75460000D01*
X117923000Y-76860000D01*
X117922639Y-76867351D01*
X117921559Y-76874632D01*
X117919771Y-76881771D01*
X117917291Y-76888701D01*
X117914144Y-76895355D01*
X117910360Y-76901668D01*
X117905976Y-76907579D01*
X117901033Y-76913033D01*
X117895579Y-76917976D01*
X117889668Y-76922360D01*
X117883355Y-76926144D01*
X117876701Y-76929291D01*
X117869771Y-76931771D01*
X117862632Y-76933559D01*
X117855351Y-76934639D01*
X117848000Y-76935000D01*
X117698000Y-76935000D01*
X117690649Y-76934639D01*
X117683368Y-76933559D01*
X117676229Y-76931771D01*
X117669299Y-76929291D01*
X117662645Y-76926144D01*
X117656332Y-76922360D01*
X117650421Y-76917976D01*
X117644967Y-76913033D01*
X117640024Y-76907579D01*
X117635640Y-76901668D01*
X117631856Y-76895355D01*
X117628709Y-76888701D01*
X117626229Y-76881771D01*
X117624441Y-76874632D01*
X117623361Y-76867351D01*
X117623000Y-76860000D01*
X117623000Y-75460000D01*
X117623361Y-75452649D01*
X117624441Y-75445368D01*
X117626229Y-75438229D01*
X117628709Y-75431299D01*
X117631856Y-75424645D01*
X117635640Y-75418332D01*
X117640024Y-75412421D01*
X117644967Y-75406967D01*
X117650421Y-75402024D01*
X117656332Y-75397640D01*
X117662645Y-75393856D01*
X117669299Y-75390709D01*
X117676229Y-75388229D01*
X117683368Y-75386441D01*
X117690649Y-75385361D01*
X117698000Y-75385000D01*
X117848000Y-75385000D01*
X117855351Y-75385361D01*
X117855351Y-75385361D01*
G37*
D21*
X117773000Y-76160000D03*
D13*
G36*
X117355351Y-75385361D02*
G01*
X117362632Y-75386441D01*
X117369771Y-75388229D01*
X117376701Y-75390709D01*
X117383355Y-75393856D01*
X117389668Y-75397640D01*
X117395579Y-75402024D01*
X117401033Y-75406967D01*
X117405976Y-75412421D01*
X117410360Y-75418332D01*
X117414144Y-75424645D01*
X117417291Y-75431299D01*
X117419771Y-75438229D01*
X117421559Y-75445368D01*
X117422639Y-75452649D01*
X117423000Y-75460000D01*
X117423000Y-76860000D01*
X117422639Y-76867351D01*
X117421559Y-76874632D01*
X117419771Y-76881771D01*
X117417291Y-76888701D01*
X117414144Y-76895355D01*
X117410360Y-76901668D01*
X117405976Y-76907579D01*
X117401033Y-76913033D01*
X117395579Y-76917976D01*
X117389668Y-76922360D01*
X117383355Y-76926144D01*
X117376701Y-76929291D01*
X117369771Y-76931771D01*
X117362632Y-76933559D01*
X117355351Y-76934639D01*
X117348000Y-76935000D01*
X117198000Y-76935000D01*
X117190649Y-76934639D01*
X117183368Y-76933559D01*
X117176229Y-76931771D01*
X117169299Y-76929291D01*
X117162645Y-76926144D01*
X117156332Y-76922360D01*
X117150421Y-76917976D01*
X117144967Y-76913033D01*
X117140024Y-76907579D01*
X117135640Y-76901668D01*
X117131856Y-76895355D01*
X117128709Y-76888701D01*
X117126229Y-76881771D01*
X117124441Y-76874632D01*
X117123361Y-76867351D01*
X117123000Y-76860000D01*
X117123000Y-75460000D01*
X117123361Y-75452649D01*
X117124441Y-75445368D01*
X117126229Y-75438229D01*
X117128709Y-75431299D01*
X117131856Y-75424645D01*
X117135640Y-75418332D01*
X117140024Y-75412421D01*
X117144967Y-75406967D01*
X117150421Y-75402024D01*
X117156332Y-75397640D01*
X117162645Y-75393856D01*
X117169299Y-75390709D01*
X117176229Y-75388229D01*
X117183368Y-75386441D01*
X117190649Y-75385361D01*
X117198000Y-75385000D01*
X117348000Y-75385000D01*
X117355351Y-75385361D01*
X117355351Y-75385361D01*
G37*
D21*
X117273000Y-76160000D03*
D13*
G36*
X116855351Y-75385361D02*
G01*
X116862632Y-75386441D01*
X116869771Y-75388229D01*
X116876701Y-75390709D01*
X116883355Y-75393856D01*
X116889668Y-75397640D01*
X116895579Y-75402024D01*
X116901033Y-75406967D01*
X116905976Y-75412421D01*
X116910360Y-75418332D01*
X116914144Y-75424645D01*
X116917291Y-75431299D01*
X116919771Y-75438229D01*
X116921559Y-75445368D01*
X116922639Y-75452649D01*
X116923000Y-75460000D01*
X116923000Y-76860000D01*
X116922639Y-76867351D01*
X116921559Y-76874632D01*
X116919771Y-76881771D01*
X116917291Y-76888701D01*
X116914144Y-76895355D01*
X116910360Y-76901668D01*
X116905976Y-76907579D01*
X116901033Y-76913033D01*
X116895579Y-76917976D01*
X116889668Y-76922360D01*
X116883355Y-76926144D01*
X116876701Y-76929291D01*
X116869771Y-76931771D01*
X116862632Y-76933559D01*
X116855351Y-76934639D01*
X116848000Y-76935000D01*
X116698000Y-76935000D01*
X116690649Y-76934639D01*
X116683368Y-76933559D01*
X116676229Y-76931771D01*
X116669299Y-76929291D01*
X116662645Y-76926144D01*
X116656332Y-76922360D01*
X116650421Y-76917976D01*
X116644967Y-76913033D01*
X116640024Y-76907579D01*
X116635640Y-76901668D01*
X116631856Y-76895355D01*
X116628709Y-76888701D01*
X116626229Y-76881771D01*
X116624441Y-76874632D01*
X116623361Y-76867351D01*
X116623000Y-76860000D01*
X116623000Y-75460000D01*
X116623361Y-75452649D01*
X116624441Y-75445368D01*
X116626229Y-75438229D01*
X116628709Y-75431299D01*
X116631856Y-75424645D01*
X116635640Y-75418332D01*
X116640024Y-75412421D01*
X116644967Y-75406967D01*
X116650421Y-75402024D01*
X116656332Y-75397640D01*
X116662645Y-75393856D01*
X116669299Y-75390709D01*
X116676229Y-75388229D01*
X116683368Y-75386441D01*
X116690649Y-75385361D01*
X116698000Y-75385000D01*
X116848000Y-75385000D01*
X116855351Y-75385361D01*
X116855351Y-75385361D01*
G37*
D21*
X116773000Y-76160000D03*
D13*
G36*
X115555351Y-74085361D02*
G01*
X115562632Y-74086441D01*
X115569771Y-74088229D01*
X115576701Y-74090709D01*
X115583355Y-74093856D01*
X115589668Y-74097640D01*
X115595579Y-74102024D01*
X115601033Y-74106967D01*
X115605976Y-74112421D01*
X115610360Y-74118332D01*
X115614144Y-74124645D01*
X115617291Y-74131299D01*
X115619771Y-74138229D01*
X115621559Y-74145368D01*
X115622639Y-74152649D01*
X115623000Y-74160000D01*
X115623000Y-74310000D01*
X115622639Y-74317351D01*
X115621559Y-74324632D01*
X115619771Y-74331771D01*
X115617291Y-74338701D01*
X115614144Y-74345355D01*
X115610360Y-74351668D01*
X115605976Y-74357579D01*
X115601033Y-74363033D01*
X115595579Y-74367976D01*
X115589668Y-74372360D01*
X115583355Y-74376144D01*
X115576701Y-74379291D01*
X115569771Y-74381771D01*
X115562632Y-74383559D01*
X115555351Y-74384639D01*
X115548000Y-74385000D01*
X114148000Y-74385000D01*
X114140649Y-74384639D01*
X114133368Y-74383559D01*
X114126229Y-74381771D01*
X114119299Y-74379291D01*
X114112645Y-74376144D01*
X114106332Y-74372360D01*
X114100421Y-74367976D01*
X114094967Y-74363033D01*
X114090024Y-74357579D01*
X114085640Y-74351668D01*
X114081856Y-74345355D01*
X114078709Y-74338701D01*
X114076229Y-74331771D01*
X114074441Y-74324632D01*
X114073361Y-74317351D01*
X114073000Y-74310000D01*
X114073000Y-74160000D01*
X114073361Y-74152649D01*
X114074441Y-74145368D01*
X114076229Y-74138229D01*
X114078709Y-74131299D01*
X114081856Y-74124645D01*
X114085640Y-74118332D01*
X114090024Y-74112421D01*
X114094967Y-74106967D01*
X114100421Y-74102024D01*
X114106332Y-74097640D01*
X114112645Y-74093856D01*
X114119299Y-74090709D01*
X114126229Y-74088229D01*
X114133368Y-74086441D01*
X114140649Y-74085361D01*
X114148000Y-74085000D01*
X115548000Y-74085000D01*
X115555351Y-74085361D01*
X115555351Y-74085361D01*
G37*
D21*
X114848000Y-74235000D03*
D13*
G36*
X115555351Y-73585361D02*
G01*
X115562632Y-73586441D01*
X115569771Y-73588229D01*
X115576701Y-73590709D01*
X115583355Y-73593856D01*
X115589668Y-73597640D01*
X115595579Y-73602024D01*
X115601033Y-73606967D01*
X115605976Y-73612421D01*
X115610360Y-73618332D01*
X115614144Y-73624645D01*
X115617291Y-73631299D01*
X115619771Y-73638229D01*
X115621559Y-73645368D01*
X115622639Y-73652649D01*
X115623000Y-73660000D01*
X115623000Y-73810000D01*
X115622639Y-73817351D01*
X115621559Y-73824632D01*
X115619771Y-73831771D01*
X115617291Y-73838701D01*
X115614144Y-73845355D01*
X115610360Y-73851668D01*
X115605976Y-73857579D01*
X115601033Y-73863033D01*
X115595579Y-73867976D01*
X115589668Y-73872360D01*
X115583355Y-73876144D01*
X115576701Y-73879291D01*
X115569771Y-73881771D01*
X115562632Y-73883559D01*
X115555351Y-73884639D01*
X115548000Y-73885000D01*
X114148000Y-73885000D01*
X114140649Y-73884639D01*
X114133368Y-73883559D01*
X114126229Y-73881771D01*
X114119299Y-73879291D01*
X114112645Y-73876144D01*
X114106332Y-73872360D01*
X114100421Y-73867976D01*
X114094967Y-73863033D01*
X114090024Y-73857579D01*
X114085640Y-73851668D01*
X114081856Y-73845355D01*
X114078709Y-73838701D01*
X114076229Y-73831771D01*
X114074441Y-73824632D01*
X114073361Y-73817351D01*
X114073000Y-73810000D01*
X114073000Y-73660000D01*
X114073361Y-73652649D01*
X114074441Y-73645368D01*
X114076229Y-73638229D01*
X114078709Y-73631299D01*
X114081856Y-73624645D01*
X114085640Y-73618332D01*
X114090024Y-73612421D01*
X114094967Y-73606967D01*
X114100421Y-73602024D01*
X114106332Y-73597640D01*
X114112645Y-73593856D01*
X114119299Y-73590709D01*
X114126229Y-73588229D01*
X114133368Y-73586441D01*
X114140649Y-73585361D01*
X114148000Y-73585000D01*
X115548000Y-73585000D01*
X115555351Y-73585361D01*
X115555351Y-73585361D01*
G37*
D21*
X114848000Y-73735000D03*
D13*
G36*
X115555351Y-73085361D02*
G01*
X115562632Y-73086441D01*
X115569771Y-73088229D01*
X115576701Y-73090709D01*
X115583355Y-73093856D01*
X115589668Y-73097640D01*
X115595579Y-73102024D01*
X115601033Y-73106967D01*
X115605976Y-73112421D01*
X115610360Y-73118332D01*
X115614144Y-73124645D01*
X115617291Y-73131299D01*
X115619771Y-73138229D01*
X115621559Y-73145368D01*
X115622639Y-73152649D01*
X115623000Y-73160000D01*
X115623000Y-73310000D01*
X115622639Y-73317351D01*
X115621559Y-73324632D01*
X115619771Y-73331771D01*
X115617291Y-73338701D01*
X115614144Y-73345355D01*
X115610360Y-73351668D01*
X115605976Y-73357579D01*
X115601033Y-73363033D01*
X115595579Y-73367976D01*
X115589668Y-73372360D01*
X115583355Y-73376144D01*
X115576701Y-73379291D01*
X115569771Y-73381771D01*
X115562632Y-73383559D01*
X115555351Y-73384639D01*
X115548000Y-73385000D01*
X114148000Y-73385000D01*
X114140649Y-73384639D01*
X114133368Y-73383559D01*
X114126229Y-73381771D01*
X114119299Y-73379291D01*
X114112645Y-73376144D01*
X114106332Y-73372360D01*
X114100421Y-73367976D01*
X114094967Y-73363033D01*
X114090024Y-73357579D01*
X114085640Y-73351668D01*
X114081856Y-73345355D01*
X114078709Y-73338701D01*
X114076229Y-73331771D01*
X114074441Y-73324632D01*
X114073361Y-73317351D01*
X114073000Y-73310000D01*
X114073000Y-73160000D01*
X114073361Y-73152649D01*
X114074441Y-73145368D01*
X114076229Y-73138229D01*
X114078709Y-73131299D01*
X114081856Y-73124645D01*
X114085640Y-73118332D01*
X114090024Y-73112421D01*
X114094967Y-73106967D01*
X114100421Y-73102024D01*
X114106332Y-73097640D01*
X114112645Y-73093856D01*
X114119299Y-73090709D01*
X114126229Y-73088229D01*
X114133368Y-73086441D01*
X114140649Y-73085361D01*
X114148000Y-73085000D01*
X115548000Y-73085000D01*
X115555351Y-73085361D01*
X115555351Y-73085361D01*
G37*
D21*
X114848000Y-73235000D03*
D13*
G36*
X115555351Y-72585361D02*
G01*
X115562632Y-72586441D01*
X115569771Y-72588229D01*
X115576701Y-72590709D01*
X115583355Y-72593856D01*
X115589668Y-72597640D01*
X115595579Y-72602024D01*
X115601033Y-72606967D01*
X115605976Y-72612421D01*
X115610360Y-72618332D01*
X115614144Y-72624645D01*
X115617291Y-72631299D01*
X115619771Y-72638229D01*
X115621559Y-72645368D01*
X115622639Y-72652649D01*
X115623000Y-72660000D01*
X115623000Y-72810000D01*
X115622639Y-72817351D01*
X115621559Y-72824632D01*
X115619771Y-72831771D01*
X115617291Y-72838701D01*
X115614144Y-72845355D01*
X115610360Y-72851668D01*
X115605976Y-72857579D01*
X115601033Y-72863033D01*
X115595579Y-72867976D01*
X115589668Y-72872360D01*
X115583355Y-72876144D01*
X115576701Y-72879291D01*
X115569771Y-72881771D01*
X115562632Y-72883559D01*
X115555351Y-72884639D01*
X115548000Y-72885000D01*
X114148000Y-72885000D01*
X114140649Y-72884639D01*
X114133368Y-72883559D01*
X114126229Y-72881771D01*
X114119299Y-72879291D01*
X114112645Y-72876144D01*
X114106332Y-72872360D01*
X114100421Y-72867976D01*
X114094967Y-72863033D01*
X114090024Y-72857579D01*
X114085640Y-72851668D01*
X114081856Y-72845355D01*
X114078709Y-72838701D01*
X114076229Y-72831771D01*
X114074441Y-72824632D01*
X114073361Y-72817351D01*
X114073000Y-72810000D01*
X114073000Y-72660000D01*
X114073361Y-72652649D01*
X114074441Y-72645368D01*
X114076229Y-72638229D01*
X114078709Y-72631299D01*
X114081856Y-72624645D01*
X114085640Y-72618332D01*
X114090024Y-72612421D01*
X114094967Y-72606967D01*
X114100421Y-72602024D01*
X114106332Y-72597640D01*
X114112645Y-72593856D01*
X114119299Y-72590709D01*
X114126229Y-72588229D01*
X114133368Y-72586441D01*
X114140649Y-72585361D01*
X114148000Y-72585000D01*
X115548000Y-72585000D01*
X115555351Y-72585361D01*
X115555351Y-72585361D01*
G37*
D21*
X114848000Y-72735000D03*
D13*
G36*
X115555351Y-72085361D02*
G01*
X115562632Y-72086441D01*
X115569771Y-72088229D01*
X115576701Y-72090709D01*
X115583355Y-72093856D01*
X115589668Y-72097640D01*
X115595579Y-72102024D01*
X115601033Y-72106967D01*
X115605976Y-72112421D01*
X115610360Y-72118332D01*
X115614144Y-72124645D01*
X115617291Y-72131299D01*
X115619771Y-72138229D01*
X115621559Y-72145368D01*
X115622639Y-72152649D01*
X115623000Y-72160000D01*
X115623000Y-72310000D01*
X115622639Y-72317351D01*
X115621559Y-72324632D01*
X115619771Y-72331771D01*
X115617291Y-72338701D01*
X115614144Y-72345355D01*
X115610360Y-72351668D01*
X115605976Y-72357579D01*
X115601033Y-72363033D01*
X115595579Y-72367976D01*
X115589668Y-72372360D01*
X115583355Y-72376144D01*
X115576701Y-72379291D01*
X115569771Y-72381771D01*
X115562632Y-72383559D01*
X115555351Y-72384639D01*
X115548000Y-72385000D01*
X114148000Y-72385000D01*
X114140649Y-72384639D01*
X114133368Y-72383559D01*
X114126229Y-72381771D01*
X114119299Y-72379291D01*
X114112645Y-72376144D01*
X114106332Y-72372360D01*
X114100421Y-72367976D01*
X114094967Y-72363033D01*
X114090024Y-72357579D01*
X114085640Y-72351668D01*
X114081856Y-72345355D01*
X114078709Y-72338701D01*
X114076229Y-72331771D01*
X114074441Y-72324632D01*
X114073361Y-72317351D01*
X114073000Y-72310000D01*
X114073000Y-72160000D01*
X114073361Y-72152649D01*
X114074441Y-72145368D01*
X114076229Y-72138229D01*
X114078709Y-72131299D01*
X114081856Y-72124645D01*
X114085640Y-72118332D01*
X114090024Y-72112421D01*
X114094967Y-72106967D01*
X114100421Y-72102024D01*
X114106332Y-72097640D01*
X114112645Y-72093856D01*
X114119299Y-72090709D01*
X114126229Y-72088229D01*
X114133368Y-72086441D01*
X114140649Y-72085361D01*
X114148000Y-72085000D01*
X115548000Y-72085000D01*
X115555351Y-72085361D01*
X115555351Y-72085361D01*
G37*
D21*
X114848000Y-72235000D03*
D13*
G36*
X115555351Y-71585361D02*
G01*
X115562632Y-71586441D01*
X115569771Y-71588229D01*
X115576701Y-71590709D01*
X115583355Y-71593856D01*
X115589668Y-71597640D01*
X115595579Y-71602024D01*
X115601033Y-71606967D01*
X115605976Y-71612421D01*
X115610360Y-71618332D01*
X115614144Y-71624645D01*
X115617291Y-71631299D01*
X115619771Y-71638229D01*
X115621559Y-71645368D01*
X115622639Y-71652649D01*
X115623000Y-71660000D01*
X115623000Y-71810000D01*
X115622639Y-71817351D01*
X115621559Y-71824632D01*
X115619771Y-71831771D01*
X115617291Y-71838701D01*
X115614144Y-71845355D01*
X115610360Y-71851668D01*
X115605976Y-71857579D01*
X115601033Y-71863033D01*
X115595579Y-71867976D01*
X115589668Y-71872360D01*
X115583355Y-71876144D01*
X115576701Y-71879291D01*
X115569771Y-71881771D01*
X115562632Y-71883559D01*
X115555351Y-71884639D01*
X115548000Y-71885000D01*
X114148000Y-71885000D01*
X114140649Y-71884639D01*
X114133368Y-71883559D01*
X114126229Y-71881771D01*
X114119299Y-71879291D01*
X114112645Y-71876144D01*
X114106332Y-71872360D01*
X114100421Y-71867976D01*
X114094967Y-71863033D01*
X114090024Y-71857579D01*
X114085640Y-71851668D01*
X114081856Y-71845355D01*
X114078709Y-71838701D01*
X114076229Y-71831771D01*
X114074441Y-71824632D01*
X114073361Y-71817351D01*
X114073000Y-71810000D01*
X114073000Y-71660000D01*
X114073361Y-71652649D01*
X114074441Y-71645368D01*
X114076229Y-71638229D01*
X114078709Y-71631299D01*
X114081856Y-71624645D01*
X114085640Y-71618332D01*
X114090024Y-71612421D01*
X114094967Y-71606967D01*
X114100421Y-71602024D01*
X114106332Y-71597640D01*
X114112645Y-71593856D01*
X114119299Y-71590709D01*
X114126229Y-71588229D01*
X114133368Y-71586441D01*
X114140649Y-71585361D01*
X114148000Y-71585000D01*
X115548000Y-71585000D01*
X115555351Y-71585361D01*
X115555351Y-71585361D01*
G37*
D21*
X114848000Y-71735000D03*
D13*
G36*
X115555351Y-71085361D02*
G01*
X115562632Y-71086441D01*
X115569771Y-71088229D01*
X115576701Y-71090709D01*
X115583355Y-71093856D01*
X115589668Y-71097640D01*
X115595579Y-71102024D01*
X115601033Y-71106967D01*
X115605976Y-71112421D01*
X115610360Y-71118332D01*
X115614144Y-71124645D01*
X115617291Y-71131299D01*
X115619771Y-71138229D01*
X115621559Y-71145368D01*
X115622639Y-71152649D01*
X115623000Y-71160000D01*
X115623000Y-71310000D01*
X115622639Y-71317351D01*
X115621559Y-71324632D01*
X115619771Y-71331771D01*
X115617291Y-71338701D01*
X115614144Y-71345355D01*
X115610360Y-71351668D01*
X115605976Y-71357579D01*
X115601033Y-71363033D01*
X115595579Y-71367976D01*
X115589668Y-71372360D01*
X115583355Y-71376144D01*
X115576701Y-71379291D01*
X115569771Y-71381771D01*
X115562632Y-71383559D01*
X115555351Y-71384639D01*
X115548000Y-71385000D01*
X114148000Y-71385000D01*
X114140649Y-71384639D01*
X114133368Y-71383559D01*
X114126229Y-71381771D01*
X114119299Y-71379291D01*
X114112645Y-71376144D01*
X114106332Y-71372360D01*
X114100421Y-71367976D01*
X114094967Y-71363033D01*
X114090024Y-71357579D01*
X114085640Y-71351668D01*
X114081856Y-71345355D01*
X114078709Y-71338701D01*
X114076229Y-71331771D01*
X114074441Y-71324632D01*
X114073361Y-71317351D01*
X114073000Y-71310000D01*
X114073000Y-71160000D01*
X114073361Y-71152649D01*
X114074441Y-71145368D01*
X114076229Y-71138229D01*
X114078709Y-71131299D01*
X114081856Y-71124645D01*
X114085640Y-71118332D01*
X114090024Y-71112421D01*
X114094967Y-71106967D01*
X114100421Y-71102024D01*
X114106332Y-71097640D01*
X114112645Y-71093856D01*
X114119299Y-71090709D01*
X114126229Y-71088229D01*
X114133368Y-71086441D01*
X114140649Y-71085361D01*
X114148000Y-71085000D01*
X115548000Y-71085000D01*
X115555351Y-71085361D01*
X115555351Y-71085361D01*
G37*
D21*
X114848000Y-71235000D03*
D13*
G36*
X115555351Y-70585361D02*
G01*
X115562632Y-70586441D01*
X115569771Y-70588229D01*
X115576701Y-70590709D01*
X115583355Y-70593856D01*
X115589668Y-70597640D01*
X115595579Y-70602024D01*
X115601033Y-70606967D01*
X115605976Y-70612421D01*
X115610360Y-70618332D01*
X115614144Y-70624645D01*
X115617291Y-70631299D01*
X115619771Y-70638229D01*
X115621559Y-70645368D01*
X115622639Y-70652649D01*
X115623000Y-70660000D01*
X115623000Y-70810000D01*
X115622639Y-70817351D01*
X115621559Y-70824632D01*
X115619771Y-70831771D01*
X115617291Y-70838701D01*
X115614144Y-70845355D01*
X115610360Y-70851668D01*
X115605976Y-70857579D01*
X115601033Y-70863033D01*
X115595579Y-70867976D01*
X115589668Y-70872360D01*
X115583355Y-70876144D01*
X115576701Y-70879291D01*
X115569771Y-70881771D01*
X115562632Y-70883559D01*
X115555351Y-70884639D01*
X115548000Y-70885000D01*
X114148000Y-70885000D01*
X114140649Y-70884639D01*
X114133368Y-70883559D01*
X114126229Y-70881771D01*
X114119299Y-70879291D01*
X114112645Y-70876144D01*
X114106332Y-70872360D01*
X114100421Y-70867976D01*
X114094967Y-70863033D01*
X114090024Y-70857579D01*
X114085640Y-70851668D01*
X114081856Y-70845355D01*
X114078709Y-70838701D01*
X114076229Y-70831771D01*
X114074441Y-70824632D01*
X114073361Y-70817351D01*
X114073000Y-70810000D01*
X114073000Y-70660000D01*
X114073361Y-70652649D01*
X114074441Y-70645368D01*
X114076229Y-70638229D01*
X114078709Y-70631299D01*
X114081856Y-70624645D01*
X114085640Y-70618332D01*
X114090024Y-70612421D01*
X114094967Y-70606967D01*
X114100421Y-70602024D01*
X114106332Y-70597640D01*
X114112645Y-70593856D01*
X114119299Y-70590709D01*
X114126229Y-70588229D01*
X114133368Y-70586441D01*
X114140649Y-70585361D01*
X114148000Y-70585000D01*
X115548000Y-70585000D01*
X115555351Y-70585361D01*
X115555351Y-70585361D01*
G37*
D21*
X114848000Y-70735000D03*
D13*
G36*
X115555351Y-70085361D02*
G01*
X115562632Y-70086441D01*
X115569771Y-70088229D01*
X115576701Y-70090709D01*
X115583355Y-70093856D01*
X115589668Y-70097640D01*
X115595579Y-70102024D01*
X115601033Y-70106967D01*
X115605976Y-70112421D01*
X115610360Y-70118332D01*
X115614144Y-70124645D01*
X115617291Y-70131299D01*
X115619771Y-70138229D01*
X115621559Y-70145368D01*
X115622639Y-70152649D01*
X115623000Y-70160000D01*
X115623000Y-70310000D01*
X115622639Y-70317351D01*
X115621559Y-70324632D01*
X115619771Y-70331771D01*
X115617291Y-70338701D01*
X115614144Y-70345355D01*
X115610360Y-70351668D01*
X115605976Y-70357579D01*
X115601033Y-70363033D01*
X115595579Y-70367976D01*
X115589668Y-70372360D01*
X115583355Y-70376144D01*
X115576701Y-70379291D01*
X115569771Y-70381771D01*
X115562632Y-70383559D01*
X115555351Y-70384639D01*
X115548000Y-70385000D01*
X114148000Y-70385000D01*
X114140649Y-70384639D01*
X114133368Y-70383559D01*
X114126229Y-70381771D01*
X114119299Y-70379291D01*
X114112645Y-70376144D01*
X114106332Y-70372360D01*
X114100421Y-70367976D01*
X114094967Y-70363033D01*
X114090024Y-70357579D01*
X114085640Y-70351668D01*
X114081856Y-70345355D01*
X114078709Y-70338701D01*
X114076229Y-70331771D01*
X114074441Y-70324632D01*
X114073361Y-70317351D01*
X114073000Y-70310000D01*
X114073000Y-70160000D01*
X114073361Y-70152649D01*
X114074441Y-70145368D01*
X114076229Y-70138229D01*
X114078709Y-70131299D01*
X114081856Y-70124645D01*
X114085640Y-70118332D01*
X114090024Y-70112421D01*
X114094967Y-70106967D01*
X114100421Y-70102024D01*
X114106332Y-70097640D01*
X114112645Y-70093856D01*
X114119299Y-70090709D01*
X114126229Y-70088229D01*
X114133368Y-70086441D01*
X114140649Y-70085361D01*
X114148000Y-70085000D01*
X115548000Y-70085000D01*
X115555351Y-70085361D01*
X115555351Y-70085361D01*
G37*
D21*
X114848000Y-70235000D03*
D13*
G36*
X115555351Y-69585361D02*
G01*
X115562632Y-69586441D01*
X115569771Y-69588229D01*
X115576701Y-69590709D01*
X115583355Y-69593856D01*
X115589668Y-69597640D01*
X115595579Y-69602024D01*
X115601033Y-69606967D01*
X115605976Y-69612421D01*
X115610360Y-69618332D01*
X115614144Y-69624645D01*
X115617291Y-69631299D01*
X115619771Y-69638229D01*
X115621559Y-69645368D01*
X115622639Y-69652649D01*
X115623000Y-69660000D01*
X115623000Y-69810000D01*
X115622639Y-69817351D01*
X115621559Y-69824632D01*
X115619771Y-69831771D01*
X115617291Y-69838701D01*
X115614144Y-69845355D01*
X115610360Y-69851668D01*
X115605976Y-69857579D01*
X115601033Y-69863033D01*
X115595579Y-69867976D01*
X115589668Y-69872360D01*
X115583355Y-69876144D01*
X115576701Y-69879291D01*
X115569771Y-69881771D01*
X115562632Y-69883559D01*
X115555351Y-69884639D01*
X115548000Y-69885000D01*
X114148000Y-69885000D01*
X114140649Y-69884639D01*
X114133368Y-69883559D01*
X114126229Y-69881771D01*
X114119299Y-69879291D01*
X114112645Y-69876144D01*
X114106332Y-69872360D01*
X114100421Y-69867976D01*
X114094967Y-69863033D01*
X114090024Y-69857579D01*
X114085640Y-69851668D01*
X114081856Y-69845355D01*
X114078709Y-69838701D01*
X114076229Y-69831771D01*
X114074441Y-69824632D01*
X114073361Y-69817351D01*
X114073000Y-69810000D01*
X114073000Y-69660000D01*
X114073361Y-69652649D01*
X114074441Y-69645368D01*
X114076229Y-69638229D01*
X114078709Y-69631299D01*
X114081856Y-69624645D01*
X114085640Y-69618332D01*
X114090024Y-69612421D01*
X114094967Y-69606967D01*
X114100421Y-69602024D01*
X114106332Y-69597640D01*
X114112645Y-69593856D01*
X114119299Y-69590709D01*
X114126229Y-69588229D01*
X114133368Y-69586441D01*
X114140649Y-69585361D01*
X114148000Y-69585000D01*
X115548000Y-69585000D01*
X115555351Y-69585361D01*
X115555351Y-69585361D01*
G37*
D21*
X114848000Y-69735000D03*
D13*
G36*
X115555351Y-69085361D02*
G01*
X115562632Y-69086441D01*
X115569771Y-69088229D01*
X115576701Y-69090709D01*
X115583355Y-69093856D01*
X115589668Y-69097640D01*
X115595579Y-69102024D01*
X115601033Y-69106967D01*
X115605976Y-69112421D01*
X115610360Y-69118332D01*
X115614144Y-69124645D01*
X115617291Y-69131299D01*
X115619771Y-69138229D01*
X115621559Y-69145368D01*
X115622639Y-69152649D01*
X115623000Y-69160000D01*
X115623000Y-69310000D01*
X115622639Y-69317351D01*
X115621559Y-69324632D01*
X115619771Y-69331771D01*
X115617291Y-69338701D01*
X115614144Y-69345355D01*
X115610360Y-69351668D01*
X115605976Y-69357579D01*
X115601033Y-69363033D01*
X115595579Y-69367976D01*
X115589668Y-69372360D01*
X115583355Y-69376144D01*
X115576701Y-69379291D01*
X115569771Y-69381771D01*
X115562632Y-69383559D01*
X115555351Y-69384639D01*
X115548000Y-69385000D01*
X114148000Y-69385000D01*
X114140649Y-69384639D01*
X114133368Y-69383559D01*
X114126229Y-69381771D01*
X114119299Y-69379291D01*
X114112645Y-69376144D01*
X114106332Y-69372360D01*
X114100421Y-69367976D01*
X114094967Y-69363033D01*
X114090024Y-69357579D01*
X114085640Y-69351668D01*
X114081856Y-69345355D01*
X114078709Y-69338701D01*
X114076229Y-69331771D01*
X114074441Y-69324632D01*
X114073361Y-69317351D01*
X114073000Y-69310000D01*
X114073000Y-69160000D01*
X114073361Y-69152649D01*
X114074441Y-69145368D01*
X114076229Y-69138229D01*
X114078709Y-69131299D01*
X114081856Y-69124645D01*
X114085640Y-69118332D01*
X114090024Y-69112421D01*
X114094967Y-69106967D01*
X114100421Y-69102024D01*
X114106332Y-69097640D01*
X114112645Y-69093856D01*
X114119299Y-69090709D01*
X114126229Y-69088229D01*
X114133368Y-69086441D01*
X114140649Y-69085361D01*
X114148000Y-69085000D01*
X115548000Y-69085000D01*
X115555351Y-69085361D01*
X115555351Y-69085361D01*
G37*
D21*
X114848000Y-69235000D03*
D13*
G36*
X115555351Y-68585361D02*
G01*
X115562632Y-68586441D01*
X115569771Y-68588229D01*
X115576701Y-68590709D01*
X115583355Y-68593856D01*
X115589668Y-68597640D01*
X115595579Y-68602024D01*
X115601033Y-68606967D01*
X115605976Y-68612421D01*
X115610360Y-68618332D01*
X115614144Y-68624645D01*
X115617291Y-68631299D01*
X115619771Y-68638229D01*
X115621559Y-68645368D01*
X115622639Y-68652649D01*
X115623000Y-68660000D01*
X115623000Y-68810000D01*
X115622639Y-68817351D01*
X115621559Y-68824632D01*
X115619771Y-68831771D01*
X115617291Y-68838701D01*
X115614144Y-68845355D01*
X115610360Y-68851668D01*
X115605976Y-68857579D01*
X115601033Y-68863033D01*
X115595579Y-68867976D01*
X115589668Y-68872360D01*
X115583355Y-68876144D01*
X115576701Y-68879291D01*
X115569771Y-68881771D01*
X115562632Y-68883559D01*
X115555351Y-68884639D01*
X115548000Y-68885000D01*
X114148000Y-68885000D01*
X114140649Y-68884639D01*
X114133368Y-68883559D01*
X114126229Y-68881771D01*
X114119299Y-68879291D01*
X114112645Y-68876144D01*
X114106332Y-68872360D01*
X114100421Y-68867976D01*
X114094967Y-68863033D01*
X114090024Y-68857579D01*
X114085640Y-68851668D01*
X114081856Y-68845355D01*
X114078709Y-68838701D01*
X114076229Y-68831771D01*
X114074441Y-68824632D01*
X114073361Y-68817351D01*
X114073000Y-68810000D01*
X114073000Y-68660000D01*
X114073361Y-68652649D01*
X114074441Y-68645368D01*
X114076229Y-68638229D01*
X114078709Y-68631299D01*
X114081856Y-68624645D01*
X114085640Y-68618332D01*
X114090024Y-68612421D01*
X114094967Y-68606967D01*
X114100421Y-68602024D01*
X114106332Y-68597640D01*
X114112645Y-68593856D01*
X114119299Y-68590709D01*
X114126229Y-68588229D01*
X114133368Y-68586441D01*
X114140649Y-68585361D01*
X114148000Y-68585000D01*
X115548000Y-68585000D01*
X115555351Y-68585361D01*
X115555351Y-68585361D01*
G37*
D21*
X114848000Y-68735000D03*
D13*
G36*
X115555351Y-68085361D02*
G01*
X115562632Y-68086441D01*
X115569771Y-68088229D01*
X115576701Y-68090709D01*
X115583355Y-68093856D01*
X115589668Y-68097640D01*
X115595579Y-68102024D01*
X115601033Y-68106967D01*
X115605976Y-68112421D01*
X115610360Y-68118332D01*
X115614144Y-68124645D01*
X115617291Y-68131299D01*
X115619771Y-68138229D01*
X115621559Y-68145368D01*
X115622639Y-68152649D01*
X115623000Y-68160000D01*
X115623000Y-68310000D01*
X115622639Y-68317351D01*
X115621559Y-68324632D01*
X115619771Y-68331771D01*
X115617291Y-68338701D01*
X115614144Y-68345355D01*
X115610360Y-68351668D01*
X115605976Y-68357579D01*
X115601033Y-68363033D01*
X115595579Y-68367976D01*
X115589668Y-68372360D01*
X115583355Y-68376144D01*
X115576701Y-68379291D01*
X115569771Y-68381771D01*
X115562632Y-68383559D01*
X115555351Y-68384639D01*
X115548000Y-68385000D01*
X114148000Y-68385000D01*
X114140649Y-68384639D01*
X114133368Y-68383559D01*
X114126229Y-68381771D01*
X114119299Y-68379291D01*
X114112645Y-68376144D01*
X114106332Y-68372360D01*
X114100421Y-68367976D01*
X114094967Y-68363033D01*
X114090024Y-68357579D01*
X114085640Y-68351668D01*
X114081856Y-68345355D01*
X114078709Y-68338701D01*
X114076229Y-68331771D01*
X114074441Y-68324632D01*
X114073361Y-68317351D01*
X114073000Y-68310000D01*
X114073000Y-68160000D01*
X114073361Y-68152649D01*
X114074441Y-68145368D01*
X114076229Y-68138229D01*
X114078709Y-68131299D01*
X114081856Y-68124645D01*
X114085640Y-68118332D01*
X114090024Y-68112421D01*
X114094967Y-68106967D01*
X114100421Y-68102024D01*
X114106332Y-68097640D01*
X114112645Y-68093856D01*
X114119299Y-68090709D01*
X114126229Y-68088229D01*
X114133368Y-68086441D01*
X114140649Y-68085361D01*
X114148000Y-68085000D01*
X115548000Y-68085000D01*
X115555351Y-68085361D01*
X115555351Y-68085361D01*
G37*
D21*
X114848000Y-68235000D03*
D13*
G36*
X115555351Y-67585361D02*
G01*
X115562632Y-67586441D01*
X115569771Y-67588229D01*
X115576701Y-67590709D01*
X115583355Y-67593856D01*
X115589668Y-67597640D01*
X115595579Y-67602024D01*
X115601033Y-67606967D01*
X115605976Y-67612421D01*
X115610360Y-67618332D01*
X115614144Y-67624645D01*
X115617291Y-67631299D01*
X115619771Y-67638229D01*
X115621559Y-67645368D01*
X115622639Y-67652649D01*
X115623000Y-67660000D01*
X115623000Y-67810000D01*
X115622639Y-67817351D01*
X115621559Y-67824632D01*
X115619771Y-67831771D01*
X115617291Y-67838701D01*
X115614144Y-67845355D01*
X115610360Y-67851668D01*
X115605976Y-67857579D01*
X115601033Y-67863033D01*
X115595579Y-67867976D01*
X115589668Y-67872360D01*
X115583355Y-67876144D01*
X115576701Y-67879291D01*
X115569771Y-67881771D01*
X115562632Y-67883559D01*
X115555351Y-67884639D01*
X115548000Y-67885000D01*
X114148000Y-67885000D01*
X114140649Y-67884639D01*
X114133368Y-67883559D01*
X114126229Y-67881771D01*
X114119299Y-67879291D01*
X114112645Y-67876144D01*
X114106332Y-67872360D01*
X114100421Y-67867976D01*
X114094967Y-67863033D01*
X114090024Y-67857579D01*
X114085640Y-67851668D01*
X114081856Y-67845355D01*
X114078709Y-67838701D01*
X114076229Y-67831771D01*
X114074441Y-67824632D01*
X114073361Y-67817351D01*
X114073000Y-67810000D01*
X114073000Y-67660000D01*
X114073361Y-67652649D01*
X114074441Y-67645368D01*
X114076229Y-67638229D01*
X114078709Y-67631299D01*
X114081856Y-67624645D01*
X114085640Y-67618332D01*
X114090024Y-67612421D01*
X114094967Y-67606967D01*
X114100421Y-67602024D01*
X114106332Y-67597640D01*
X114112645Y-67593856D01*
X114119299Y-67590709D01*
X114126229Y-67588229D01*
X114133368Y-67586441D01*
X114140649Y-67585361D01*
X114148000Y-67585000D01*
X115548000Y-67585000D01*
X115555351Y-67585361D01*
X115555351Y-67585361D01*
G37*
D21*
X114848000Y-67735000D03*
D13*
G36*
X115555351Y-67085361D02*
G01*
X115562632Y-67086441D01*
X115569771Y-67088229D01*
X115576701Y-67090709D01*
X115583355Y-67093856D01*
X115589668Y-67097640D01*
X115595579Y-67102024D01*
X115601033Y-67106967D01*
X115605976Y-67112421D01*
X115610360Y-67118332D01*
X115614144Y-67124645D01*
X115617291Y-67131299D01*
X115619771Y-67138229D01*
X115621559Y-67145368D01*
X115622639Y-67152649D01*
X115623000Y-67160000D01*
X115623000Y-67310000D01*
X115622639Y-67317351D01*
X115621559Y-67324632D01*
X115619771Y-67331771D01*
X115617291Y-67338701D01*
X115614144Y-67345355D01*
X115610360Y-67351668D01*
X115605976Y-67357579D01*
X115601033Y-67363033D01*
X115595579Y-67367976D01*
X115589668Y-67372360D01*
X115583355Y-67376144D01*
X115576701Y-67379291D01*
X115569771Y-67381771D01*
X115562632Y-67383559D01*
X115555351Y-67384639D01*
X115548000Y-67385000D01*
X114148000Y-67385000D01*
X114140649Y-67384639D01*
X114133368Y-67383559D01*
X114126229Y-67381771D01*
X114119299Y-67379291D01*
X114112645Y-67376144D01*
X114106332Y-67372360D01*
X114100421Y-67367976D01*
X114094967Y-67363033D01*
X114090024Y-67357579D01*
X114085640Y-67351668D01*
X114081856Y-67345355D01*
X114078709Y-67338701D01*
X114076229Y-67331771D01*
X114074441Y-67324632D01*
X114073361Y-67317351D01*
X114073000Y-67310000D01*
X114073000Y-67160000D01*
X114073361Y-67152649D01*
X114074441Y-67145368D01*
X114076229Y-67138229D01*
X114078709Y-67131299D01*
X114081856Y-67124645D01*
X114085640Y-67118332D01*
X114090024Y-67112421D01*
X114094967Y-67106967D01*
X114100421Y-67102024D01*
X114106332Y-67097640D01*
X114112645Y-67093856D01*
X114119299Y-67090709D01*
X114126229Y-67088229D01*
X114133368Y-67086441D01*
X114140649Y-67085361D01*
X114148000Y-67085000D01*
X115548000Y-67085000D01*
X115555351Y-67085361D01*
X115555351Y-67085361D01*
G37*
D21*
X114848000Y-67235000D03*
D13*
G36*
X115555351Y-66585361D02*
G01*
X115562632Y-66586441D01*
X115569771Y-66588229D01*
X115576701Y-66590709D01*
X115583355Y-66593856D01*
X115589668Y-66597640D01*
X115595579Y-66602024D01*
X115601033Y-66606967D01*
X115605976Y-66612421D01*
X115610360Y-66618332D01*
X115614144Y-66624645D01*
X115617291Y-66631299D01*
X115619771Y-66638229D01*
X115621559Y-66645368D01*
X115622639Y-66652649D01*
X115623000Y-66660000D01*
X115623000Y-66810000D01*
X115622639Y-66817351D01*
X115621559Y-66824632D01*
X115619771Y-66831771D01*
X115617291Y-66838701D01*
X115614144Y-66845355D01*
X115610360Y-66851668D01*
X115605976Y-66857579D01*
X115601033Y-66863033D01*
X115595579Y-66867976D01*
X115589668Y-66872360D01*
X115583355Y-66876144D01*
X115576701Y-66879291D01*
X115569771Y-66881771D01*
X115562632Y-66883559D01*
X115555351Y-66884639D01*
X115548000Y-66885000D01*
X114148000Y-66885000D01*
X114140649Y-66884639D01*
X114133368Y-66883559D01*
X114126229Y-66881771D01*
X114119299Y-66879291D01*
X114112645Y-66876144D01*
X114106332Y-66872360D01*
X114100421Y-66867976D01*
X114094967Y-66863033D01*
X114090024Y-66857579D01*
X114085640Y-66851668D01*
X114081856Y-66845355D01*
X114078709Y-66838701D01*
X114076229Y-66831771D01*
X114074441Y-66824632D01*
X114073361Y-66817351D01*
X114073000Y-66810000D01*
X114073000Y-66660000D01*
X114073361Y-66652649D01*
X114074441Y-66645368D01*
X114076229Y-66638229D01*
X114078709Y-66631299D01*
X114081856Y-66624645D01*
X114085640Y-66618332D01*
X114090024Y-66612421D01*
X114094967Y-66606967D01*
X114100421Y-66602024D01*
X114106332Y-66597640D01*
X114112645Y-66593856D01*
X114119299Y-66590709D01*
X114126229Y-66588229D01*
X114133368Y-66586441D01*
X114140649Y-66585361D01*
X114148000Y-66585000D01*
X115548000Y-66585000D01*
X115555351Y-66585361D01*
X115555351Y-66585361D01*
G37*
D21*
X114848000Y-66735000D03*
D15*
X91440000Y-55499000D03*
X93980000Y-55499000D03*
X96520000Y-55499000D03*
X99060000Y-55499000D03*
X101600000Y-55499000D03*
X104140000Y-55499000D03*
X106680000Y-55499000D03*
X109220000Y-55499000D03*
X111760000Y-55499000D03*
X114300000Y-55499000D03*
X116840000Y-55499000D03*
X119380000Y-55499000D03*
X121920000Y-55499000D03*
X124460000Y-55499000D03*
X127000000Y-55499000D03*
X129540000Y-55499000D03*
X132080000Y-55499000D03*
X134620000Y-55499000D03*
X137160000Y-55499000D03*
X139700000Y-55499000D03*
X142240000Y-55499000D03*
X144780000Y-55499000D03*
X147320000Y-55499000D03*
D16*
X149860000Y-55499000D03*
D15*
X144780000Y-60579000D03*
X142240000Y-60579000D03*
X139700000Y-60579000D03*
X137160000Y-60579000D03*
D16*
X134620000Y-60579000D03*
D13*
G36*
X111910691Y-78659053D02*
G01*
X111931926Y-78662203D01*
X111952750Y-78667419D01*
X111972962Y-78674651D01*
X111992368Y-78683830D01*
X112010781Y-78694866D01*
X112028024Y-78707654D01*
X112043930Y-78722070D01*
X112058346Y-78737976D01*
X112071134Y-78755219D01*
X112082170Y-78773632D01*
X112091349Y-78793038D01*
X112098581Y-78813250D01*
X112103797Y-78834074D01*
X112106947Y-78855309D01*
X112108000Y-78876750D01*
X112108000Y-79314250D01*
X112106947Y-79335691D01*
X112103797Y-79356926D01*
X112098581Y-79377750D01*
X112091349Y-79397962D01*
X112082170Y-79417368D01*
X112071134Y-79435781D01*
X112058346Y-79453024D01*
X112043930Y-79468930D01*
X112028024Y-79483346D01*
X112010781Y-79496134D01*
X111992368Y-79507170D01*
X111972962Y-79516349D01*
X111952750Y-79523581D01*
X111931926Y-79528797D01*
X111910691Y-79531947D01*
X111889250Y-79533000D01*
X111376750Y-79533000D01*
X111355309Y-79531947D01*
X111334074Y-79528797D01*
X111313250Y-79523581D01*
X111293038Y-79516349D01*
X111273632Y-79507170D01*
X111255219Y-79496134D01*
X111237976Y-79483346D01*
X111222070Y-79468930D01*
X111207654Y-79453024D01*
X111194866Y-79435781D01*
X111183830Y-79417368D01*
X111174651Y-79397962D01*
X111167419Y-79377750D01*
X111162203Y-79356926D01*
X111159053Y-79335691D01*
X111158000Y-79314250D01*
X111158000Y-78876750D01*
X111159053Y-78855309D01*
X111162203Y-78834074D01*
X111167419Y-78813250D01*
X111174651Y-78793038D01*
X111183830Y-78773632D01*
X111194866Y-78755219D01*
X111207654Y-78737976D01*
X111222070Y-78722070D01*
X111237976Y-78707654D01*
X111255219Y-78694866D01*
X111273632Y-78683830D01*
X111293038Y-78674651D01*
X111313250Y-78667419D01*
X111334074Y-78662203D01*
X111355309Y-78659053D01*
X111376750Y-78658000D01*
X111889250Y-78658000D01*
X111910691Y-78659053D01*
X111910691Y-78659053D01*
G37*
D14*
X111633000Y-79095500D03*
D13*
G36*
X111910691Y-80234053D02*
G01*
X111931926Y-80237203D01*
X111952750Y-80242419D01*
X111972962Y-80249651D01*
X111992368Y-80258830D01*
X112010781Y-80269866D01*
X112028024Y-80282654D01*
X112043930Y-80297070D01*
X112058346Y-80312976D01*
X112071134Y-80330219D01*
X112082170Y-80348632D01*
X112091349Y-80368038D01*
X112098581Y-80388250D01*
X112103797Y-80409074D01*
X112106947Y-80430309D01*
X112108000Y-80451750D01*
X112108000Y-80889250D01*
X112106947Y-80910691D01*
X112103797Y-80931926D01*
X112098581Y-80952750D01*
X112091349Y-80972962D01*
X112082170Y-80992368D01*
X112071134Y-81010781D01*
X112058346Y-81028024D01*
X112043930Y-81043930D01*
X112028024Y-81058346D01*
X112010781Y-81071134D01*
X111992368Y-81082170D01*
X111972962Y-81091349D01*
X111952750Y-81098581D01*
X111931926Y-81103797D01*
X111910691Y-81106947D01*
X111889250Y-81108000D01*
X111376750Y-81108000D01*
X111355309Y-81106947D01*
X111334074Y-81103797D01*
X111313250Y-81098581D01*
X111293038Y-81091349D01*
X111273632Y-81082170D01*
X111255219Y-81071134D01*
X111237976Y-81058346D01*
X111222070Y-81043930D01*
X111207654Y-81028024D01*
X111194866Y-81010781D01*
X111183830Y-80992368D01*
X111174651Y-80972962D01*
X111167419Y-80952750D01*
X111162203Y-80931926D01*
X111159053Y-80910691D01*
X111158000Y-80889250D01*
X111158000Y-80451750D01*
X111159053Y-80430309D01*
X111162203Y-80409074D01*
X111167419Y-80388250D01*
X111174651Y-80368038D01*
X111183830Y-80348632D01*
X111194866Y-80330219D01*
X111207654Y-80312976D01*
X111222070Y-80297070D01*
X111237976Y-80282654D01*
X111255219Y-80269866D01*
X111273632Y-80258830D01*
X111293038Y-80249651D01*
X111313250Y-80242419D01*
X111334074Y-80237203D01*
X111355309Y-80234053D01*
X111376750Y-80233000D01*
X111889250Y-80233000D01*
X111910691Y-80234053D01*
X111910691Y-80234053D01*
G37*
D14*
X111633000Y-80670500D03*
D13*
G36*
X128851742Y-62685774D02*
G01*
X128875403Y-62689284D01*
X128898607Y-62695096D01*
X128921129Y-62703154D01*
X128942753Y-62713382D01*
X128963270Y-62725679D01*
X128982483Y-62739929D01*
X129000207Y-62755993D01*
X129016271Y-62773717D01*
X129030521Y-62792930D01*
X129042818Y-62813447D01*
X129053046Y-62835071D01*
X129061104Y-62857593D01*
X129066916Y-62880797D01*
X129070426Y-62904458D01*
X129071600Y-62928350D01*
X129071600Y-63415850D01*
X129070426Y-63439742D01*
X129066916Y-63463403D01*
X129061104Y-63486607D01*
X129053046Y-63509129D01*
X129042818Y-63530753D01*
X129030521Y-63551270D01*
X129016271Y-63570483D01*
X129000207Y-63588207D01*
X128982483Y-63604271D01*
X128963270Y-63618521D01*
X128942753Y-63630818D01*
X128921129Y-63641046D01*
X128898607Y-63649104D01*
X128875403Y-63654916D01*
X128851742Y-63658426D01*
X128827850Y-63659600D01*
X127915350Y-63659600D01*
X127891458Y-63658426D01*
X127867797Y-63654916D01*
X127844593Y-63649104D01*
X127822071Y-63641046D01*
X127800447Y-63630818D01*
X127779930Y-63618521D01*
X127760717Y-63604271D01*
X127742993Y-63588207D01*
X127726929Y-63570483D01*
X127712679Y-63551270D01*
X127700382Y-63530753D01*
X127690154Y-63509129D01*
X127682096Y-63486607D01*
X127676284Y-63463403D01*
X127672774Y-63439742D01*
X127671600Y-63415850D01*
X127671600Y-62928350D01*
X127672774Y-62904458D01*
X127676284Y-62880797D01*
X127682096Y-62857593D01*
X127690154Y-62835071D01*
X127700382Y-62813447D01*
X127712679Y-62792930D01*
X127726929Y-62773717D01*
X127742993Y-62755993D01*
X127760717Y-62739929D01*
X127779930Y-62725679D01*
X127800447Y-62713382D01*
X127822071Y-62703154D01*
X127844593Y-62695096D01*
X127867797Y-62689284D01*
X127891458Y-62685774D01*
X127915350Y-62684600D01*
X128827850Y-62684600D01*
X128851742Y-62685774D01*
X128851742Y-62685774D01*
G37*
D22*
X128371600Y-63172100D03*
D13*
G36*
X128851742Y-64560774D02*
G01*
X128875403Y-64564284D01*
X128898607Y-64570096D01*
X128921129Y-64578154D01*
X128942753Y-64588382D01*
X128963270Y-64600679D01*
X128982483Y-64614929D01*
X129000207Y-64630993D01*
X129016271Y-64648717D01*
X129030521Y-64667930D01*
X129042818Y-64688447D01*
X129053046Y-64710071D01*
X129061104Y-64732593D01*
X129066916Y-64755797D01*
X129070426Y-64779458D01*
X129071600Y-64803350D01*
X129071600Y-65290850D01*
X129070426Y-65314742D01*
X129066916Y-65338403D01*
X129061104Y-65361607D01*
X129053046Y-65384129D01*
X129042818Y-65405753D01*
X129030521Y-65426270D01*
X129016271Y-65445483D01*
X129000207Y-65463207D01*
X128982483Y-65479271D01*
X128963270Y-65493521D01*
X128942753Y-65505818D01*
X128921129Y-65516046D01*
X128898607Y-65524104D01*
X128875403Y-65529916D01*
X128851742Y-65533426D01*
X128827850Y-65534600D01*
X127915350Y-65534600D01*
X127891458Y-65533426D01*
X127867797Y-65529916D01*
X127844593Y-65524104D01*
X127822071Y-65516046D01*
X127800447Y-65505818D01*
X127779930Y-65493521D01*
X127760717Y-65479271D01*
X127742993Y-65463207D01*
X127726929Y-65445483D01*
X127712679Y-65426270D01*
X127700382Y-65405753D01*
X127690154Y-65384129D01*
X127682096Y-65361607D01*
X127676284Y-65338403D01*
X127672774Y-65314742D01*
X127671600Y-65290850D01*
X127671600Y-64803350D01*
X127672774Y-64779458D01*
X127676284Y-64755797D01*
X127682096Y-64732593D01*
X127690154Y-64710071D01*
X127700382Y-64688447D01*
X127712679Y-64667930D01*
X127726929Y-64648717D01*
X127742993Y-64630993D01*
X127760717Y-64614929D01*
X127779930Y-64600679D01*
X127800447Y-64588382D01*
X127822071Y-64578154D01*
X127844593Y-64570096D01*
X127867797Y-64564284D01*
X127891458Y-64560774D01*
X127915350Y-64559600D01*
X128827850Y-64559600D01*
X128851742Y-64560774D01*
X128851742Y-64560774D01*
G37*
D22*
X128371600Y-65047100D03*
D13*
G36*
X129893142Y-77032174D02*
G01*
X129916803Y-77035684D01*
X129940007Y-77041496D01*
X129962529Y-77049554D01*
X129984153Y-77059782D01*
X130004670Y-77072079D01*
X130023883Y-77086329D01*
X130041607Y-77102393D01*
X130057671Y-77120117D01*
X130071921Y-77139330D01*
X130084218Y-77159847D01*
X130094446Y-77181471D01*
X130102504Y-77203993D01*
X130108316Y-77227197D01*
X130111826Y-77250858D01*
X130113000Y-77274750D01*
X130113000Y-77762250D01*
X130111826Y-77786142D01*
X130108316Y-77809803D01*
X130102504Y-77833007D01*
X130094446Y-77855529D01*
X130084218Y-77877153D01*
X130071921Y-77897670D01*
X130057671Y-77916883D01*
X130041607Y-77934607D01*
X130023883Y-77950671D01*
X130004670Y-77964921D01*
X129984153Y-77977218D01*
X129962529Y-77987446D01*
X129940007Y-77995504D01*
X129916803Y-78001316D01*
X129893142Y-78004826D01*
X129869250Y-78006000D01*
X128956750Y-78006000D01*
X128932858Y-78004826D01*
X128909197Y-78001316D01*
X128885993Y-77995504D01*
X128863471Y-77987446D01*
X128841847Y-77977218D01*
X128821330Y-77964921D01*
X128802117Y-77950671D01*
X128784393Y-77934607D01*
X128768329Y-77916883D01*
X128754079Y-77897670D01*
X128741782Y-77877153D01*
X128731554Y-77855529D01*
X128723496Y-77833007D01*
X128717684Y-77809803D01*
X128714174Y-77786142D01*
X128713000Y-77762250D01*
X128713000Y-77274750D01*
X128714174Y-77250858D01*
X128717684Y-77227197D01*
X128723496Y-77203993D01*
X128731554Y-77181471D01*
X128741782Y-77159847D01*
X128754079Y-77139330D01*
X128768329Y-77120117D01*
X128784393Y-77102393D01*
X128802117Y-77086329D01*
X128821330Y-77072079D01*
X128841847Y-77059782D01*
X128863471Y-77049554D01*
X128885993Y-77041496D01*
X128909197Y-77035684D01*
X128932858Y-77032174D01*
X128956750Y-77031000D01*
X129869250Y-77031000D01*
X129893142Y-77032174D01*
X129893142Y-77032174D01*
G37*
D22*
X129413000Y-77518500D03*
D13*
G36*
X129893142Y-75157174D02*
G01*
X129916803Y-75160684D01*
X129940007Y-75166496D01*
X129962529Y-75174554D01*
X129984153Y-75184782D01*
X130004670Y-75197079D01*
X130023883Y-75211329D01*
X130041607Y-75227393D01*
X130057671Y-75245117D01*
X130071921Y-75264330D01*
X130084218Y-75284847D01*
X130094446Y-75306471D01*
X130102504Y-75328993D01*
X130108316Y-75352197D01*
X130111826Y-75375858D01*
X130113000Y-75399750D01*
X130113000Y-75887250D01*
X130111826Y-75911142D01*
X130108316Y-75934803D01*
X130102504Y-75958007D01*
X130094446Y-75980529D01*
X130084218Y-76002153D01*
X130071921Y-76022670D01*
X130057671Y-76041883D01*
X130041607Y-76059607D01*
X130023883Y-76075671D01*
X130004670Y-76089921D01*
X129984153Y-76102218D01*
X129962529Y-76112446D01*
X129940007Y-76120504D01*
X129916803Y-76126316D01*
X129893142Y-76129826D01*
X129869250Y-76131000D01*
X128956750Y-76131000D01*
X128932858Y-76129826D01*
X128909197Y-76126316D01*
X128885993Y-76120504D01*
X128863471Y-76112446D01*
X128841847Y-76102218D01*
X128821330Y-76089921D01*
X128802117Y-76075671D01*
X128784393Y-76059607D01*
X128768329Y-76041883D01*
X128754079Y-76022670D01*
X128741782Y-76002153D01*
X128731554Y-75980529D01*
X128723496Y-75958007D01*
X128717684Y-75934803D01*
X128714174Y-75911142D01*
X128713000Y-75887250D01*
X128713000Y-75399750D01*
X128714174Y-75375858D01*
X128717684Y-75352197D01*
X128723496Y-75328993D01*
X128731554Y-75306471D01*
X128741782Y-75284847D01*
X128754079Y-75264330D01*
X128768329Y-75245117D01*
X128784393Y-75227393D01*
X128802117Y-75211329D01*
X128821330Y-75197079D01*
X128841847Y-75184782D01*
X128863471Y-75174554D01*
X128885993Y-75166496D01*
X128909197Y-75160684D01*
X128932858Y-75157174D01*
X128956750Y-75156000D01*
X129869250Y-75156000D01*
X129893142Y-75157174D01*
X129893142Y-75157174D01*
G37*
D22*
X129413000Y-75643500D03*
D23*
X145211800Y-73025000D03*
X145186400Y-74015600D03*
X110744016Y-78105000D03*
X117094000Y-80010000D03*
X102104902Y-61161967D03*
X128371593Y-63172093D03*
X103893057Y-78856879D03*
X93980000Y-82042000D03*
X111633000Y-82042000D03*
X118618000Y-80010000D03*
X109799200Y-60135400D03*
X110896400Y-65278000D03*
X129286000Y-67360800D03*
X144424406Y-70256400D03*
X129260600Y-68351400D03*
D24*
X129080500Y-77851000D02*
X129413000Y-77518500D01*
D25*
X129004300Y-77927200D02*
X129080500Y-77851000D01*
X124256800Y-77927200D02*
X129004300Y-77927200D01*
X123773000Y-77443400D02*
X124256800Y-77927200D01*
X123773000Y-76160000D02*
X123773000Y-77443400D01*
X103893089Y-78856879D02*
X100093989Y-78856879D01*
X150145000Y-76073000D02*
X150241000Y-75977000D01*
X128725000Y-75643500D02*
X129413000Y-75643500D01*
X127533500Y-76835000D02*
X128725000Y-75643500D01*
X144262784Y-68476889D02*
X144412784Y-68476889D01*
X116304000Y-72235000D02*
X114848000Y-72235000D01*
X117273000Y-73204000D02*
X116304000Y-72235000D01*
X117273000Y-76160000D02*
X117273000Y-73204000D01*
X116713001Y-79629001D02*
X117094000Y-80010000D01*
X115925500Y-78841500D02*
X116713001Y-79629001D01*
X115925500Y-78382500D02*
X115925500Y-78841500D01*
X117273000Y-77035000D02*
X115925500Y-78382500D01*
X117273000Y-76160000D02*
X117273000Y-77035000D01*
X102687969Y-60578900D02*
X102485901Y-60780968D01*
X104216200Y-60578900D02*
X102687969Y-60578900D01*
X102485901Y-60780968D02*
X102104902Y-61161967D01*
X128371600Y-63172100D02*
X126621400Y-63172100D01*
X131214100Y-75643500D02*
X129413000Y-75643500D01*
X141811639Y-75643500D02*
X131214100Y-75643500D01*
X141829233Y-75661094D02*
X141811639Y-75643500D01*
X142924956Y-72910768D02*
X142924956Y-71110768D01*
X142924956Y-74346644D02*
X142924956Y-72910768D01*
X141829233Y-75442367D02*
X142924956Y-74346644D01*
X141829233Y-75661094D02*
X141829233Y-75442367D01*
X144262783Y-68487617D02*
X144262783Y-68476889D01*
X142925800Y-69824600D02*
X144262783Y-68487617D01*
X142925800Y-70383400D02*
X142925800Y-69824600D01*
X142924956Y-70384244D02*
X142925800Y-70383400D01*
X142924956Y-71110768D02*
X142924956Y-70384244D01*
X147241000Y-71455106D02*
X144262783Y-68476889D01*
X147241000Y-71852000D02*
X147241000Y-71455106D01*
X114728916Y-63883884D02*
X114348847Y-64263953D01*
X116992400Y-63449200D02*
X115163600Y-63449200D01*
X115163600Y-63449200D02*
X114728916Y-63883884D01*
X117273000Y-63729800D02*
X116992400Y-63449200D01*
X117273000Y-64810000D02*
X117273000Y-63729800D01*
X117273000Y-65965000D02*
X117273000Y-64810000D01*
X126568200Y-63118900D02*
X125095000Y-64592100D01*
X125095000Y-64592100D02*
X125095000Y-65786000D01*
X117983000Y-66675000D02*
X117273000Y-65965000D01*
X125095000Y-65786000D02*
X124206000Y-66675000D01*
X124206000Y-66675000D02*
X117983000Y-66675000D01*
X127914400Y-62816500D02*
X127914384Y-62816500D01*
X128295383Y-63197499D02*
X128346187Y-63197499D01*
X128346187Y-63197499D02*
X128371593Y-63172093D01*
X103893089Y-78856879D02*
X103893057Y-78856879D01*
X105515506Y-77389894D02*
X104048521Y-78856879D01*
X104048521Y-78856879D02*
X103893057Y-78856879D01*
X106048906Y-77389894D02*
X105515506Y-77389894D01*
X110868500Y-74940960D02*
X110868500Y-77441701D01*
X114848000Y-72235000D02*
X113574460Y-72235000D01*
X113574460Y-72235000D02*
X110868500Y-74940960D01*
X110868500Y-77441701D02*
X110744016Y-77566185D01*
X110744016Y-77566185D02*
X110744016Y-78105000D01*
X98884153Y-77878353D02*
X99861779Y-78855979D01*
X99724306Y-71903494D02*
X98884153Y-72743647D01*
X99861779Y-78855979D02*
X100093089Y-78855979D01*
X98884153Y-72743647D02*
X98884153Y-77878353D01*
X99724306Y-71344694D02*
X99724306Y-71903494D01*
X148844106Y-69852000D02*
X150241000Y-69852000D01*
X147241000Y-71455106D02*
X148844106Y-69852000D01*
X127430600Y-67235000D02*
X127914400Y-66751200D01*
X127914400Y-66751200D02*
X127914400Y-64691500D01*
X126198000Y-67235000D02*
X127430600Y-67235000D01*
X113973000Y-72735000D02*
X114848000Y-72735000D01*
X113710870Y-72735000D02*
X113973000Y-72735000D01*
X112395000Y-74050870D02*
X113710870Y-72735000D01*
X112395000Y-78333500D02*
X112395000Y-74050870D01*
X111633000Y-79095500D02*
X112395000Y-78333500D01*
X109798300Y-60134500D02*
X109799200Y-60135400D01*
X105999200Y-60134500D02*
X109798300Y-60134500D01*
X142537783Y-68476889D02*
X142447980Y-68387086D01*
X111633000Y-80670500D02*
X111633000Y-82042000D01*
X124948000Y-76835000D02*
X125984000Y-76835000D01*
X124273000Y-76160000D02*
X124948000Y-76835000D01*
X124273000Y-73473000D02*
X123444000Y-72644000D01*
X124273000Y-76160000D02*
X124273000Y-73473000D01*
X117500500Y-78892500D02*
X118618000Y-80010000D01*
X117500500Y-77571500D02*
X117500500Y-78892500D01*
X117773000Y-77299000D02*
X117500500Y-77571500D01*
X117773000Y-76160000D02*
X117773000Y-77299000D01*
X125085800Y-66735000D02*
X123444000Y-68376800D01*
X123444000Y-68376800D02*
X123444000Y-72644000D01*
X118872000Y-68275200D02*
X116773000Y-66176200D01*
X118973600Y-68376800D02*
X123444000Y-68376800D01*
X118872000Y-68275200D02*
X118973600Y-68376800D01*
X117773000Y-73844600D02*
X117773000Y-76160000D01*
X118973600Y-72644000D02*
X117773000Y-73844600D01*
X118973600Y-72644000D02*
X118973600Y-68376800D01*
X123444000Y-72644000D02*
X118973600Y-72644000D01*
X109799200Y-60135400D02*
X109799200Y-60135400D01*
X126198000Y-66735000D02*
X125085800Y-66735000D01*
X93980000Y-81991200D02*
X93980000Y-84201000D01*
X116773000Y-65566600D02*
X116773000Y-64810000D01*
X116773000Y-66176200D02*
X116773000Y-65566600D01*
X138859724Y-74676000D02*
X142424956Y-71110768D01*
X128117600Y-74676000D02*
X138859724Y-74676000D01*
X125958600Y-76835000D02*
X128117600Y-74676000D01*
X125958500Y-76835000D02*
X125958600Y-76835000D01*
X142341600Y-68823072D02*
X142341600Y-71027412D01*
X142341600Y-71027412D02*
X142424956Y-71110768D01*
X142687783Y-68476889D02*
X142341600Y-68823072D01*
X116584047Y-65377647D02*
X116773000Y-65566600D01*
X110996047Y-65377647D02*
X116584047Y-65377647D01*
X110896400Y-65278000D02*
X110996047Y-65377647D01*
X126198000Y-65064100D02*
X126568200Y-64693900D01*
X126198000Y-66735000D02*
X126198000Y-65064100D01*
D24*
X101104653Y-70599253D02*
X101977462Y-71472062D01*
X105603524Y-68735000D02*
X114848000Y-68735000D01*
X101977462Y-72361062D02*
X105603524Y-68735000D01*
X105740388Y-75260200D02*
X106832494Y-76352306D01*
X110901800Y-69235000D02*
X104876600Y-75260200D01*
X114848000Y-69235000D02*
X110901800Y-69235000D01*
X122428000Y-82169000D02*
X124460000Y-84201000D01*
X118273000Y-76160000D02*
X118273000Y-78014000D01*
X118273000Y-78014000D02*
X122428000Y-82169000D01*
D25*
X147241000Y-74452000D02*
X146722600Y-74970400D01*
X146031906Y-75661094D02*
X146722600Y-74970400D01*
X143404233Y-75661094D02*
X146031906Y-75661094D01*
X144279324Y-70256400D02*
X144424406Y-70256400D01*
X143424956Y-71110768D02*
X144279324Y-70256400D01*
X143510000Y-72995812D02*
X143424956Y-72910768D01*
X143510000Y-75616861D02*
X143510000Y-72995812D01*
X143554233Y-75661094D02*
X143510000Y-75616861D01*
X143424956Y-71255850D02*
X143424956Y-71110768D01*
X143510000Y-71340894D02*
X143424956Y-71255850D01*
X143510000Y-72825724D02*
X143510000Y-71340894D01*
X143424956Y-72910768D02*
X143510000Y-72825724D01*
D24*
X142113000Y-78867000D02*
X147320000Y-84074000D01*
X122773000Y-76160000D02*
X122773000Y-77738067D01*
X122773000Y-77738067D02*
X123901933Y-78867000D01*
X147320000Y-84074000D02*
X147320000Y-84201000D01*
X123901933Y-78867000D02*
X142113000Y-78867000D01*
X147828000Y-82169000D02*
X149860000Y-84201000D01*
X144145000Y-78486000D02*
X147828000Y-82169000D01*
X124117100Y-78486000D02*
X144145000Y-78486000D01*
X123273000Y-77641900D02*
X124117100Y-78486000D01*
X123273000Y-76160000D02*
X123273000Y-77641900D01*
X121273000Y-76160000D02*
X121273000Y-77531268D01*
X123751732Y-80010000D02*
X135509000Y-80010000D01*
X121273000Y-77531268D02*
X123751732Y-80010000D01*
X135509000Y-80010000D02*
X139065000Y-83566000D01*
X139065000Y-83566000D02*
X139700000Y-84201000D01*
X121773000Y-77600201D02*
X123801799Y-79629000D01*
X121773000Y-76160000D02*
X121773000Y-77600201D01*
X137668000Y-79629000D02*
X142240000Y-84201000D01*
X123801799Y-79629000D02*
X137668000Y-79629000D01*
X113973000Y-73235000D02*
X113309400Y-73898600D01*
X114848000Y-73235000D02*
X113973000Y-73235000D01*
X113309400Y-83210400D02*
X114300000Y-84201000D01*
X113309400Y-73898600D02*
X113309400Y-83210400D01*
X114848000Y-73735000D02*
X113973000Y-73735000D01*
X113614211Y-74093789D02*
X113614211Y-80975211D01*
X113973000Y-73735000D02*
X113614211Y-74093789D01*
X113614211Y-80975211D02*
X115990001Y-83351001D01*
X115990001Y-83351001D02*
X116840000Y-84201000D01*
X116840000Y-81661000D02*
X119380000Y-84201000D01*
X114705979Y-79526979D02*
X116840000Y-81661000D01*
X114705979Y-74377021D02*
X114705979Y-79526979D01*
X114848000Y-74235000D02*
X114705979Y-74377021D01*
X121070001Y-83351001D02*
X121920000Y-84201000D01*
X116773000Y-76160000D02*
X116524400Y-76160000D01*
X116966989Y-81356189D02*
X119075189Y-81356189D01*
X115011200Y-77673200D02*
X115011200Y-79400400D01*
X119075189Y-81356189D02*
X121070001Y-83351001D01*
X116524400Y-76160000D02*
X115011200Y-77673200D01*
X115011200Y-79400400D02*
X116966989Y-81356189D01*
X118773000Y-76160000D02*
X118773000Y-77244000D01*
X118773000Y-77244000D02*
X123317000Y-81788000D01*
X123317000Y-81788000D02*
X124587000Y-81788000D01*
X124587000Y-81788000D02*
X126150001Y-83351001D01*
X126150001Y-83351001D02*
X127000000Y-84201000D01*
X119273000Y-77255536D02*
X123500653Y-81483189D01*
X123500653Y-81483189D02*
X126822189Y-81483189D01*
X119273000Y-76160000D02*
X119273000Y-77255536D01*
X126822189Y-81483189D02*
X128690001Y-83351001D01*
X128690001Y-83351001D02*
X129540000Y-84201000D01*
X119773000Y-76160000D02*
X119773000Y-77324469D01*
X123601531Y-81153000D02*
X129032000Y-81153000D01*
X119773000Y-77324469D02*
X123601531Y-81153000D01*
X129032000Y-81153000D02*
X132080000Y-84201000D01*
X120773000Y-76160000D02*
X120773000Y-77462335D01*
X120773000Y-77462335D02*
X123701665Y-80391000D01*
X123701665Y-80391000D02*
X133350000Y-80391000D01*
X133350000Y-80391000D02*
X134302500Y-81343500D01*
X134302500Y-81343500D02*
X137160000Y-84201000D01*
X131572000Y-81153000D02*
X134620000Y-84201000D01*
X120273000Y-77393402D02*
X123651598Y-80772000D01*
X131191000Y-80772000D02*
X131572000Y-81153000D01*
X120273000Y-76160000D02*
X120273000Y-77393402D01*
X123651598Y-80772000D02*
X131191000Y-80772000D01*
X109550200Y-74472800D02*
X109550200Y-81991200D01*
X112288000Y-71735000D02*
X109550200Y-74472800D01*
X109550200Y-81991200D02*
X111760000Y-84201000D01*
X114848000Y-71735000D02*
X112288000Y-71735000D01*
X114848000Y-71235000D02*
X112356933Y-71235000D01*
X109220033Y-74371900D02*
X109220033Y-77476436D01*
X109220000Y-77476469D02*
X109220000Y-82998919D01*
X112356933Y-71235000D02*
X109220033Y-74371900D01*
X109220033Y-77476436D02*
X109220000Y-77476469D01*
X109220000Y-82998919D02*
X109220000Y-84201000D01*
X112425866Y-70735000D02*
X108915222Y-74245644D01*
X108915222Y-74245644D02*
X108915222Y-77350180D01*
X114848000Y-70735000D02*
X112425866Y-70735000D01*
X108915222Y-77350180D02*
X108915189Y-77350213D01*
X108915189Y-77350213D02*
X108915189Y-81965811D01*
X108915189Y-81965811D02*
X107529999Y-83351001D01*
X107529999Y-83351001D02*
X106680000Y-84201000D01*
X108610378Y-77223957D02*
X108610378Y-79730622D01*
X108610411Y-77223924D02*
X108610378Y-77223957D01*
X108610378Y-79730622D02*
X104989999Y-83351001D01*
X104989999Y-83351001D02*
X104140000Y-84201000D01*
X112494799Y-70235000D02*
X108610411Y-74119388D01*
X114848000Y-70235000D02*
X112494799Y-70235000D01*
X108610411Y-74119388D02*
X108610411Y-77223924D01*
X97155000Y-72261532D02*
X97155000Y-79756000D01*
X114848000Y-68235000D02*
X101181532Y-68235000D01*
X101181532Y-68235000D02*
X97155000Y-72261532D01*
X97155000Y-79756000D02*
X100750001Y-83351001D01*
X100750001Y-83351001D02*
X101600000Y-84201000D01*
X114848000Y-67735000D02*
X101250466Y-67735000D01*
X96824811Y-81965811D02*
X98210001Y-83351001D01*
X96824811Y-72160655D02*
X96824811Y-81965811D01*
X101250466Y-67735000D02*
X96824811Y-72160655D01*
X98210001Y-83351001D02*
X99060000Y-84201000D01*
X101319400Y-67235000D02*
X113973000Y-67235000D01*
X96520000Y-72034400D02*
X101319400Y-67235000D01*
X96520000Y-84201000D02*
X96520000Y-72034400D01*
X113973000Y-67235000D02*
X114848000Y-67235000D01*
X142240000Y-63628411D02*
X132633411Y-73235000D01*
X132633411Y-73235000D02*
X126198000Y-73235000D01*
X142240000Y-58039000D02*
X142240000Y-63628411D01*
X144780000Y-55499000D02*
X142240000Y-58039000D01*
X139750800Y-57988200D02*
X142240000Y-55499000D01*
X139750800Y-65684400D02*
X139750800Y-57988200D01*
X132700200Y-72735000D02*
X139750800Y-65684400D01*
X126198000Y-72735000D02*
X132700200Y-72735000D01*
D25*
X127699134Y-68235000D02*
X128573334Y-67360800D01*
X126198000Y-68235000D02*
X127699134Y-68235000D01*
X128573334Y-67360800D02*
X128747185Y-67360800D01*
X128747185Y-67360800D02*
X129286000Y-67360800D01*
X145338800Y-73152000D02*
X145211800Y-73025000D01*
X147241000Y-73152000D02*
X145338800Y-73152000D01*
X128524000Y-68376800D02*
X129235200Y-68376800D01*
X128165800Y-68735000D02*
X128524000Y-68376800D01*
D24*
X129235200Y-68376800D02*
X129260600Y-68351400D01*
D25*
X126198000Y-68735000D02*
X128165800Y-68735000D01*
X145400000Y-73802000D02*
X145186400Y-74015600D01*
X147241000Y-73802000D02*
X145400000Y-73802000D01*
D24*
X104989999Y-56348999D02*
X104140000Y-55499000D01*
X115369699Y-58267567D02*
X106908567Y-58267567D01*
X106908567Y-58267567D02*
X104989999Y-56348999D01*
X121273000Y-64810000D02*
X121273000Y-63935000D01*
X115369776Y-58267644D02*
X115369699Y-58267567D01*
X115605644Y-58267644D02*
X115369776Y-58267644D01*
X121273000Y-63935000D02*
X115605644Y-58267644D01*
X120773000Y-64810000D02*
X120773000Y-63935000D01*
X120773000Y-63935000D02*
X115410455Y-58572455D01*
X115410455Y-58572455D02*
X115243520Y-58572455D01*
X115243520Y-58572455D02*
X115243443Y-58572378D01*
X104673378Y-58572378D02*
X102449999Y-56348999D01*
X115243443Y-58572378D02*
X104673378Y-58572378D01*
X102449999Y-56348999D02*
X101600000Y-55499000D01*
X120273000Y-63888665D02*
X115261601Y-58877266D01*
X102438189Y-58877189D02*
X99909999Y-56348999D01*
X99909999Y-56348999D02*
X99060000Y-55499000D01*
X115117264Y-58877266D02*
X115117187Y-58877189D01*
X115261601Y-58877266D02*
X115117264Y-58877266D01*
X120273000Y-64810000D02*
X120273000Y-63888665D01*
X115117187Y-58877189D02*
X102438189Y-58877189D01*
X114991008Y-59182077D02*
X114990931Y-59182000D01*
X100203000Y-59182000D02*
X97369999Y-56348999D01*
X114990931Y-59182000D02*
X100203000Y-59182000D01*
X119773000Y-64810000D02*
X119773000Y-63819732D01*
X97369999Y-56348999D02*
X96520000Y-55499000D01*
X119773000Y-63819732D02*
X115135345Y-59182077D01*
X115135345Y-59182077D02*
X114991008Y-59182077D01*
X115496032Y-57962833D02*
X115495955Y-57962756D01*
X107529999Y-56348999D02*
X106680000Y-55499000D01*
X121773000Y-64810000D02*
X121773000Y-63935000D01*
X121773000Y-63935000D02*
X115800833Y-57962833D01*
X109143756Y-57962756D02*
X107529999Y-56348999D01*
X115800833Y-57962833D02*
X115496032Y-57962833D01*
X115495955Y-57962756D02*
X109143756Y-57962756D01*
X115622288Y-57658022D02*
X115622211Y-57657945D01*
X110069999Y-56348999D02*
X109220000Y-55499000D01*
X122273000Y-64810000D02*
X122273000Y-63953132D01*
X122273000Y-63953132D02*
X115977890Y-57658022D01*
X115977890Y-57658022D02*
X115622288Y-57658022D01*
X115622211Y-57657945D02*
X111378945Y-57657945D01*
X111378945Y-57657945D02*
X110069999Y-56348999D01*
X122773000Y-64810000D02*
X122773000Y-64022066D01*
X116104145Y-57353211D02*
X115748544Y-57353211D01*
X115748544Y-57353211D02*
X115748467Y-57353134D01*
X115748467Y-57353134D02*
X113614134Y-57353134D01*
X112609999Y-56348999D02*
X111760000Y-55499000D01*
X122773000Y-64022066D02*
X116104145Y-57353211D01*
X113614134Y-57353134D02*
X112609999Y-56348999D01*
X116307099Y-57048400D02*
X115874800Y-57048400D01*
X114325400Y-55499000D02*
X114300000Y-55499000D01*
X115874800Y-57048400D02*
X114325400Y-55499000D01*
X123273000Y-64014301D02*
X116307099Y-57048400D01*
X123273000Y-64810000D02*
X123273000Y-64014301D01*
X116840000Y-57099200D02*
X116840000Y-55499000D01*
X123773000Y-64032200D02*
X116840000Y-57099200D01*
X123773000Y-64810000D02*
X123773000Y-64032200D01*
X130258434Y-70235000D02*
X131775156Y-68718278D01*
X126198000Y-70235000D02*
X130258434Y-70235000D01*
X131775156Y-57734156D02*
X130389999Y-56348999D01*
X131775156Y-68718278D02*
X131775156Y-57734156D01*
X130389999Y-56348999D02*
X129540000Y-55499000D01*
X131470345Y-68592022D02*
X131470345Y-57887278D01*
X126198000Y-69735000D02*
X130327367Y-69735000D01*
X130580667Y-56997600D02*
X128498600Y-56997600D01*
X131470345Y-57887278D02*
X130580667Y-56997600D01*
X130327367Y-69735000D02*
X131470345Y-68592022D01*
X128498600Y-56997600D02*
X127849999Y-56348999D01*
X127849999Y-56348999D02*
X127000000Y-55499000D01*
X125309999Y-56348999D02*
X124460000Y-55499000D01*
X130454411Y-57302411D02*
X126263411Y-57302411D01*
X131165534Y-58013534D02*
X130454411Y-57302411D01*
X130396300Y-69235000D02*
X131165534Y-68465766D01*
X131165534Y-68465766D02*
X131165534Y-58013534D01*
X126198000Y-69235000D02*
X130396300Y-69235000D01*
X126263411Y-57302411D02*
X125309999Y-56348999D01*
X126198000Y-70735000D02*
X130189501Y-70735000D01*
X130189501Y-70735000D02*
X132079967Y-68844534D01*
X132079967Y-68844534D02*
X132079967Y-56701114D01*
X132079967Y-56701114D02*
X132080000Y-56701081D01*
X132080000Y-56701081D02*
X132080000Y-55499000D01*
X132384778Y-68970790D02*
X132384778Y-57734222D01*
X126198000Y-71235000D02*
X130120568Y-71235000D01*
X130120568Y-71235000D02*
X132384778Y-68970790D01*
X133770001Y-56348999D02*
X134620000Y-55499000D01*
X132384778Y-57734222D02*
X133770001Y-56348999D01*
X136310001Y-56348999D02*
X137160000Y-55499000D01*
X132689589Y-69097046D02*
X132689589Y-57861944D01*
X126198000Y-71735000D02*
X130051635Y-71735000D01*
X132689589Y-57861944D02*
X133553944Y-56997589D01*
X133553944Y-56997589D02*
X135661411Y-56997589D01*
X130051635Y-71735000D02*
X132689589Y-69097046D01*
X135661411Y-56997589D02*
X136310001Y-56348999D01*
X137896600Y-57302400D02*
X138850001Y-56348999D01*
X132994400Y-57988200D02*
X133680200Y-57302400D01*
X132994400Y-69240400D02*
X132994400Y-57988200D01*
X138850001Y-56348999D02*
X139700000Y-55499000D01*
X133680200Y-57302400D02*
X137896600Y-57302400D01*
X129999800Y-72235000D02*
X132994400Y-69240400D01*
X126198000Y-72235000D02*
X129999800Y-72235000D01*
X134958667Y-74235000D02*
X149860000Y-59333667D01*
X126198000Y-74235000D02*
X134958667Y-74235000D01*
X149860000Y-59333667D02*
X149860000Y-56501400D01*
X149860000Y-56501400D02*
X149860000Y-55499000D01*
X147320000Y-61442600D02*
X147320000Y-55499000D01*
X135027600Y-73735000D02*
X147320000Y-61442600D01*
X126198000Y-73735000D02*
X135027600Y-73735000D01*
X110629700Y-61836300D02*
X109799200Y-61836300D01*
X111607600Y-60858400D02*
X110629700Y-61836300D01*
X112126000Y-60858400D02*
X111607600Y-60858400D01*
X104114700Y-61747400D02*
X104089200Y-61772900D01*
X105910300Y-61747400D02*
X104114700Y-61747400D01*
X105999200Y-61836300D02*
X105910300Y-61747400D01*
X106951600Y-61836300D02*
X105999200Y-61836300D01*
X118773000Y-64810000D02*
X118773000Y-63681866D01*
X118773000Y-63681866D02*
X117422712Y-62331578D01*
X107853300Y-62738000D02*
X106951600Y-61836300D01*
X117422712Y-62331578D02*
X111887022Y-62331578D01*
X111480600Y-62738000D02*
X107853300Y-62738000D01*
X111887022Y-62331578D02*
X111480600Y-62738000D01*
X102843090Y-80557779D02*
X100093089Y-80557779D01*
X103893089Y-80557779D02*
X102843090Y-80557779D01*
X108305600Y-77097668D02*
X104845489Y-80557779D01*
X108305600Y-73993132D02*
X108305600Y-77097668D01*
X114848000Y-69735000D02*
X112563732Y-69735000D01*
X112563732Y-69735000D02*
X108305600Y-73993132D01*
X104845489Y-80557779D02*
X103893089Y-80557779D01*
X107600766Y-63347600D02*
X99288600Y-63347600D01*
X111733112Y-63347622D02*
X107600788Y-63347622D01*
X112139534Y-62941200D02*
X111733112Y-63347622D01*
X117773000Y-63544000D02*
X117170200Y-62941200D01*
X92289999Y-56348999D02*
X91440000Y-55499000D01*
X107600788Y-63347622D02*
X107600766Y-63347600D01*
X117773000Y-64810000D02*
X117773000Y-63544000D01*
X117170200Y-62941200D02*
X112139534Y-62941200D01*
X99288600Y-63347600D02*
X92289999Y-56348999D01*
X111606856Y-63042811D02*
X107727044Y-63042811D01*
X107727022Y-63042789D02*
X101523789Y-63042789D01*
X94829999Y-56348999D02*
X93980000Y-55499000D01*
X117296456Y-62636389D02*
X112013278Y-62636389D01*
X118273000Y-64810000D02*
X118273000Y-63612933D01*
X112013278Y-62636389D02*
X111606856Y-63042811D01*
X118273000Y-63612933D02*
X117296456Y-62636389D01*
X107727044Y-63042811D02*
X107727022Y-63042789D01*
X101523789Y-63042789D02*
X94829999Y-56348999D01*
X124345700Y-60464700D02*
X119380000Y-55499000D01*
X124345700Y-64737300D02*
X124345700Y-60464700D01*
X124273000Y-64810000D02*
X124345700Y-64737300D01*
X129921000Y-62484000D02*
X129565400Y-62128400D01*
X127541812Y-67735000D02*
X129921000Y-65355812D01*
X129921000Y-65355812D02*
X129921000Y-62484000D01*
X129565400Y-62128400D02*
X128549400Y-62128400D01*
X128549400Y-62128400D02*
X121920000Y-55499000D01*
X126198000Y-67735000D02*
X127541812Y-67735000D01*
X122273000Y-76160000D02*
X122273000Y-77669134D01*
X144653000Y-84201000D02*
X144780000Y-84201000D01*
X123851866Y-79248000D02*
X139700000Y-79248000D01*
X139700000Y-79248000D02*
X144653000Y-84201000D01*
X122273000Y-77669134D02*
X123851866Y-79248000D01*
X114026000Y-60858400D02*
X113426000Y-60858400D01*
X119273000Y-63750799D02*
X116380601Y-60858400D01*
X119273000Y-64810000D02*
X119273000Y-63750799D01*
X116380601Y-60858400D02*
X114026000Y-60858400D01*
M02*
