M48
; DRILL file {KiCad (5.1.0-0)} date Sunday, January 19, 2020 at 12:01:03 PM
; FORMAT={-:-/ absolute / metric / decimal}
; #@! TF.CreationDate,2020-01-19T12:01:03-08:00
; #@! TF.GenerationSoftware,Kicad,Pcbnew,(5.1.0-0)
FMAT,2
METRIC
T1C0.508
T2C1.000
%
G90
G05
T1
X93.98Y-82.042
X102.105Y-61.162
X103.893Y-78.857
X109.799Y-60.135
X110.744Y-78.105
X110.896Y-65.278
X111.633Y-82.042
X117.094Y-80.01
X118.618Y-80.01
X128.372Y-63.172
X129.261Y-68.351
X129.286Y-67.361
X144.424Y-70.256
X145.186Y-74.016
X145.212Y-73.025
T2
X124.46Y-60.579
X127.0Y-60.579
X129.54Y-60.579
X150.241Y-69.852
X150.241Y-76.452
X91.44Y-55.499
X93.98Y-55.499
X96.52Y-55.499
X99.06Y-55.499
X101.6Y-55.499
X104.14Y-55.499
X106.68Y-55.499
X109.22Y-55.499
X111.76Y-55.499
X114.3Y-55.499
X116.84Y-55.499
X119.38Y-55.499
X121.92Y-55.499
X124.46Y-55.499
X127.0Y-55.499
X129.54Y-55.499
X132.08Y-55.499
X134.62Y-55.499
X137.16Y-55.499
X139.7Y-55.499
X142.24Y-55.499
X144.78Y-55.499
X147.32Y-55.499
X149.86Y-55.499
X134.62Y-60.579
X137.16Y-60.579
X139.7Y-60.579
X142.24Y-60.579
X144.78Y-60.579
X91.44Y-84.201
X93.98Y-84.201
X96.52Y-84.201
X99.06Y-84.201
X101.6Y-84.201
X104.14Y-84.201
X106.68Y-84.201
X109.22Y-84.201
X111.76Y-84.201
X114.3Y-84.201
X116.84Y-84.201
X119.38Y-84.201
X121.92Y-84.201
X124.46Y-84.201
X127.0Y-84.201
X129.54Y-84.201
X132.08Y-84.201
X134.62Y-84.201
X137.16Y-84.201
X139.7Y-84.201
X142.24Y-84.201
X144.78Y-84.201
X147.32Y-84.201
X149.86Y-84.201
T0
M30
